<svg width="37" height="59" viewBox="0 0 37 59" fill="none" xmlns="http://www.w3.org/2000/svg">
<mask id="path-1-outside-1" maskUnits="userSpaceOnUse" x="0" y="0" width="37" height="59" fill="black">
<rect fill="white" width="37" height="59"/>
<path d="M21.4853 23.7018C21.058 23.3711 20.4306 23.4336 20.0841 23.8412C19.6604 24.3396 19.0979 24.6141 18.5001 24.6141C17.9024 24.6141 17.3399 24.3396 16.9162 23.8412C16.5697 23.4336 15.9423 23.3713 15.515 23.7018C15.0877 24.0324 15.0223 24.6308 15.3689 25.0384C16.1665 25.9765 17.3079 26.5145 18.5003 26.5145C19.6927 26.5145 20.8336 25.9765 21.6314 25.0384C21.9779 24.6309 21.9126 24.0324 21.4853 23.7018Z"/>
<path d="M13.7846 17.8672C13.2345 17.8672 12.7884 18.2927 12.7884 18.8175V19.942C12.7884 20.4668 13.2345 20.8922 13.7846 20.8922C14.3348 20.8922 14.7808 20.4668 14.7808 19.942V18.8175C14.7808 18.2926 14.3348 17.8672 13.7846 17.8672Z"/>
<path d="M23.2154 17.8672C22.6652 17.8672 22.2192 18.2927 22.2192 18.8175V19.942C22.2192 20.4668 22.6652 20.8922 23.2154 20.8922C23.7655 20.8922 24.2116 20.4668 24.2116 19.942V18.8175C24.2116 18.2928 23.7655 17.8672 23.2154 17.8672Z"/>
<path fill-rule="evenodd" clip-rule="evenodd" d="M33.1507 37.3275L25.0674 34.2433C24.9987 34.217 24.9334 34.1857 24.8715 34.1504C30.3463 33.0988 32.9103 32.1104 33.0237 32.066C33.44 31.9033 33.6904 31.4946 33.6346 31.0688C33.6229 30.9793 32.4635 22.0423 32.4635 14.3195C32.4635 6.97511 26.1995 1 18.5 1C7.83098 1 4.74559 9.87982 4.53653 14.3197C4.53653 22.0389 3.37708 30.9796 3.36539 31.069C3.3096 31.4948 3.55985 31.9035 3.97626 32.0663L12.1285 34.1506C12.0666 34.186 12.0013 34.2173 11.9326 34.2435L3.84941 37.3277C2.11853 37.988 1.00013 39.5638 1.00013 41.3421V43.7303L1 45.6308V46.93C1 47.1821 1.10507 47.4239 1.29195 47.6021C1.47871 47.7803 1.73201 47.8802 1.9962 47.8802H2.17884V57.0497C2.17884 57.5745 2.62488 58 3.17505 58C3.72522 58 4.17125 57.5745 4.17125 57.0497V47.8797H6.89421V57.0497C6.89421 57.5745 7.34024 58 7.89041 58C8.44059 58 8.88662 57.5745 8.88662 57.0497V44.6805C8.88662 44.1557 8.44059 43.7303 7.89041 43.7303C7.34024 43.7303 6.89421 44.1557 6.89421 44.6805V45.9792H2.99241V41.3419C2.99241 40.3453 3.61922 39.4622 4.58926 39.0921L8.56305 37.5759C9.93038 42.7609 15.7574 44.3565 18.5 44.5062C23.0663 44.5062 27.0716 41.6826 28.4369 37.5759L32.4107 39.0921C33.3808 39.4622 34.0076 40.3454 34.0076 41.3419V45.9792H30.1058V44.6805C30.1058 44.1557 29.6598 43.7303 29.1096 43.7303C28.5594 43.7303 28.1134 44.1557 28.1134 44.6805V57.0497C28.1134 57.5745 28.5594 58 29.1096 58C29.6598 58 30.1058 57.5745 30.1058 57.0497V47.8797H32.8287V57.0497C32.8287 57.5745 33.2748 58 33.825 58C34.3751 58 34.8212 57.5745 34.8212 57.0497V47.8797H35.0038C35.554 47.8797 36 47.4543 36 46.9295V41.3419C36 39.5637 34.8816 37.988 33.1507 37.3275ZM30.4711 14.3196C30.4711 8.02318 25.1009 2.90065 18.5 2.90065C15.0952 2.64182 7.93422 4.56326 6.5288 14.3196C6.5288 14.8425 6.52349 15.3708 6.51379 15.9013C6.93406 15.72 7.39988 15.6183 7.89028 15.6183C8.92935 15.443 11.3848 14.4027 12.8942 11.6444C13.0294 11.3885 13.2786 11.2039 13.572 11.1428C13.8654 11.0816 14.1725 11.1495 14.4069 11.3286C16.5509 12.9645 19.2388 13.4736 21.8382 13.9659C25.9027 14.7356 30.1058 15.5315 30.1058 21.0664C30.1058 21.8961 30.009 22.7236 29.8181 23.526C29.2452 25.9339 27.815 28.1197 25.7909 29.6802C25.2937 30.0636 24.7647 30.4043 24.2116 30.7021V32.338C28.0454 31.6123 30.4607 30.9075 31.5644 30.5498C31.2845 28.209 30.4711 20.8435 30.4711 14.3196ZM12.4615 28.2021C14.1876 29.533 16.2757 30.2366 18.5 30.2366C20.7243 30.2366 22.8124 29.5331 24.5385 28.2023C26.2159 26.9089 27.401 25.0988 27.8752 23.1054C28.0331 22.4409 28.1134 21.7549 28.1134 21.0666C28.1134 17.2687 25.8286 16.6593 21.4502 15.8301C19.0723 15.3797 16.4151 14.8765 14.0919 13.4497C12.9534 15.7959 9.48319 17.14 7.89041 17.5188C7.13967 17.5188 6.52894 18.1014 6.52894 18.8175C6.57131 19.2504 6.90292 20.1162 7.89041 20.1162C8.44059 20.1162 8.88662 20.5416 8.88662 21.0664C8.88662 21.7547 8.96672 22.4408 9.12478 23.1053C9.40549 25.088 11.4662 27.3293 12.4615 28.2021ZM6.92542 21.8818C6.69258 21.8149 6.47155 21.7226 6.26288 21.6116L5.46598 30.7021C6.4152 31.0124 9.20859 31.8846 12.7884 32.8916V30.7021L11.2091 29.6802C9.18508 28.1197 7.7548 25.9339 7.18191 23.526C6.92416 22.6555 6.90352 22.0671 6.92542 21.8818ZM14.7808 33.0377C14.7808 34.3535 13.9532 35.5194 12.6725 36.0081L10.4175 36.8684C12.1581 41.4874 16.5311 42.6179 18.5 42.6058C22.2432 42.6058 25.521 40.2614 26.582 36.8684L24.3274 36.0081C23.0467 35.5194 22.2192 34.3535 22.2192 33.0377V31.5496C21.0277 31.934 19.7709 32.1372 18.5 32.1372C17.2291 32.1372 15.9723 31.934 14.7808 31.5496V33.0377Z"/>
</mask>
<path d="M21.4853 23.7018C21.058 23.3711 20.4306 23.4336 20.0841 23.8412C19.6604 24.3396 19.0979 24.6141 18.5001 24.6141C17.9024 24.6141 17.3399 24.3396 16.9162 23.8412C16.5697 23.4336 15.9423 23.3713 15.515 23.7018C15.0877 24.0324 15.0223 24.6308 15.3689 25.0384C16.1665 25.9765 17.3079 26.5145 18.5003 26.5145C19.6927 26.5145 20.8336 25.9765 21.6314 25.0384C21.9779 24.6309 21.9126 24.0324 21.4853 23.7018Z" fill="black"/>
<path d="M13.7846 17.8672C13.2345 17.8672 12.7884 18.2927 12.7884 18.8175V19.942C12.7884 20.4668 13.2345 20.8922 13.7846 20.8922C14.3348 20.8922 14.7808 20.4668 14.7808 19.942V18.8175C14.7808 18.2926 14.3348 17.8672 13.7846 17.8672Z" fill="black"/>
<path d="M23.2154 17.8672C22.6652 17.8672 22.2192 18.2927 22.2192 18.8175V19.942C22.2192 20.4668 22.6652 20.8922 23.2154 20.8922C23.7655 20.8922 24.2116 20.4668 24.2116 19.942V18.8175C24.2116 18.2928 23.7655 17.8672 23.2154 17.8672Z" fill="black"/>
<path fill-rule="evenodd" clip-rule="evenodd" d="M33.1507 37.3275L25.0674 34.2433C24.9987 34.217 24.9334 34.1857 24.8715 34.1504C30.3463 33.0988 32.9103 32.1104 33.0237 32.066C33.44 31.9033 33.6904 31.4946 33.6346 31.0688C33.6229 30.9793 32.4635 22.0423 32.4635 14.3195C32.4635 6.97511 26.1995 1 18.5 1C7.83098 1 4.74559 9.87982 4.53653 14.3197C4.53653 22.0389 3.37708 30.9796 3.36539 31.069C3.3096 31.4948 3.55985 31.9035 3.97626 32.0663L12.1285 34.1506C12.0666 34.186 12.0013 34.2173 11.9326 34.2435L3.84941 37.3277C2.11853 37.988 1.00013 39.5638 1.00013 41.3421V43.7303L1 45.6308V46.93C1 47.1821 1.10507 47.4239 1.29195 47.6021C1.47871 47.7803 1.73201 47.8802 1.9962 47.8802H2.17884V57.0497C2.17884 57.5745 2.62488 58 3.17505 58C3.72522 58 4.17125 57.5745 4.17125 57.0497V47.8797H6.89421V57.0497C6.89421 57.5745 7.34024 58 7.89041 58C8.44059 58 8.88662 57.5745 8.88662 57.0497V44.6805C8.88662 44.1557 8.44059 43.7303 7.89041 43.7303C7.34024 43.7303 6.89421 44.1557 6.89421 44.6805V45.9792H2.99241V41.3419C2.99241 40.3453 3.61922 39.4622 4.58926 39.0921L8.56305 37.5759C9.93038 42.7609 15.7574 44.3565 18.5 44.5062C23.0663 44.5062 27.0716 41.6826 28.4369 37.5759L32.4107 39.0921C33.3808 39.4622 34.0076 40.3454 34.0076 41.3419V45.9792H30.1058V44.6805C30.1058 44.1557 29.6598 43.7303 29.1096 43.7303C28.5594 43.7303 28.1134 44.1557 28.1134 44.6805V57.0497C28.1134 57.5745 28.5594 58 29.1096 58C29.6598 58 30.1058 57.5745 30.1058 57.0497V47.8797H32.8287V57.0497C32.8287 57.5745 33.2748 58 33.825 58C34.3751 58 34.8212 57.5745 34.8212 57.0497V47.8797H35.0038C35.554 47.8797 36 47.4543 36 46.9295V41.3419C36 39.5637 34.8816 37.988 33.1507 37.3275ZM30.4711 14.3196C30.4711 8.02318 25.1009 2.90065 18.5 2.90065C15.0952 2.64182 7.93422 4.56326 6.5288 14.3196C6.5288 14.8425 6.52349 15.3708 6.51379 15.9013C6.93406 15.72 7.39988 15.6183 7.89028 15.6183C8.92935 15.443 11.3848 14.4027 12.8942 11.6444C13.0294 11.3885 13.2786 11.2039 13.572 11.1428C13.8654 11.0816 14.1725 11.1495 14.4069 11.3286C16.5509 12.9645 19.2388 13.4736 21.8382 13.9659C25.9027 14.7356 30.1058 15.5315 30.1058 21.0664C30.1058 21.8961 30.009 22.7236 29.8181 23.526C29.2452 25.9339 27.815 28.1197 25.7909 29.6802C25.2937 30.0636 24.7647 30.4043 24.2116 30.7021V32.338C28.0454 31.6123 30.4607 30.9075 31.5644 30.5498C31.2845 28.209 30.4711 20.8435 30.4711 14.3196ZM12.4615 28.2021C14.1876 29.533 16.2757 30.2366 18.5 30.2366C20.7243 30.2366 22.8124 29.5331 24.5385 28.2023C26.2159 26.9089 27.401 25.0988 27.8752 23.1054C28.0331 22.4409 28.1134 21.7549 28.1134 21.0666C28.1134 17.2687 25.8286 16.6593 21.4502 15.8301C19.0723 15.3797 16.4151 14.8765 14.0919 13.4497C12.9534 15.7959 9.48319 17.14 7.89041 17.5188C7.13967 17.5188 6.52894 18.1014 6.52894 18.8175C6.57131 19.2504 6.90292 20.1162 7.89041 20.1162C8.44059 20.1162 8.88662 20.5416 8.88662 21.0664C8.88662 21.7547 8.96672 22.4408 9.12478 23.1053C9.40549 25.088 11.4662 27.3293 12.4615 28.2021ZM6.92542 21.8818C6.69258 21.8149 6.47155 21.7226 6.26288 21.6116L5.46598 30.7021C6.4152 31.0124 9.20859 31.8846 12.7884 32.8916V30.7021L11.2091 29.6802C9.18508 28.1197 7.7548 25.9339 7.18191 23.526C6.92416 22.6555 6.90352 22.0671 6.92542 21.8818ZM14.7808 33.0377C14.7808 34.3535 13.9532 35.5194 12.6725 36.0081L10.4175 36.8684C12.1581 41.4874 16.5311 42.6179 18.5 42.6058C22.2432 42.6058 25.521 40.2614 26.582 36.8684L24.3274 36.0081C23.0467 35.5194 22.2192 34.3535 22.2192 33.0377V31.5496C21.0277 31.934 19.7709 32.1372 18.5 32.1372C17.2291 32.1372 15.9723 31.934 14.7808 31.5496V33.0377Z" fill="black"/>
<path d="M21.4853 23.7018L21.3629 23.86L21.3629 23.86L21.4853 23.7018ZM20.0841 23.8412L19.9317 23.7117L19.9317 23.7117L20.0841 23.8412ZM16.9162 23.8412L16.7638 23.9707L16.7638 23.9707L16.9162 23.8412ZM15.3689 25.0384L15.2165 25.168L15.2165 25.168L15.3689 25.0384ZM21.6314 25.0384L21.479 24.9088L21.479 24.9088L21.6314 25.0384ZM33.1507 37.3275L33.222 37.1407L33.222 37.1407L33.1507 37.3275ZM25.0674 34.2433L24.996 34.4301L24.9961 34.4301L25.0674 34.2433ZM24.8715 34.1504L24.8337 33.954L24.3028 34.056L24.7723 34.3241L24.8715 34.1504ZM33.0237 32.066L32.9509 31.8797L32.9509 31.8797L33.0237 32.066ZM33.6346 31.0688L33.4363 31.0947L33.4363 31.0947L33.6346 31.0688ZM4.53653 14.3197L4.33653 14.3103V14.3197H4.53653ZM3.36539 31.069L3.56369 31.095L3.5637 31.0949L3.36539 31.069ZM3.97626 32.0663L3.90343 32.2525L3.91485 32.257L3.92672 32.26L3.97626 32.0663ZM12.1285 34.1506L12.2277 34.3243L12.6568 34.0793L12.1781 33.9569L12.1285 34.1506ZM11.9326 34.2435L12.0039 34.4304L12.004 34.4303L11.9326 34.2435ZM3.84941 37.3277L3.9207 37.5145H3.9207L3.84941 37.3277ZM1.00013 43.7303L1.20013 43.7303V43.7303H1.00013ZM1 45.6308L0.8 45.6308V45.6308H1ZM1.29195 47.6021L1.15391 47.7469H1.15391L1.29195 47.6021ZM2.17884 47.8802H2.37884V47.6802H2.17884V47.8802ZM4.17125 47.8797V47.6797H3.97125V47.8797H4.17125ZM6.89421 47.8797H7.09421V47.6797H6.89421V47.8797ZM6.89421 45.9792V46.1792H7.09421V45.9792H6.89421ZM2.99241 45.9792H2.79241V46.1792H2.99241V45.9792ZM4.58926 39.0921L4.66055 39.279L4.66056 39.279L4.58926 39.0921ZM8.56305 37.5759L8.75644 37.5249L8.69969 37.3097L8.49175 37.389L8.56305 37.5759ZM18.5 44.5062L18.4891 44.7062H18.5V44.5062ZM28.4369 37.5759L28.5082 37.389L28.3131 37.3145L28.2472 37.5128L28.4369 37.5759ZM32.4107 39.0921L32.3394 39.279L32.3394 39.279L32.4107 39.0921ZM34.0076 45.9792V46.1792H34.2076V45.9792H34.0076ZM30.1058 45.9792H29.9058V46.1792H30.1058V45.9792ZM30.1058 47.8797V47.6797H29.9058V47.8797H30.1058ZM32.8287 47.8797H33.0287V47.6797H32.8287V47.8797ZM34.8212 47.8797V47.6797H34.6212V47.8797H34.8212ZM6.5288 14.3196L6.33085 14.2911L6.3288 14.3053V14.3196H6.5288ZM18.5 2.90065L18.4848 3.10007L18.4924 3.10065H18.5V2.90065ZM31.5644 30.5498L31.626 30.74L31.7825 30.6893L31.7629 30.526L31.5644 30.5498ZM24.2116 32.338H24.0116V32.5795L24.2488 32.5346L24.2116 32.338ZM24.2116 30.7021L24.1168 30.526L24.0116 30.5826V30.7021H24.2116ZM25.7909 29.6802L25.6688 29.5218L25.6688 29.5219L25.7909 29.6802ZM29.8181 23.526L30.0127 23.5723L30.0127 23.5723L29.8181 23.526ZM21.8382 13.9659L21.8754 13.7693H21.8754L21.8382 13.9659ZM14.4069 11.3286L14.2855 11.4875L14.2856 11.4876L14.4069 11.3286ZM13.572 11.1428L13.6127 11.3386L13.6128 11.3386L13.572 11.1428ZM12.8942 11.6444L13.0696 11.7404L13.071 11.7379L12.8942 11.6444ZM7.89028 15.6183V15.8183H7.90704L7.92356 15.8155L7.89028 15.6183ZM6.51379 15.9013L6.31382 15.8977L6.30815 16.2079L6.59302 16.085L6.51379 15.9013ZM12.4615 28.2021L12.3294 28.3528L12.3394 28.3605L12.4615 28.2021ZM9.12478 23.1053L9.32281 23.0773L9.3215 23.0681L9.31935 23.059L9.12478 23.1053ZM6.52894 18.8175H6.32894V18.8273L6.32989 18.837L6.52894 18.8175ZM7.89041 17.5188V17.7188H7.91387L7.93669 17.7134L7.89041 17.5188ZM14.0919 13.4497L14.1965 13.2792L14.0083 13.1637L13.9119 13.3624L14.0919 13.4497ZM21.4502 15.8301L21.413 16.0266L21.413 16.0266L21.4502 15.8301ZM27.8752 23.1054L28.0698 23.1517L28.0698 23.1517L27.8752 23.1054ZM24.5385 28.2023L24.4163 28.0439H24.4163L24.5385 28.2023ZM6.26288 21.6116L6.3568 21.4351L6.09003 21.2932L6.06365 21.5942L6.26288 21.6116ZM6.92542 21.8818L7.12404 21.9052L7.14398 21.7365L6.98065 21.6895L6.92542 21.8818ZM7.18191 23.526L7.37677 23.4796L7.37368 23.4692L7.18191 23.526ZM11.2091 29.6802L11.087 29.8386L11.0935 29.8437L11.1005 29.8481L11.2091 29.6802ZM12.7884 30.7021H12.9884V30.5933L12.8971 30.5342L12.7884 30.7021ZM12.7884 32.8916L12.7343 33.0842L12.9884 33.1557V32.8916H12.7884ZM18.5 42.6058V42.4058L18.4988 42.4058L18.5 42.6058ZM12.6725 36.0081L12.7438 36.1949L12.7438 36.1949L12.6725 36.0081ZM14.7808 31.5496L14.8422 31.3592L14.5808 31.2749V31.5496H14.7808ZM22.2192 31.5496H22.4192V31.2749L22.1578 31.3592L22.2192 31.5496ZM24.3274 36.0081L24.3987 35.8212L24.3274 36.0081ZM26.582 36.8684L26.7729 36.9281L26.829 36.7486L26.6533 36.6815L26.582 36.8684ZM5.46598 30.7021L5.26674 30.6846L5.25287 30.8428L5.40384 30.8922L5.46598 30.7021ZM10.4175 36.8684L10.3462 36.6815L10.1601 36.7525L10.2304 36.9389L10.4175 36.8684ZM21.6077 23.5437C21.0972 23.1486 20.3486 23.2213 19.9317 23.7117L20.2365 23.9708C20.5127 23.6459 21.0188 23.5937 21.3629 23.86L21.6077 23.5437ZM19.9317 23.7117C19.5419 24.1702 19.0332 24.4141 18.5001 24.4141V24.8141C19.1625 24.8141 19.7788 24.5091 20.2365 23.9707L19.9317 23.7117ZM18.5001 24.4141C17.9671 24.4141 17.4583 24.1702 17.0685 23.7117L16.7638 23.9707C17.2215 24.5091 17.8378 24.8141 18.5001 24.8141V24.4141ZM17.0686 23.7117C16.6518 23.2213 15.903 23.1488 15.3926 23.5436L15.6374 23.86C15.9815 23.5938 16.4877 23.6459 16.7638 23.9707L17.0686 23.7117ZM15.3926 23.5436C14.8766 23.9428 14.7948 24.672 15.2165 25.168L15.5212 24.9089C15.2498 24.5896 15.2988 24.122 15.6374 23.86L15.3926 23.5436ZM15.2165 25.168C16.0507 26.1491 17.2471 26.7145 18.5003 26.7145V26.3145C17.3687 26.3145 16.2823 25.8039 15.5212 24.9089L15.2165 25.168ZM18.5003 26.7145C19.7535 26.7145 20.9494 26.1491 21.7838 25.168L21.479 24.9088C20.7178 25.8039 19.6318 26.3145 18.5003 26.3145V26.7145ZM21.7838 25.168C22.2055 24.6721 22.1237 23.9428 21.6077 23.5436L21.3629 23.86C21.7015 24.122 21.7504 24.5898 21.479 24.9088L21.7838 25.168ZM13.7846 17.6672C13.133 17.6672 12.5884 18.1734 12.5884 18.8175H12.9884C12.9884 18.412 13.3359 18.0672 13.7846 18.0672V17.6672ZM12.5884 18.8175V19.942H12.9884V18.8175H12.5884ZM12.5884 19.942C12.5884 20.586 13.133 21.0922 13.7846 21.0922V20.6922C13.3359 20.6922 12.9884 20.3475 12.9884 19.942H12.5884ZM13.7846 21.0922C14.4363 21.0922 14.9808 20.586 14.9808 19.942H14.5808C14.5808 20.3475 14.2333 20.6922 13.7846 20.6922V21.0922ZM14.9808 19.942V18.8175H14.5808V19.942H14.9808ZM14.9808 18.8175C14.9808 18.1733 14.4362 17.6672 13.7846 17.6672V18.0672C14.2334 18.0672 14.5808 18.4118 14.5808 18.8175H14.9808ZM23.2154 17.6672C22.5637 17.6672 22.0192 18.1734 22.0192 18.8175H22.4192C22.4192 18.412 22.7667 18.0672 23.2154 18.0672V17.6672ZM22.0192 18.8175V19.942H22.4192V18.8175H22.0192ZM22.0192 19.942C22.0192 20.586 22.5637 21.0922 23.2154 21.0922V20.6922C22.7667 20.6922 22.4192 20.3475 22.4192 19.942H22.0192ZM23.2154 21.0922C23.867 21.0922 24.4116 20.586 24.4116 19.942H24.0116C24.0116 20.3475 23.6641 20.6922 23.2154 20.6922V21.0922ZM24.4116 19.942V18.8175H24.0116V19.942H24.4116ZM24.4116 18.8175C24.4116 18.1736 23.867 17.6672 23.2154 17.6672V18.0672C23.6641 18.0672 24.0116 18.4121 24.0116 18.8175H24.4116ZM33.222 37.1407L25.1387 34.0564L24.9961 34.4301L33.0794 37.5144L33.222 37.1407ZM25.1387 34.0564C25.0801 34.034 25.024 34.0072 24.9706 33.9767L24.7723 34.3241C24.8427 34.3643 24.9173 34.4 24.996 34.4301L25.1387 34.0564ZM24.9092 34.3468C30.3955 33.293 32.9713 32.3013 33.0966 32.2523L32.9509 31.8797C32.8493 31.9195 30.2972 32.9046 24.8337 33.954L24.9092 34.3468ZM33.0965 32.2523C33.5935 32.0581 33.9013 31.565 33.8329 31.0428L33.4363 31.0947C33.4795 31.4242 33.2865 31.7486 32.9509 31.8797L33.0965 32.2523ZM33.8329 31.0428C33.8213 30.9539 32.6635 22.0282 32.6635 14.3195H32.2635C32.2635 22.0564 33.4245 31.0047 33.4363 31.0947L33.8329 31.0428ZM32.6635 14.3195C32.6635 6.85586 26.3009 0.8 18.5 0.8V1.2C26.098 1.2 32.2635 7.09436 32.2635 14.3195H32.6635ZM4.33653 14.3197C4.33653 22.0247 3.1787 30.9542 3.16707 31.0431L3.5637 31.0949C3.57546 31.005 4.73653 22.053 4.73653 14.3197H4.33653ZM3.16708 31.043C3.09867 31.5653 3.40636 32.0582 3.90343 32.2525L4.04909 31.88C3.71334 31.7487 3.52053 31.4244 3.56369 31.095L3.16708 31.043ZM12.0294 33.977C11.976 34.0075 11.9199 34.0343 11.8613 34.0567L12.004 34.4303C12.0827 34.4003 12.1573 34.3645 12.2277 34.3243L12.0294 33.977ZM3.77812 37.1408C1.97404 37.8291 0.800132 39.4764 0.800132 41.3421H1.20013C1.20013 39.6513 2.26302 38.147 3.9207 37.5145L3.77812 37.1408ZM0.800132 41.3421V43.7303H1.20013V41.3421H0.800132ZM0.8 45.6308V46.93H1.2V45.6308H0.8ZM0.8 46.93C0.8 47.2383 0.928581 47.5319 1.15391 47.7469L1.43 47.4574C1.28155 47.3158 1.2 47.1259 1.2 46.93H0.8ZM1.15391 47.7469C1.37887 47.9614 1.682 48.0802 1.9962 48.0802V47.6802C1.78202 47.6802 1.57855 47.5991 1.43 47.4574L1.15391 47.7469ZM1.9962 48.0802H2.17884V47.6802H1.9962V48.0802ZM1.97884 47.8802V57.0497H2.37884V47.8802H1.97884ZM1.97884 57.0497C1.97884 57.6938 2.52342 58.2 3.17505 58.2V57.8C2.72633 57.8 2.37884 57.4553 2.37884 57.0497H1.97884ZM3.17505 58.2C3.82667 58.2 4.37125 57.6938 4.37125 57.0497H3.97125C3.97125 57.4553 3.62377 57.8 3.17505 57.8V58.2ZM4.37125 57.0497V47.8797H3.97125V57.0497H4.37125ZM4.17125 48.0797H6.89421V47.6797H4.17125V48.0797ZM6.69421 47.8797V57.0497H7.09421V47.8797H6.69421ZM6.69421 57.0497C6.69421 57.6938 7.23879 58.2 7.89041 58.2V57.8C7.4417 57.8 7.09421 57.4553 7.09421 57.0497H6.69421ZM7.89041 58.2C8.54204 58.2 9.08662 57.6938 9.08662 57.0497H8.68662C8.68662 57.4553 8.33913 57.8 7.89041 57.8V58.2ZM9.08662 57.0497V44.6805H8.68662V57.0497H9.08662ZM9.08662 44.6805C9.08662 44.0365 8.54204 43.5303 7.89041 43.5303V43.9303C8.33914 43.9303 8.68662 44.275 8.68662 44.6805H9.08662ZM7.89041 43.5303C7.23879 43.5303 6.69421 44.0365 6.69421 44.6805H7.09421C7.09421 44.275 7.44169 43.9303 7.89041 43.9303V43.5303ZM6.69421 44.6805V45.9792H7.09421V44.6805H6.69421ZM6.89421 45.7792H2.99241V46.1792H6.89421V45.7792ZM3.19241 45.9792V41.3419H2.79241V45.9792H3.19241ZM3.19241 41.3419C3.19241 40.4328 3.76371 39.6211 4.66055 39.279L4.51797 38.9053C3.47473 39.3033 2.79241 40.2578 2.79241 41.3419H3.19241ZM4.66056 39.279L8.63435 37.7627L8.49175 37.389L4.51796 38.9053L4.66056 39.279ZM18.5 44.7062C23.1477 44.7062 27.2327 41.832 28.6267 37.639L28.2472 37.5128C26.9105 41.5333 22.985 44.3062 18.5 44.3062V44.7062ZM28.3656 37.7627L32.3394 39.279L32.482 38.9053L28.5082 37.389L28.3656 37.7627ZM32.3394 39.279C33.2363 39.6211 33.8076 40.4329 33.8076 41.3419H34.2076C34.2076 40.258 33.5253 39.3033 32.482 38.9053L32.3394 39.279ZM33.8076 41.3419V45.9792H34.2076V41.3419H33.8076ZM34.0076 45.7792H30.1058V46.1792H34.0076V45.7792ZM30.3058 45.9792V44.6805H29.9058V45.9792H30.3058ZM30.3058 44.6805C30.3058 44.0365 29.7612 43.5303 29.1096 43.5303V43.9303C29.5583 43.9303 29.9058 44.275 29.9058 44.6805H30.3058ZM29.1096 43.5303C28.458 43.5303 27.9134 44.0365 27.9134 44.6805H28.3134C28.3134 44.275 28.6609 43.9303 29.1096 43.9303V43.5303ZM27.9134 44.6805V57.0497H28.3134V44.6805H27.9134ZM27.9134 57.0497C27.9134 57.6938 28.458 58.2 29.1096 58.2V57.8C28.6609 57.8 28.3134 57.4553 28.3134 57.0497H27.9134ZM29.1096 58.2C29.7612 58.2 30.3058 57.6938 30.3058 57.0497H29.9058C29.9058 57.4553 29.5583 57.8 29.1096 57.8V58.2ZM30.3058 57.0497V47.8797H29.9058V57.0497H30.3058ZM30.1058 48.0797H32.8287V47.6797H30.1058V48.0797ZM32.6287 47.8797V57.0497H33.0287V47.8797H32.6287ZM32.6287 57.0497C32.6287 57.6938 33.1733 58.2 33.825 58.2V57.8C33.3762 57.8 33.0287 57.4553 33.0287 57.0497H32.6287ZM33.825 58.2C34.4766 58.2 35.0212 57.6938 35.0212 57.0497H34.6212C34.6212 57.4553 34.2737 57.8 33.825 57.8V58.2ZM35.0212 57.0497V47.8797H34.6212V57.0497H35.0212ZM34.8212 48.0797H35.0038V47.6797H34.8212V48.0797ZM35.0038 48.0797C35.6554 48.0797 36.2 47.5735 36.2 46.9295H35.8C35.8 47.335 35.4525 47.6797 35.0038 47.6797V48.0797ZM36.2 46.9295V41.3419H35.8V46.9295H36.2ZM36.2 41.3419C36.2 39.4762 35.0261 37.8291 33.222 37.1407L33.0794 37.5144C34.7371 38.147 35.8 39.6512 35.8 41.3419H36.2ZM18.5 3.10065C24.9994 3.10065 30.2711 8.14243 30.2711 14.3196H30.6711C30.6711 7.90393 25.2023 2.70065 18.5 2.70065V3.10065ZM30.2711 14.3196C30.2711 20.856 31.0858 28.2314 31.3658 30.5735L31.7629 30.526C31.4832 28.1865 30.6711 20.8309 30.6711 14.3196H30.2711ZM31.5027 30.3595C30.4071 30.7146 28 31.4173 24.1744 32.1415L24.2488 32.5346C28.0908 31.8073 30.5143 31.1003 31.626 30.74L31.5027 30.3595ZM24.4116 32.338V30.7021H24.0116V32.338H24.4116ZM24.3064 30.8782C24.8687 30.5755 25.4069 30.2289 25.913 29.8386L25.6688 29.5219C25.1805 29.8983 24.6607 30.2332 24.1168 30.526L24.3064 30.8782ZM25.913 29.8386C27.9722 28.2511 29.4288 26.0263 30.0127 23.5723L29.6235 23.4797C29.0616 25.8415 27.6579 27.9882 25.6688 29.5218L25.913 29.8386ZM30.0127 23.5723C30.2072 22.7546 30.3058 21.9116 30.3058 21.0664H29.9058C29.9058 21.8806 29.8108 22.6925 29.6235 23.4797L30.0127 23.5723ZM30.3058 21.0664C30.3058 19.6572 30.0381 18.5361 29.5623 17.6366C29.0861 16.7363 28.4074 16.0694 27.6032 15.5602C26.0057 14.5487 23.8973 14.1522 21.8754 13.7693L21.801 14.1624C23.8436 14.5492 25.869 14.9355 27.3892 15.8982C28.1439 16.376 28.7699 16.994 29.2088 17.8237C29.6481 18.6542 29.9058 19.7082 29.9058 21.0664H30.3058ZM21.8754 13.7693C19.2669 13.2754 16.6282 12.772 14.5282 11.1696L14.2856 11.4876C16.4735 13.1571 19.2106 13.6718 21.801 14.1624L21.8754 13.7693ZM14.5283 11.1696C14.2466 10.9545 13.88 10.8743 13.5311 10.947L13.6128 11.3386C13.8507 11.289 14.0984 11.3446 14.2855 11.4875L14.5283 11.1696ZM13.5312 10.947C13.1817 11.0198 12.8814 11.2404 12.7173 11.551L13.071 11.7379C13.1773 11.5366 13.3754 11.388 13.6127 11.3386L13.5312 10.947ZM7.89028 15.4183C7.37203 15.4183 6.87928 15.5258 6.43457 15.7177L6.59302 16.085C6.98883 15.9142 7.42774 15.8183 7.89028 15.8183V15.4183ZM6.71376 15.905C6.72347 15.3734 6.7288 14.8438 6.7288 14.3196H6.3288C6.3288 14.8412 6.3235 15.3683 6.31382 15.8977L6.71376 15.905ZM18.5 30.0366C16.3189 30.0366 14.274 29.3471 12.5837 28.0438L12.3394 28.3605C14.1013 29.719 16.2325 30.4366 18.5 30.4366V30.0366ZM9.31935 23.059C9.16492 22.4098 9.08662 21.7392 9.08662 21.0664H8.68662C8.68662 21.7701 8.76851 22.4718 8.93021 23.1516L9.31935 23.059ZM9.08662 21.0664C9.08662 20.4224 8.54204 19.9162 7.89041 19.9162V20.3162C8.33913 20.3162 8.68662 20.6609 8.68662 21.0664H9.08662ZM6.72894 18.8175C6.72894 18.2206 7.24113 17.7188 7.89041 17.7188V17.3188C7.03822 17.3188 6.32894 17.9821 6.32894 18.8175H6.72894ZM13.9872 13.6201C16.3467 15.0691 19.0405 15.5772 21.413 16.0266L21.4874 15.6336C19.1042 15.1822 16.4836 14.6838 14.1965 13.2792L13.9872 13.6201ZM21.413 16.0266C23.6136 16.4434 25.2357 16.7978 26.3143 17.5025C26.846 17.8498 27.2417 18.2807 27.5068 18.8475C27.7733 19.4172 27.9134 20.1361 27.9134 21.0666H28.3134C28.3134 20.0981 28.1679 19.3166 27.8691 18.678C27.569 18.0365 27.1199 17.551 26.5331 17.1676C25.3747 16.4109 23.6653 16.046 21.4874 15.6336L21.413 16.0266ZM27.9134 21.0666C27.9134 21.7395 27.8349 22.4099 27.6806 23.0592L28.0698 23.1517C28.2313 22.4719 28.3134 21.7704 28.3134 21.0666H27.9134ZM27.6806 23.0592C27.2174 25.0064 26.0589 26.7774 24.4163 28.0439L24.6606 28.3606C26.373 27.0403 27.5846 25.1913 28.0698 23.1517L27.6806 23.0592ZM24.4163 28.0439C22.726 29.3472 20.6811 30.0366 18.5 30.0366V30.4366C20.7675 30.4366 22.8987 29.7191 24.6606 28.3606L24.4163 28.0439ZM6.16896 21.7882C6.38876 21.9051 6.62271 22.0029 6.8702 22.074L6.98065 21.6895C6.76245 21.6269 6.55434 21.5401 6.3568 21.4351L6.16896 21.7882ZM6.98734 23.5723C7.5712 26.0263 9.02797 28.2511 11.087 29.8386L11.3312 29.5218C9.34219 27.9882 7.9384 25.8415 7.37648 23.4797L6.98734 23.5723ZM12.5884 30.7021V32.8916H12.9884V30.7021H12.5884ZM12.7438 36.1949C14.0977 35.6783 14.9808 34.441 14.9808 33.0377H14.5808C14.5808 34.266 13.8087 35.3605 12.6012 35.8212L12.7438 36.1949ZM14.9808 33.0377V31.5496H14.5808V33.0377H14.9808ZM14.7194 31.7399C15.9303 32.1306 17.2078 32.3372 18.5 32.3372V31.9372C17.2504 31.9372 16.0143 31.7374 14.8422 31.3592L14.7194 31.7399ZM18.5 32.3372C19.7922 32.3372 21.0697 32.1306 22.2806 31.7399L22.1578 31.3592C20.9857 31.7374 19.7496 31.9372 18.5 31.9372V32.3372ZM22.0192 31.5496V33.0377H22.4192V31.5496H22.0192ZM22.0192 33.0377C22.0192 34.4409 22.9022 35.6783 24.2561 36.1949L24.3987 35.8212C23.1912 35.3605 22.4192 34.266 22.4192 33.0377H22.0192ZM24.2561 36.1949L26.5107 37.0552L26.6533 36.6815L24.3987 35.8212L24.2561 36.1949ZM26.3911 36.8087C25.3577 40.1134 22.1609 42.4058 18.5 42.4058V42.8058C22.3255 42.8058 25.6843 40.4095 26.7729 36.9281L26.3911 36.8087ZM11.1005 29.8481L12.6798 30.87L12.8971 30.5342L11.3177 29.5123L11.1005 29.8481ZM12.5934 28.0518C12.1055 27.6239 11.3516 26.8559 10.6863 25.9514C10.0179 25.0428 9.45617 24.0192 9.32281 23.0773L8.92675 23.1334C9.07411 24.1741 9.68306 25.2626 10.3641 26.1884C11.0482 27.1185 11.8223 27.9075 12.3297 28.3525L12.5934 28.0518ZM3.9207 37.5145L12.0039 34.4304L11.8613 34.0566L3.77811 37.1408L3.9207 37.5145ZM4.73631 14.3291C4.83932 12.1414 5.65294 8.85306 7.7544 6.11672C9.84914 3.38913 13.23 1.2 18.5 1.2V0.8C13.1009 0.8 9.60464 3.05078 7.43716 5.87308C5.27641 8.68662 4.4428 12.0582 4.33675 14.3103L4.73631 14.3291ZM18.5152 2.70122C16.7723 2.56873 14.0839 2.99347 11.6502 4.69038C9.20973 6.39208 7.04081 9.36258 6.33085 14.2911L6.72676 14.3481C7.42222 9.52028 9.53649 6.65189 11.879 5.01849C14.2284 3.38031 16.8229 2.97373 18.4848 3.10007L18.5152 2.70122ZM7.92356 15.8155C9.01496 15.6313 11.5272 14.5592 13.0696 11.7404L12.7187 11.5484C11.2425 14.2462 8.84374 15.2546 7.85701 15.4211L7.92356 15.8155ZM7.93669 17.7134C8.74889 17.5202 10.0323 17.0832 11.2592 16.3965C12.4821 15.712 13.6763 14.7642 14.2718 13.537L13.9119 13.3624C13.369 14.4813 12.2588 15.3787 11.0638 16.0475C9.87282 16.7141 8.62472 17.1386 7.84414 17.3242L7.93669 17.7134ZM6.32989 18.837C6.35402 19.0835 6.4583 19.4463 6.69772 19.7524C6.94308 20.0661 7.32866 20.3162 7.89041 20.3162V19.9162C7.46468 19.9162 7.1907 19.7334 7.01279 19.506C6.82894 19.2709 6.74623 18.9844 6.72799 18.798L6.32989 18.837ZM6.06365 21.5942L5.26674 30.6846L5.66522 30.7195L6.46212 21.6291L6.06365 21.5942ZM5.40384 30.8922C6.35599 31.2034 9.15206 32.0765 12.7343 33.0842L12.8426 32.6991C9.26512 31.6928 6.47441 30.8213 5.52812 30.512L5.40384 30.8922ZM3.92672 32.26L12.079 34.3444L12.1781 33.9569L4.0258 31.8725L3.92672 32.26ZM6.7268 21.8583C6.70061 22.08 6.72793 22.6972 6.99014 23.5828L7.37368 23.4692C7.12039 22.6138 7.10643 22.0543 7.12404 21.9052L6.7268 21.8583ZM0.800132 43.7303L0.8 45.6308L1.2 45.6308L1.20013 43.7303L0.800132 43.7303ZM12.6012 35.8212L10.3462 36.6815L10.4888 37.0552L12.7438 36.1949L12.6012 35.8212ZM18.4988 42.4058C16.5794 42.4176 12.3053 41.3108 10.6047 36.7979L10.2304 36.9389C12.0109 41.6639 16.4827 42.8182 18.5012 42.8058L18.4988 42.4058ZM18.5109 44.3065C17.1643 44.233 15.0515 43.8029 13.1109 42.7533C11.1729 41.7052 9.42194 40.0485 8.75644 37.5249L8.36966 37.6269C9.07149 40.2883 10.9177 42.0219 12.9207 43.1052C14.9211 44.1871 17.0931 44.6297 18.4891 44.7059L18.5109 44.3065Z" fill="black" mask="url(#path-1-outside-1)"/>
</svg>
