<svg width="53" height="59" viewBox="0 0 53 59" fill="none" xmlns="http://www.w3.org/2000/svg">
<path d="M37.9 0.899985H37.9001C41.6258 0.904806 44.645 3.92388 44.65 7.64955C44.65 7.64965 44.65 7.64976 44.65 7.64986L44.55 7.64998C44.5576 9.41466 43.8547 11.108 42.5998 12.3486L37.9 0.899985ZM37.9 0.899985L11.3 0.899985L11.2999 0.899985C5.47623 0.906818 0.75684 5.62621 0.750006 11.4499V11.45L0.750006 15.25L0.750006 15.2501C0.756132 19.3092 3.08811 22.9983 6.73582 24.75C3.08811 26.5016 0.756132 30.1908 0.750006 34.2498V34.25L0.750006 38.05L0.750006 38.0501C0.75684 43.8738 5.47623 48.5932 11.2999 48.6H11.3H19.75V58V58.1H19.85H33.15H33.25V58L33.25 44.7L33.25 44.6999C33.2478 41.7758 31.9142 39.0175 29.637 37.2H41.7H41.7001C47.5238 37.1931 52.2432 32.4738 52.25 26.6501V26.65V22.85V22.8498C52.2416 17.416 48.1131 12.8896 42.7292 12.3605L37.9 0.899985ZM23.6503 37.2H23.65H13.2C12.6201 37.2 12.15 36.7299 12.15 36.15C12.15 35.5701 12.6201 35.1 13.2 35.1H41.6999C46.3646 35.0948 50.1448 31.3146 50.15 26.6499V22.8501C50.1448 18.1854 46.3646 14.4051 41.6999 14.4H13.2C12.6201 14.4 12.15 13.9299 12.15 13.35C12.15 12.7701 12.6201 12.3 13.2 12.3H37.8998C40.4661 12.2953 42.5453 10.2162 42.55 7.64992C42.5469 5.08318 40.4668 3.00307 37.9 2.99998M23.6503 37.2L37.9 2.89998L37.8999 2.99998M23.6503 37.2C24.5026 37.1975 25.3489 37.3444 26.1506 37.6339L26.1513 37.6341C29.1456 38.6934 31.148 41.5239 31.15 44.7L23.6503 37.2ZM37.9 2.99998C37.9 2.99998 37.8999 2.99998 37.8999 2.99998M37.9 2.99998L37.8999 2.99998M37.9 2.99998L11.3001 2.99998M37.8999 2.99998H11.3001M11.3001 2.99998L11.3 2.99998M11.3001 2.99998L11.3 2.99998M11.3 2.99998C6.6354 3.00521 2.85523 6.78538 2.85001 11.45C2.85001 11.45 2.85001 11.4501 2.85001 11.4501M11.3 2.99998L2.75001 11.45L2.85001 11.4501M2.85001 11.4501V15.2499M2.85001 11.4501V15.2499M2.85001 15.2499L2.85001 15.25M2.85001 15.2499L2.85001 15.25M2.85001 15.25C2.85523 19.9146 6.63546 23.6948 11.3001 23.7H37.9C38.4799 23.7 38.95 24.1701 38.95 24.75C38.95 25.3299 38.4799 25.8 37.9 25.8H11.3001C6.63546 25.8051 2.85523 29.5853 2.85001 34.25C2.85001 34.25 2.85001 34.2501 2.85001 34.2501M2.85001 15.25L2.75001 34.25L2.85001 34.2501M2.85001 34.2501V38.0499M2.85001 34.2501V38.0499M2.85001 38.0499L2.85001 38.05L2.85001 38.0499Z" fill="black" stroke="white" stroke-width="0.2"/>
</svg>
