<svg width="58" height="58" viewBox="0 0 58 58" fill="none" xmlns="http://www.w3.org/2000/svg">
<mask id="path-1-outside-1" maskUnits="userSpaceOnUse" x="0" y="0" width="58" height="58" fill="black">
<rect fill="white" width="58" height="58"/>
<path d="M56.44 35.0573L47.1067 31.0253C46.8708 30.9236 46.6034 30.9236 46.3675 31.0253L43.9333 32.08V14.0667C43.9333 14.0461 43.9231 14.0293 43.9221 14.0088C43.9166 13.9248 43.8997 13.8419 43.8717 13.7624C43.863 13.7326 43.8527 13.7034 43.8409 13.6747C43.797 13.5768 43.7367 13.4872 43.6627 13.4096L31.5293 1.27627C31.45 1.19967 31.3577 1.13773 31.2568 1.09333C31.2307 1.07933 31.2027 1.07187 31.1737 1.0616C31.0916 1.03282 31.0058 1.01554 30.9189 1.01027C30.9012 1.00933 30.8853 1 30.8667 1H3.8C2.2536 1 1 2.2536 1 3.8V54.2C1 55.7464 2.2536 57 3.8 57H41.1333C42.3274 56.9963 43.3873 56.2343 43.7709 55.1035L46.192 56.8264C46.516 57.0571 46.9506 57.0571 47.2747 56.8264L54.5659 51.6371C56.0847 50.5612 56.991 48.8186 57 46.9573V35.9141C57.0005 35.5425 56.7806 35.206 56.44 35.0573ZM31.8 4.1864L40.7469 13.1333H31.8V4.1864ZM42.0667 54.2C42.0667 54.7155 41.6488 55.1333 41.1333 55.1333H3.8C3.28453 55.1333 2.86667 54.7155 2.86667 54.2V3.8C2.86667 3.28453 3.28453 2.86667 3.8 2.86667H29.9333V13.1333C29.9333 14.1643 30.7691 15 31.8 15H42.0667V32.8817L37.0267 35.0573C36.6861 35.206 36.4661 35.5425 36.4667 35.9141V46.9573C36.4756 48.8186 37.382 50.5612 38.9008 51.6371L42.0667 53.8901V54.2ZM55.1333 46.9573C55.125 48.2152 54.5102 49.3917 53.4823 50.1167L46.7333 54.9205L39.9844 50.1167C38.9566 49.3916 38.3418 48.2151 38.3333 46.9573V36.5273L43.3435 34.3629L43.3817 34.3461L46.7333 32.8985L55.1333 36.5273V46.9573Z"/>
<path d="M41.6933 44.8023C41.281 44.493 40.6959 44.5766 40.3867 44.9889C40.0774 45.4013 40.161 45.9863 40.5733 46.2956L44.3067 49.0956C44.7099 49.3982 45.2806 49.3259 45.5956 48.9323L53.0623 39.5989C53.2707 39.3385 53.3243 38.9867 53.203 38.676C53.0816 38.3653 52.8038 38.1429 52.474 38.0927C52.1443 38.0424 51.8128 38.1718 51.6044 38.4323L44.7033 47.06L41.6933 44.8023Z"/>
<path d="M36.4667 29.9333C36.4608 27.638 34.7844 25.6888 32.5159 25.3395L30.2936 17.9297C29.9434 16.7415 28.85 15.9277 27.6112 15.9333H17.3221C16.0833 15.9277 14.9899 16.7415 14.6397 17.9297L12.4175 25.3395C10.1489 25.6888 8.47256 27.638 8.46666 29.9333V33.6667C8.46666 34.4093 8.76166 35.1215 9.28677 35.6466C9.81187 36.1717 10.5241 36.4667 11.2667 36.4667V37.4C11.2667 38.9464 12.5203 40.2 14.0667 40.2H15.9333C17.4797 40.2 18.7333 38.9464 18.7333 37.4V36.4667H26.2V37.4C26.2 38.9464 27.4536 40.2 29 40.2H30.8667C32.4131 40.2 33.6667 38.9464 33.6667 37.4V36.4667C35.2131 36.4667 36.4667 35.2131 36.4667 33.6667V29.9333ZM16.428 18.4655C16.5447 18.0694 16.9092 17.7981 17.3221 17.8H21.5333V18.7333C21.5333 19.2488 21.9512 19.6667 22.4667 19.6667C22.9821 19.6667 23.4 19.2488 23.4 18.7333V17.8H27.6112C28.0241 17.7981 28.3886 18.0694 28.5053 18.4655L30.5456 25.2667H14.3877L16.428 18.4655ZM16.8667 37.4C16.8667 37.9155 16.4488 38.3333 15.9333 38.3333H14.0667C13.5512 38.3333 13.1333 37.9155 13.1333 37.4V36.4667H16.8667V37.4ZM19.6667 34.6V32.7333H25.2667V34.6H19.6667ZM31.8 37.4C31.8 37.9155 31.3821 38.3333 30.8667 38.3333H29C28.4845 38.3333 28.0667 37.9155 28.0667 37.4V36.4667H31.8V37.4ZM33.6667 34.6H27.1333V32.7333C27.1333 31.7024 26.2976 30.8667 25.2667 30.8667H19.6667C18.6357 30.8667 17.8 31.7024 17.8 32.7333V34.6H11.2667C10.7512 34.6 10.3333 34.1821 10.3333 33.6667V31.8H15.9333C16.4488 31.8 16.8667 31.3821 16.8667 30.8667V29.9333C16.8667 29.4179 16.4488 29 15.9333 29C15.4179 29 15 29.4179 15 29.9333H10.3333C10.3333 28.3869 11.5869 27.1333 13.1333 27.1333H31.8C33.3464 27.1333 34.6 28.3869 34.6 29.9333H29.9333C29.9333 29.4179 29.5155 29 29 29C28.4845 29 28.0667 29.4179 28.0667 29.9333V30.8667C28.0667 31.1142 28.165 31.3516 28.34 31.5266C28.5151 31.7017 28.7525 31.8 29 31.8H34.6V33.6667C34.6 34.1821 34.1821 34.6 33.6667 34.6Z"/>
<path d="M6.6 7.53333H16.8667C17.3821 7.53333 17.8 7.11546 17.8 6.6C17.8 6.08453 17.3821 5.66667 16.8667 5.66667H6.6C6.08453 5.66667 5.66667 6.08453 5.66667 6.6C5.66667 7.11546 6.08453 7.53333 6.6 7.53333Z"/>
<path d="M21.5333 7.53333H26.2C26.7155 7.53333 27.1333 7.11546 27.1333 6.6C27.1333 6.08453 26.7155 5.66667 26.2 5.66667H21.5333C21.0179 5.66667 20.6 6.08453 20.6 6.6C20.6 7.11546 21.0179 7.53333 21.5333 7.53333Z"/>
<path d="M6.6 13.1333H26.2C26.7155 13.1333 27.1333 12.7155 27.1333 12.2C27.1333 11.6845 26.7155 11.2667 26.2 11.2667H6.6C6.08453 11.2667 5.66667 11.6845 5.66667 12.2C5.66667 12.7155 6.08453 13.1333 6.6 13.1333Z"/>
<path d="M6.6 16.8667H11.2667C11.7821 16.8667 12.2 16.4488 12.2 15.9333C12.2 15.4179 11.7821 15 11.2667 15H6.6C6.08453 15 5.66667 15.4179 5.66667 15.9333C5.66667 16.4488 6.08453 16.8667 6.6 16.8667Z"/>
<path d="M6.6 43.9333H24.3333C24.8488 43.9333 25.2667 43.5155 25.2667 43C25.2667 42.4845 24.8488 42.0667 24.3333 42.0667H6.6C6.08453 42.0667 5.66667 42.4845 5.66667 43C5.66667 43.5155 6.08453 43.9333 6.6 43.9333Z"/>
<path d="M33.6667 43.9333C34.1821 43.9333 34.6 43.5155 34.6 43C34.6 42.4845 34.1821 42.0667 33.6667 42.0667H28.0667C27.5512 42.0667 27.1333 42.4845 27.1333 43C27.1333 43.5155 27.5512 43.9333 28.0667 43.9333H33.6667Z"/>
<path d="M19.6667 46.7333C19.6667 47.2488 20.0845 47.6667 20.6 47.6667H33.6667C34.1821 47.6667 34.6 47.2488 34.6 46.7333C34.6 46.2179 34.1821 45.8 33.6667 45.8H20.6C20.0845 45.8 19.6667 46.2179 19.6667 46.7333Z"/>
<path d="M6.6 47.6667H16.8667C17.3821 47.6667 17.8 47.2488 17.8 46.7333C17.8 46.2179 17.3821 45.8 16.8667 45.8H6.6C6.08453 45.8 5.66667 46.2179 5.66667 46.7333C5.66667 47.2488 6.08453 47.6667 6.6 47.6667Z"/>
<path d="M29 49.5333H6.6C6.08453 49.5333 5.66667 49.9512 5.66667 50.4667C5.66667 50.9821 6.08453 51.4 6.6 51.4H29C29.5155 51.4 29.9333 50.9821 29.9333 50.4667C29.9333 49.9512 29.5155 49.5333 29 49.5333Z"/>
<path d="M34.6 49.5333H32.7333C32.2179 49.5333 31.8 49.9512 31.8 50.4667C31.8 50.9821 32.2179 51.4 32.7333 51.4H34.6C35.1155 51.4 35.5333 50.9821 35.5333 50.4667C35.5333 49.9512 35.1155 49.5333 34.6 49.5333Z"/>
</mask>
<path d="M56.44 35.0573L47.1067 31.0253C46.8708 30.9236 46.6034 30.9236 46.3675 31.0253L43.9333 32.08V14.0667C43.9333 14.0461 43.9231 14.0293 43.9221 14.0088C43.9166 13.9248 43.8997 13.8419 43.8717 13.7624C43.863 13.7326 43.8527 13.7034 43.8409 13.6747C43.797 13.5768 43.7367 13.4872 43.6627 13.4096L31.5293 1.27627C31.45 1.19967 31.3577 1.13773 31.2568 1.09333C31.2307 1.07933 31.2027 1.07187 31.1737 1.0616C31.0916 1.03282 31.0058 1.01554 30.9189 1.01027C30.9012 1.00933 30.8853 1 30.8667 1H3.8C2.2536 1 1 2.2536 1 3.8V54.2C1 55.7464 2.2536 57 3.8 57H41.1333C42.3274 56.9963 43.3873 56.2343 43.7709 55.1035L46.192 56.8264C46.516 57.0571 46.9506 57.0571 47.2747 56.8264L54.5659 51.6371C56.0847 50.5612 56.991 48.8186 57 46.9573V35.9141C57.0005 35.5425 56.7806 35.206 56.44 35.0573ZM31.8 4.1864L40.7469 13.1333H31.8V4.1864ZM42.0667 54.2C42.0667 54.7155 41.6488 55.1333 41.1333 55.1333H3.8C3.28453 55.1333 2.86667 54.7155 2.86667 54.2V3.8C2.86667 3.28453 3.28453 2.86667 3.8 2.86667H29.9333V13.1333C29.9333 14.1643 30.7691 15 31.8 15H42.0667V32.8817L37.0267 35.0573C36.6861 35.206 36.4661 35.5425 36.4667 35.9141V46.9573C36.4756 48.8186 37.382 50.5612 38.9008 51.6371L42.0667 53.8901V54.2ZM55.1333 46.9573C55.125 48.2152 54.5102 49.3917 53.4823 50.1167L46.7333 54.9205L39.9844 50.1167C38.9566 49.3916 38.3418 48.2151 38.3333 46.9573V36.5273L43.3435 34.3629L43.3817 34.3461L46.7333 32.8985L55.1333 36.5273V46.9573Z" fill="white"/>
<path d="M41.6933 44.8023C41.281 44.493 40.6959 44.5766 40.3867 44.9889C40.0774 45.4013 40.161 45.9863 40.5733 46.2956L44.3067 49.0956C44.7099 49.3982 45.2806 49.3259 45.5956 48.9323L53.0623 39.5989C53.2707 39.3385 53.3243 38.9867 53.203 38.676C53.0816 38.3653 52.8038 38.1429 52.474 38.0927C52.1443 38.0424 51.8128 38.1718 51.6044 38.4323L44.7033 47.06L41.6933 44.8023Z" fill="white"/>
<path d="M36.4667 29.9333C36.4608 27.638 34.7844 25.6888 32.5159 25.3395L30.2936 17.9297C29.9434 16.7415 28.85 15.9277 27.6112 15.9333H17.3221C16.0833 15.9277 14.9899 16.7415 14.6397 17.9297L12.4175 25.3395C10.1489 25.6888 8.47256 27.638 8.46666 29.9333V33.6667C8.46666 34.4093 8.76166 35.1215 9.28677 35.6466C9.81187 36.1717 10.5241 36.4667 11.2667 36.4667V37.4C11.2667 38.9464 12.5203 40.2 14.0667 40.2H15.9333C17.4797 40.2 18.7333 38.9464 18.7333 37.4V36.4667H26.2V37.4C26.2 38.9464 27.4536 40.2 29 40.2H30.8667C32.4131 40.2 33.6667 38.9464 33.6667 37.4V36.4667C35.2131 36.4667 36.4667 35.2131 36.4667 33.6667V29.9333ZM16.428 18.4655C16.5447 18.0694 16.9092 17.7981 17.3221 17.8H21.5333V18.7333C21.5333 19.2488 21.9512 19.6667 22.4667 19.6667C22.9821 19.6667 23.4 19.2488 23.4 18.7333V17.8H27.6112C28.0241 17.7981 28.3886 18.0694 28.5053 18.4655L30.5456 25.2667H14.3877L16.428 18.4655ZM16.8667 37.4C16.8667 37.9155 16.4488 38.3333 15.9333 38.3333H14.0667C13.5512 38.3333 13.1333 37.9155 13.1333 37.4V36.4667H16.8667V37.4ZM19.6667 34.6V32.7333H25.2667V34.6H19.6667ZM31.8 37.4C31.8 37.9155 31.3821 38.3333 30.8667 38.3333H29C28.4845 38.3333 28.0667 37.9155 28.0667 37.4V36.4667H31.8V37.4ZM33.6667 34.6H27.1333V32.7333C27.1333 31.7024 26.2976 30.8667 25.2667 30.8667H19.6667C18.6357 30.8667 17.8 31.7024 17.8 32.7333V34.6H11.2667C10.7512 34.6 10.3333 34.1821 10.3333 33.6667V31.8H15.9333C16.4488 31.8 16.8667 31.3821 16.8667 30.8667V29.9333C16.8667 29.4179 16.4488 29 15.9333 29C15.4179 29 15 29.4179 15 29.9333H10.3333C10.3333 28.3869 11.5869 27.1333 13.1333 27.1333H31.8C33.3464 27.1333 34.6 28.3869 34.6 29.9333H29.9333C29.9333 29.4179 29.5155 29 29 29C28.4845 29 28.0667 29.4179 28.0667 29.9333V30.8667C28.0667 31.1142 28.165 31.3516 28.34 31.5266C28.5151 31.7017 28.7525 31.8 29 31.8H34.6V33.6667C34.6 34.1821 34.1821 34.6 33.6667 34.6Z" fill="white"/>
<path d="M6.6 7.53333H16.8667C17.3821 7.53333 17.8 7.11546 17.8 6.6C17.8 6.08453 17.3821 5.66667 16.8667 5.66667H6.6C6.08453 5.66667 5.66667 6.08453 5.66667 6.6C5.66667 7.11546 6.08453 7.53333 6.6 7.53333Z" fill="white"/>
<path d="M21.5333 7.53333H26.2C26.7155 7.53333 27.1333 7.11546 27.1333 6.6C27.1333 6.08453 26.7155 5.66667 26.2 5.66667H21.5333C21.0179 5.66667 20.6 6.08453 20.6 6.6C20.6 7.11546 21.0179 7.53333 21.5333 7.53333Z" fill="white"/>
<path d="M6.6 13.1333H26.2C26.7155 13.1333 27.1333 12.7155 27.1333 12.2C27.1333 11.6845 26.7155 11.2667 26.2 11.2667H6.6C6.08453 11.2667 5.66667 11.6845 5.66667 12.2C5.66667 12.7155 6.08453 13.1333 6.6 13.1333Z" fill="white"/>
<path d="M6.6 16.8667H11.2667C11.7821 16.8667 12.2 16.4488 12.2 15.9333C12.2 15.4179 11.7821 15 11.2667 15H6.6C6.08453 15 5.66667 15.4179 5.66667 15.9333C5.66667 16.4488 6.08453 16.8667 6.6 16.8667Z" fill="white"/>
<path d="M6.6 43.9333H24.3333C24.8488 43.9333 25.2667 43.5155 25.2667 43C25.2667 42.4845 24.8488 42.0667 24.3333 42.0667H6.6C6.08453 42.0667 5.66667 42.4845 5.66667 43C5.66667 43.5155 6.08453 43.9333 6.6 43.9333Z" fill="white"/>
<path d="M33.6667 43.9333C34.1821 43.9333 34.6 43.5155 34.6 43C34.6 42.4845 34.1821 42.0667 33.6667 42.0667H28.0667C27.5512 42.0667 27.1333 42.4845 27.1333 43C27.1333 43.5155 27.5512 43.9333 28.0667 43.9333H33.6667Z" fill="white"/>
<path d="M19.6667 46.7333C19.6667 47.2488 20.0845 47.6667 20.6 47.6667H33.6667C34.1821 47.6667 34.6 47.2488 34.6 46.7333C34.6 46.2179 34.1821 45.8 33.6667 45.8H20.6C20.0845 45.8 19.6667 46.2179 19.6667 46.7333Z" fill="white"/>
<path d="M6.6 47.6667H16.8667C17.3821 47.6667 17.8 47.2488 17.8 46.7333C17.8 46.2179 17.3821 45.8 16.8667 45.8H6.6C6.08453 45.8 5.66667 46.2179 5.66667 46.7333C5.66667 47.2488 6.08453 47.6667 6.6 47.6667Z" fill="white"/>
<path d="M29 49.5333H6.6C6.08453 49.5333 5.66667 49.9512 5.66667 50.4667C5.66667 50.9821 6.08453 51.4 6.6 51.4H29C29.5155 51.4 29.9333 50.9821 29.9333 50.4667C29.9333 49.9512 29.5155 49.5333 29 49.5333Z" fill="white"/>
<path d="M34.6 49.5333H32.7333C32.2179 49.5333 31.8 49.9512 31.8 50.4667C31.8 50.9821 32.2179 51.4 32.7333 51.4H34.6C35.1155 51.4 35.5333 50.9821 35.5333 50.4667C35.5333 49.9512 35.1155 49.5333 34.6 49.5333Z" fill="white"/>
<path d="M56.44 35.0573L56.48 34.9657L56.4797 34.9655L56.44 35.0573ZM47.1067 31.0253L47.1463 30.9335L47.1463 30.9335L47.1067 31.0253ZM46.3675 31.0253L46.3279 30.9335L46.3277 30.9336L46.3675 31.0253ZM43.9333 32.08H43.8333V32.2323L43.9731 32.1718L43.9333 32.08ZM43.9221 14.0088L44.022 14.0043L44.0219 14.0023L43.9221 14.0088ZM43.8717 13.7624L43.7756 13.7906L43.7774 13.7956L43.8717 13.7624ZM43.8409 13.6747L43.9335 13.6366L43.9321 13.6337L43.8409 13.6747ZM43.6627 13.4096L43.735 13.3406L43.7334 13.3389L43.6627 13.4096ZM31.5293 1.27627L31.6 1.20555L31.5988 1.20433L31.5293 1.27627ZM31.2568 1.09333L31.2094 1.18175L31.2165 1.18487L31.2568 1.09333ZM31.1737 1.0616L31.2072 0.967356L31.2068 0.967224L31.1737 1.0616ZM30.9189 1.01027L30.925 0.910447L30.9242 0.910405L30.9189 1.01027ZM41.1333 57V57.1L41.1336 57.1L41.1333 57ZM43.7709 55.1035L43.8289 55.022L43.7194 54.9441L43.6762 55.0713L43.7709 55.1035ZM46.192 56.8264L46.25 56.7449L46.25 56.7449L46.192 56.8264ZM47.2747 56.8264L47.2167 56.7449L47.2167 56.7449L47.2747 56.8264ZM54.5659 51.6371L54.5081 51.5555L54.5079 51.5556L54.5659 51.6371ZM57 46.9573L57.1 46.9578V46.9573H57ZM57 35.9141L56.9 35.914V35.9141H57ZM31.8 4.1864L31.8707 4.11569L31.7 3.94498V4.1864H31.8ZM40.7469 13.1333V13.2333H40.9883L40.8176 13.0626L40.7469 13.1333ZM31.8 13.1333H31.7V13.2333H31.8V13.1333ZM29.9333 2.86667H30.0333V2.76667H29.9333V2.86667ZM42.0667 15H42.1667V14.9H42.0667V15ZM42.0667 32.8817L42.1063 32.9735L42.1667 32.9475V32.8817H42.0667ZM37.0267 35.0573L36.987 34.9655L36.9867 34.9657L37.0267 35.0573ZM36.4667 35.9141L36.5667 35.9141V35.914L36.4667 35.9141ZM36.4667 46.9573H36.3667V46.9578L36.4667 46.9573ZM38.9008 51.6371L38.9588 51.5556L38.9586 51.5555L38.9008 51.6371ZM42.0667 53.8901H42.1667V53.8386L42.1246 53.8087L42.0667 53.8901ZM55.1333 46.9573L55.2333 46.958V46.9573H55.1333ZM53.4823 50.1167L53.4246 50.035L53.4243 50.0352L53.4823 50.1167ZM46.7333 54.9205L46.6753 55.002L46.7333 55.0433L46.7913 55.002L46.7333 54.9205ZM39.9844 50.1167L40.0424 50.0352L40.042 50.035L39.9844 50.1167ZM38.3333 46.9573H38.2333L38.2333 46.958L38.3333 46.9573ZM38.3333 36.5273L38.2937 36.4355L38.2333 36.4616V36.5273H38.3333ZM43.3435 34.3629L43.3831 34.4547L43.3837 34.4545L43.3435 34.3629ZM43.3817 34.3461L43.3421 34.2543L43.3415 34.2546L43.3817 34.3461ZM46.7333 32.8985L46.773 32.8067L46.7333 32.7896L46.6937 32.8067L46.7333 32.8985ZM55.1333 36.5273H55.2333V36.4616L55.173 36.4355L55.1333 36.5273ZM41.6933 44.8023L41.7533 44.7223L41.7533 44.7223L41.6933 44.8023ZM40.5733 46.2956L40.6333 46.2156L40.5733 46.2956ZM44.3067 49.0956L44.3667 49.0156L44.3667 49.0156L44.3067 49.0956ZM45.5956 48.9323L45.6737 48.9947L45.6737 48.9947L45.5956 48.9323ZM53.0623 39.5989L52.9842 39.5364L52.9842 39.5365L53.0623 39.5989ZM53.203 38.676L53.2961 38.6396L53.203 38.676ZM52.474 38.0927L52.459 38.1915L52.474 38.0927ZM51.6044 38.4323L51.5263 38.3698L51.5263 38.3698L51.6044 38.4323ZM44.7033 47.06L44.6433 47.14L44.7209 47.1982L44.7814 47.1225L44.7033 47.06ZM36.4667 29.9333H36.5667V29.9331L36.4667 29.9333ZM32.5159 25.3395L32.4201 25.3682L32.4382 25.4287L32.5006 25.4383L32.5159 25.3395ZM30.2936 17.9297L30.1977 17.958L30.1978 17.9585L30.2936 17.9297ZM27.6112 15.9333V16.0333L27.6117 16.0333L27.6112 15.9333ZM17.3221 15.9333L17.3217 16.0333H17.3221V15.9333ZM14.6397 17.9297L14.7355 17.9585L14.7357 17.958L14.6397 17.9297ZM12.4175 25.3395L12.4327 25.4383L12.4951 25.4287L12.5132 25.3682L12.4175 25.3395ZM8.46666 29.9333L8.36666 29.9331V29.9333H8.46666ZM9.28677 35.6466L9.35748 35.5759L9.28677 35.6466ZM11.2667 36.4667H11.3667V36.3667H11.2667V36.4667ZM18.7333 36.4667V36.3667H18.6333V36.4667H18.7333ZM26.2 36.4667H26.3V36.3667H26.2V36.4667ZM33.6667 36.4667V36.3667H33.5667V36.4667H33.6667ZM16.428 18.4655L16.5238 18.4942L16.5239 18.4937L16.428 18.4655ZM17.3221 17.8L17.3217 17.9H17.3221V17.8ZM21.5333 17.8H21.6333V17.7H21.5333V17.8ZM23.4 17.8V17.7H23.3V17.8H23.4ZM27.6112 17.8V17.9L27.6117 17.9L27.6112 17.8ZM28.5053 18.4655L28.4094 18.4937L28.4095 18.4942L28.5053 18.4655ZM30.5456 25.2667V25.3667H30.68L30.6414 25.2379L30.5456 25.2667ZM14.3877 25.2667L14.2919 25.2379L14.2533 25.3667H14.3877V25.2667ZM13.1333 36.4667V36.3667H13.0333V36.4667H13.1333ZM16.8667 36.4667H16.9667V36.3667H16.8667V36.4667ZM19.6667 34.6H19.5667V34.7H19.6667V34.6ZM19.6667 32.7333V32.6333H19.5667V32.7333H19.6667ZM25.2667 32.7333H25.3667V32.6333H25.2667V32.7333ZM25.2667 34.6V34.7H25.3667V34.6H25.2667ZM28.0667 36.4667V36.3667H27.9667V36.4667H28.0667ZM31.8 36.4667H31.9V36.3667H31.8V36.4667ZM27.1333 34.6H27.0333V34.7H27.1333V34.6ZM17.8 34.6V34.7H17.9V34.6H17.8ZM10.3333 31.8V31.7H10.2333V31.8H10.3333ZM15 29.9333V30.0333H15.1V29.9333H15ZM10.3333 29.9333H10.2333V30.0333H10.3333V29.9333ZM34.6 29.9333V30.0333H34.7V29.9333H34.6ZM29.9333 29.9333H29.8333V30.0333H29.9333V29.9333ZM34.6 31.8H34.7V31.7H34.6V31.8ZM56.4797 34.9655L47.1463 30.9335L47.067 31.1171L56.4003 35.1491L56.4797 34.9655ZM47.1463 30.9335C46.8851 30.8209 46.589 30.8209 46.3279 30.9335L46.4071 31.1172C46.6177 31.0263 46.8564 31.0263 47.0671 31.1172L47.1463 30.9335ZM46.3277 30.9336L43.8936 31.9882L43.9731 32.1718L46.4072 31.1171L46.3277 30.9336ZM44.0333 32.08V14.0667H43.8333V32.08H44.0333ZM44.0333 14.0667C44.0333 14.0406 44.0267 14.0187 44.0242 14.0101C44.0208 13.9982 44.0219 14.0006 44.022 14.0043L43.8222 14.0133C43.8233 14.0376 43.83 14.0586 43.832 14.0654C43.8349 14.0754 43.8333 14.0722 43.8333 14.0667H44.0333ZM44.0219 14.0023C44.0158 13.9091 43.997 13.8173 43.9661 13.7292L43.7774 13.7956C43.8023 13.8664 43.8174 13.9404 43.8223 14.0153L44.0219 14.0023ZM43.9677 13.7343C43.958 13.7012 43.9465 13.6686 43.9334 13.6366L43.7484 13.7127C43.7589 13.7381 43.768 13.7641 43.7758 13.7905L43.9677 13.7343ZM43.9321 13.6337C43.8835 13.5255 43.8169 13.4264 43.735 13.3406L43.5903 13.4786C43.6565 13.548 43.7104 13.6282 43.7497 13.7157L43.9321 13.6337ZM43.7334 13.3389L31.6 1.20556L31.4586 1.34698L43.592 13.4803L43.7334 13.3389ZM31.5988 1.20433C31.511 1.11953 31.4088 1.05095 31.2971 1.0018L31.2165 1.18487C31.3067 1.22451 31.389 1.27981 31.4599 1.3482L31.5988 1.20433ZM31.304 1.00519C31.269 0.986429 31.2262 0.974104 31.2072 0.967357L31.1403 1.15584C31.1791 1.16963 31.1923 1.17224 31.2096 1.18148L31.304 1.00519ZM31.2068 0.967224C31.1159 0.935391 31.0211 0.916285 30.925 0.91045L30.9129 1.11008C30.9906 1.1148 31.0672 1.13024 31.1407 1.15598L31.2068 0.967224ZM30.9242 0.910405C30.9276 0.910586 30.9295 0.911095 30.9288 0.910931C30.9276 0.910631 30.9263 0.910261 30.9208 0.908681C30.9127 0.906347 30.8917 0.9 30.8667 0.9V1.1C30.8603 1.1 30.8566 1.09832 30.8655 1.10089C30.8685 1.10176 30.8757 1.10389 30.883 1.10561C30.8908 1.10745 30.9014 1.10948 30.9137 1.11013L30.9242 0.910405ZM30.8667 0.9H3.8V1.1H30.8667V0.9ZM3.8 0.9C2.19837 0.9 0.9 2.19837 0.9 3.8H1.1C1.1 2.30883 2.30883 1.1 3.8 1.1V0.9ZM0.9 3.8V54.2H1.1V3.8H0.9ZM0.9 54.2C0.9 55.8016 2.19837 57.1 3.8 57.1V56.9C2.30883 56.9 1.1 55.6912 1.1 54.2H0.9ZM3.8 57.1H41.1333V56.9H3.8V57.1ZM41.1336 57.1C42.3705 57.0962 43.4682 56.3069 43.8656 55.1356L43.6762 55.0713C43.3063 56.1617 42.2844 56.8964 41.133 56.9L41.1336 57.1ZM43.7129 55.1849L46.134 56.9079L46.25 56.7449L43.8289 55.022L43.7129 55.1849ZM46.134 56.9079C46.4927 57.1633 46.9739 57.1633 47.3327 56.9079L47.2167 56.7449C46.9274 56.9509 46.5393 56.9509 46.25 56.7449L46.134 56.9079ZM47.3326 56.9079L54.6238 51.7185L54.5079 51.5556L47.2167 56.7449L47.3326 56.9079ZM54.6237 51.7187C56.1688 50.6241 57.0909 48.8513 57.1 46.9578L56.9 46.9569C56.8912 48.7858 56.0005 50.4982 54.5081 51.5555L54.6237 51.7187ZM57.1 46.9573V35.9141H56.9V46.9573H57.1ZM57.1 35.9143C57.1006 35.5029 56.8571 35.1303 56.48 34.9657L56.4 35.149C56.7041 35.2817 56.9005 35.5822 56.9 35.914L57.1 35.9143ZM31.7293 4.25711L40.6762 13.204L40.8176 13.0626L31.8707 4.11569L31.7293 4.25711ZM40.7469 13.0333H31.8V13.2333H40.7469V13.0333ZM31.9 13.1333V4.1864H31.7V13.1333H31.9ZM41.9667 54.2C41.9667 54.6602 41.5936 55.0333 41.1333 55.0333V55.2333C41.704 55.2333 42.1667 54.7707 42.1667 54.2H41.9667ZM41.1333 55.0333H3.8V55.2333H41.1333V55.0333ZM3.8 55.0333C3.33976 55.0333 2.96667 54.6602 2.96667 54.2H2.76667C2.76667 54.7707 3.22931 55.2333 3.8 55.2333V55.0333ZM2.96667 54.2V3.8H2.76667V54.2H2.96667ZM2.96667 3.8C2.96667 3.33976 3.33976 2.96667 3.8 2.96667V2.76667C3.22931 2.76667 2.76667 3.22931 2.76667 3.8H2.96667ZM3.8 2.96667H29.9333V2.76667H3.8V2.96667ZM29.8333 2.86667V13.1333H30.0333V2.86667H29.8333ZM29.8333 13.1333C29.8333 14.2195 30.7138 15.1 31.8 15.1V14.9C30.8243 14.9 30.0333 14.109 30.0333 13.1333H29.8333ZM31.8 15.1H42.0667V14.9H31.8V15.1ZM41.9667 15V32.8817H42.1667V15H41.9667ZM42.027 32.7899L36.987 34.9655L37.0663 35.1492L42.1063 32.9735L42.027 32.7899ZM36.9867 34.9657C36.6096 35.1303 36.3661 35.5029 36.3667 35.9143L36.5667 35.914C36.5662 35.5822 36.7626 35.2817 37.0667 35.149L36.9867 34.9657ZM36.3667 35.9141V46.9573H36.5667V35.9141H36.3667ZM36.3667 46.9578C36.3758 48.8513 37.2979 50.6241 38.843 51.7187L38.9586 51.5555C37.4661 50.4982 36.5755 48.7858 36.5667 46.9569L36.3667 46.9578ZM38.8428 51.7185L42.0087 53.9716L42.1246 53.8087L38.9588 51.5556L38.8428 51.7185ZM41.9667 53.8901V54.2H42.1667V53.8901H41.9667ZM55.0333 46.9567C55.0252 48.1822 54.4262 49.3286 53.4246 50.035L53.5399 50.1984C54.5942 49.4548 55.2248 48.2481 55.2333 46.958L55.0333 46.9567ZM53.4243 50.0352L46.6753 54.8391L46.7913 55.002L53.5403 50.1981L53.4243 50.0352ZM46.7913 54.8391L40.0424 50.0352L39.9264 50.1981L46.6753 55.002L46.7913 54.8391ZM40.042 50.035C39.0406 49.3285 38.4416 48.1822 38.4333 46.9567L38.2333 46.958C38.242 48.2481 38.8726 49.4547 39.9268 50.1984L40.042 50.035ZM38.4333 46.9573V36.5273H38.2333V46.9573H38.4333ZM38.373 36.6191L43.3831 34.4547L43.3038 34.2711L38.2937 36.4355L38.373 36.6191ZM43.3837 34.4545L43.4219 34.4377L43.3415 34.2546L43.3033 34.2714L43.3837 34.4545ZM43.4214 34.4379L46.773 32.9903L46.6937 32.8067L43.3421 34.2543L43.4214 34.4379ZM46.6937 32.9903L55.0937 36.6191L55.173 36.4355L46.773 32.8067L46.6937 32.9903ZM55.0333 36.5273V46.9573H55.2333V36.5273H55.0333ZM41.7533 44.7223C41.2968 44.3798 40.6491 44.4724 40.3067 44.9289L40.4667 45.0489C40.7428 44.6807 41.2651 44.6061 41.6333 44.8823L41.7533 44.7223ZM40.3067 44.9289C39.9642 45.3855 40.0568 46.0332 40.5133 46.3756L40.6333 46.2156C40.2651 45.9395 40.1905 45.4171 40.4667 45.0489L40.3067 44.9289ZM40.5133 46.3756L44.2467 49.1756L44.3667 49.0156L40.6333 46.2156L40.5133 46.3756ZM44.2466 49.1756C44.6931 49.5106 45.3249 49.4306 45.6737 48.9947L45.5175 48.8698C45.2363 49.2212 44.7267 49.2858 44.3667 49.0156L44.2466 49.1756ZM45.6737 48.9947L53.1403 39.6614L52.9842 39.5365L45.5175 48.8698L45.6737 48.9947ZM53.1403 39.6614C53.3711 39.3731 53.4305 38.9836 53.2961 38.6396L53.1098 38.7124C53.2182 38.9898 53.1703 39.3039 52.9842 39.5364L53.1403 39.6614ZM53.2961 38.6396C53.1618 38.2956 52.8542 38.0495 52.4891 37.9938L52.459 38.1915C52.7534 38.2364 53.0015 38.4349 53.1098 38.7124L53.2961 38.6396ZM52.4891 37.9938C52.1241 37.9381 51.757 38.0815 51.5263 38.3698L51.6825 38.4947C51.8686 38.2622 52.1646 38.1466 52.459 38.1915L52.4891 37.9938ZM51.5263 38.3698L44.6252 46.9975L44.7814 47.1225L51.6825 38.4947L51.5263 38.3698ZM44.7633 46.98L41.7533 44.7223L41.6333 44.8823L44.6433 47.14L44.7633 46.98ZM36.5667 29.9331C36.5606 27.5885 34.8483 25.5975 32.5311 25.2406L32.5006 25.4383C34.7205 25.7802 36.3609 27.6876 36.3667 29.9336L36.5667 29.9331ZM32.6116 25.3107L30.3894 17.901L30.1978 17.9585L32.4201 25.3682L32.6116 25.3107ZM30.3895 17.9015C30.0267 16.6705 28.894 15.8275 27.6107 15.8333L27.6117 16.0333C28.8059 16.0279 29.8601 16.8124 30.1977 17.958L30.3895 17.9015ZM27.6112 15.8333H17.3221V16.0333H27.6112V15.8333ZM17.3226 15.8333C16.0393 15.8275 14.9066 16.6705 14.5438 17.9015L14.7357 17.958C15.0733 16.8124 16.1274 16.0279 17.3217 16.0333L17.3226 15.8333ZM14.5439 17.901L12.3217 25.3107L12.5132 25.3682L14.7355 17.9585L14.5439 17.901ZM12.4022 25.2406C10.085 25.5975 8.37269 27.5885 8.36666 29.9331L8.56666 29.9336C8.57243 27.6876 10.2128 25.7802 12.4327 25.4383L12.4022 25.2406ZM8.36666 29.9333V33.6667H8.56666V29.9333H8.36666ZM8.36666 33.6667C8.36666 34.4358 8.6722 35.1734 9.21605 35.7173L9.35748 35.5759C8.85113 35.0695 8.56666 34.3828 8.56666 33.6667H8.36666ZM9.21605 35.7173C9.75991 36.2611 10.4975 36.5667 11.2667 36.5667V36.3667C10.5506 36.3667 9.86382 36.0822 9.35748 35.5759L9.21605 35.7173ZM11.1667 36.4667V37.4H11.3667V36.4667H11.1667ZM11.1667 37.4C11.1667 39.0016 12.465 40.3 14.0667 40.3V40.1C12.5755 40.1 11.3667 38.8912 11.3667 37.4H11.1667ZM14.0667 40.3H15.9333V40.1H14.0667V40.3ZM15.9333 40.3C17.535 40.3 18.8333 39.0016 18.8333 37.4H18.6333C18.6333 38.8912 17.4245 40.1 15.9333 40.1V40.3ZM18.8333 37.4V36.4667H18.6333V37.4H18.8333ZM18.7333 36.5667H26.2V36.3667H18.7333V36.5667ZM26.1 36.4667V37.4H26.3V36.4667H26.1ZM26.1 37.4C26.1 39.0016 27.3984 40.3 29 40.3V40.1C27.5088 40.1 26.3 38.8912 26.3 37.4H26.1ZM29 40.3H30.8667V40.1H29V40.3ZM30.8667 40.3C32.4683 40.3 33.7667 39.0016 33.7667 37.4H33.5667C33.5667 38.8912 32.3578 40.1 30.8667 40.1V40.3ZM33.7667 37.4V36.4667H33.5667V37.4H33.7667ZM33.6667 36.5667C35.2683 36.5667 36.5667 35.2683 36.5667 33.6667H36.3667C36.3667 35.1578 35.1578 36.3667 33.6667 36.3667V36.5667ZM36.5667 33.6667V29.9333H36.3667V33.6667H36.5667ZM16.5239 18.4937C16.6281 18.1403 16.9533 17.8983 17.3217 17.9L17.3226 17.7C16.8651 17.6979 16.4614 17.9984 16.3321 18.4372L16.5239 18.4937ZM17.3221 17.9H21.5333V17.7H17.3221V17.9ZM21.4333 17.8V18.7333H21.6333V17.8H21.4333ZM21.4333 18.7333C21.4333 19.304 21.896 19.7667 22.4667 19.7667V19.5667C22.0064 19.5667 21.6333 19.1936 21.6333 18.7333H21.4333ZM22.4667 19.7667C23.0374 19.7667 23.5 19.304 23.5 18.7333H23.3C23.3 19.1936 22.9269 19.5667 22.4667 19.5667V19.7667ZM23.5 18.7333V17.8H23.3V18.7333H23.5ZM23.4 17.9H27.6112V17.7H23.4V17.9ZM27.6117 17.9C27.9801 17.8983 28.3053 18.1403 28.4094 18.4937L28.6012 18.4372C28.4719 17.9984 28.0682 17.6979 27.6107 17.7L27.6117 17.9ZM28.4095 18.4942L30.4498 25.2954L30.6414 25.2379L28.6011 18.4367L28.4095 18.4942ZM30.5456 25.1667H14.3877V25.3667H30.5456V25.1667ZM14.4835 25.2954L16.5238 18.4942L16.3322 18.4367L14.2919 25.2379L14.4835 25.2954ZM16.7667 37.4C16.7667 37.8602 16.3936 38.2333 15.9333 38.2333V38.4333C16.504 38.4333 16.9667 37.9707 16.9667 37.4H16.7667ZM15.9333 38.2333H14.0667V38.4333H15.9333V38.2333ZM14.0667 38.2333C13.6064 38.2333 13.2333 37.8602 13.2333 37.4H13.0333C13.0333 37.9707 13.496 38.4333 14.0667 38.4333V38.2333ZM13.2333 37.4V36.4667H13.0333V37.4H13.2333ZM13.1333 36.5667H16.8667V36.3667H13.1333V36.5667ZM16.7667 36.4667V37.4H16.9667V36.4667H16.7667ZM19.7667 34.6V32.7333H19.5667V34.6H19.7667ZM19.6667 32.8333H25.2667V32.6333H19.6667V32.8333ZM25.1667 32.7333V34.6H25.3667V32.7333H25.1667ZM25.2667 34.5H19.6667V34.7H25.2667V34.5ZM31.7 37.4C31.7 37.8602 31.3269 38.2333 30.8667 38.2333V38.4333C31.4374 38.4333 31.9 37.9707 31.9 37.4H31.7ZM30.8667 38.2333H29V38.4333H30.8667V38.2333ZM29 38.2333C28.5398 38.2333 28.1667 37.8602 28.1667 37.4H27.9667C27.9667 37.9707 28.4293 38.4333 29 38.4333V38.2333ZM28.1667 37.4V36.4667H27.9667V37.4H28.1667ZM28.0667 36.5667H31.8V36.3667H28.0667V36.5667ZM31.7 36.4667V37.4H31.9V36.4667H31.7ZM33.6667 34.5H27.1333V34.7H33.6667V34.5ZM27.2333 34.6V32.7333H27.0333V34.6H27.2333ZM27.2333 32.7333C27.2333 31.6472 26.3528 30.7667 25.2667 30.7667V30.9667C26.2424 30.9667 27.0333 31.7576 27.0333 32.7333H27.2333ZM25.2667 30.7667H19.6667V30.9667H25.2667V30.7667ZM19.6667 30.7667C18.5805 30.7667 17.7 31.6472 17.7 32.7333H17.9C17.9 31.7576 18.691 30.9667 19.6667 30.9667V30.7667ZM17.7 32.7333V34.6H17.9V32.7333H17.7ZM17.8 34.5H11.2667V34.7H17.8V34.5ZM11.2667 34.5C10.8064 34.5 10.4333 34.1269 10.4333 33.6667H10.2333C10.2333 34.2374 10.696 34.7 11.2667 34.7V34.5ZM10.4333 33.6667V31.8H10.2333V33.6667H10.4333ZM10.3333 31.9H15.9333V31.7H10.3333V31.9ZM15.9333 31.9C16.504 31.9 16.9667 31.4374 16.9667 30.8667H16.7667C16.7667 31.3269 16.3936 31.7 15.9333 31.7V31.9ZM16.9667 30.8667V29.9333H16.7667V30.8667H16.9667ZM16.9667 29.9333C16.9667 29.3626 16.504 28.9 15.9333 28.9V29.1C16.3936 29.1 16.7667 29.4731 16.7667 29.9333H16.9667ZM15.9333 28.9C15.3626 28.9 14.9 29.3626 14.9 29.9333H15.1C15.1 29.4731 15.4731 29.1 15.9333 29.1V28.9ZM15 29.8333H10.3333V30.0333H15V29.8333ZM10.4333 29.9333C10.4333 28.4422 11.6422 27.2333 13.1333 27.2333V27.0333C11.5317 27.0333 10.2333 28.3317 10.2333 29.9333H10.4333ZM13.1333 27.2333H31.8V27.0333H13.1333V27.2333ZM31.8 27.2333C33.2912 27.2333 34.5 28.4422 34.5 29.9333H34.7C34.7 28.3317 33.4016 27.0333 31.8 27.0333V27.2333ZM34.6 29.8333H29.9333V30.0333H34.6V29.8333ZM30.0333 29.9333C30.0333 29.3626 29.5707 28.9 29 28.9V29.1C29.4602 29.1 29.8333 29.4731 29.8333 29.9333H30.0333ZM29 28.9C28.4293 28.9 27.9667 29.3626 27.9667 29.9333H28.1667C28.1667 29.4731 28.5398 29.1 29 29.1V28.9ZM27.9667 29.9333V30.8667H28.1667V29.9333H27.9667ZM27.9667 30.8667C27.9667 31.1407 28.0755 31.4036 28.2693 31.5973L28.4107 31.4559C28.2545 31.2996 28.1667 31.0877 28.1667 30.8667H27.9667ZM28.2693 31.5973C28.4631 31.7911 28.7259 31.9 29 31.9V31.7C28.779 31.7 28.567 31.6122 28.4107 31.4559L28.2693 31.5973ZM29 31.9H34.6V31.7H29V31.9ZM34.5 31.8V33.6667H34.7V31.8H34.5ZM34.5 33.6667C34.5 34.1269 34.1269 34.5 33.6667 34.5V34.7C34.2374 34.7 34.7 34.2374 34.7 33.6667H34.5ZM6.6 7.63333H16.8667V7.43333H6.6V7.63333ZM16.8667 7.63333C17.4374 7.63333 17.9 7.17069 17.9 6.6H17.7C17.7 7.06024 17.3269 7.43333 16.8667 7.43333V7.63333ZM17.9 6.6C17.9 6.0293 17.4374 5.56667 16.8667 5.56667V5.76667C17.3269 5.76667 17.7 6.13976 17.7 6.6H17.9ZM16.8667 5.56667H6.6V5.76667H16.8667V5.56667ZM6.6 5.56667C6.0293 5.56667 5.56666 6.0293 5.56666 6.6H5.76666C5.76666 6.13976 6.13976 5.76667 6.6 5.76667V5.56667ZM5.56666 6.6C5.56666 7.17069 6.0293 7.63333 6.6 7.63333V7.43333C6.13976 7.43333 5.76666 7.06024 5.76666 6.6H5.56666ZM21.5333 7.63333H26.2V7.43333H21.5333V7.63333ZM26.2 7.63333C26.7707 7.63333 27.2333 7.17069 27.2333 6.6H27.0333C27.0333 7.06024 26.6602 7.43333 26.2 7.43333V7.63333ZM27.2333 6.6C27.2333 6.0293 26.7707 5.56667 26.2 5.56667V5.76667C26.6602 5.76667 27.0333 6.13976 27.0333 6.6H27.2333ZM26.2 5.56667H21.5333V5.76667H26.2V5.56667ZM21.5333 5.56667C20.9626 5.56667 20.5 6.0293 20.5 6.6H20.7C20.7 6.13976 21.0731 5.76667 21.5333 5.76667V5.56667ZM20.5 6.6C20.5 7.17069 20.9626 7.63333 21.5333 7.63333V7.43333C21.0731 7.43333 20.7 7.06024 20.7 6.6H20.5ZM6.6 13.2333H26.2V13.0333H6.6V13.2333ZM26.2 13.2333C26.7707 13.2333 27.2333 12.7707 27.2333 12.2H27.0333C27.0333 12.6602 26.6602 13.0333 26.2 13.0333V13.2333ZM27.2333 12.2C27.2333 11.6293 26.7707 11.1667 26.2 11.1667V11.3667C26.6602 11.3667 27.0333 11.7398 27.0333 12.2H27.2333ZM26.2 11.1667H6.6V11.3667H26.2V11.1667ZM6.6 11.1667C6.0293 11.1667 5.56666 11.6293 5.56666 12.2H5.76666C5.76666 11.7398 6.13976 11.3667 6.6 11.3667V11.1667ZM5.56666 12.2C5.56666 12.7707 6.0293 13.2333 6.6 13.2333V13.0333C6.13976 13.0333 5.76666 12.6602 5.76666 12.2H5.56666ZM6.6 16.9667H11.2667V16.7667H6.6V16.9667ZM11.2667 16.9667C11.8374 16.9667 12.3 16.504 12.3 15.9333H12.1C12.1 16.3936 11.7269 16.7667 11.2667 16.7667V16.9667ZM12.3 15.9333C12.3 15.3626 11.8374 14.9 11.2667 14.9V15.1C11.7269 15.1 12.1 15.4731 12.1 15.9333H12.3ZM11.2667 14.9H6.6V15.1H11.2667V14.9ZM6.6 14.9C6.0293 14.9 5.56666 15.3626 5.56666 15.9333H5.76666C5.76666 15.4731 6.13976 15.1 6.6 15.1V14.9ZM5.56666 15.9333C5.56666 16.504 6.0293 16.9667 6.6 16.9667V16.7667C6.13976 16.7667 5.76666 16.3936 5.76666 15.9333H5.56666ZM6.6 44.0333H24.3333V43.8333H6.6V44.0333ZM24.3333 44.0333C24.904 44.0333 25.3667 43.5707 25.3667 43H25.1667C25.1667 43.4602 24.7936 43.8333 24.3333 43.8333V44.0333ZM25.3667 43C25.3667 42.4293 24.904 41.9667 24.3333 41.9667V42.1667C24.7936 42.1667 25.1667 42.5398 25.1667 43H25.3667ZM24.3333 41.9667H6.6V42.1667H24.3333V41.9667ZM6.6 41.9667C6.0293 41.9667 5.56666 42.4293 5.56666 43H5.76666C5.76666 42.5398 6.13976 42.1667 6.6 42.1667V41.9667ZM5.56666 43C5.56666 43.5707 6.0293 44.0333 6.6 44.0333V43.8333C6.13976 43.8333 5.76666 43.4602 5.76666 43H5.56666ZM33.6667 44.0333C34.2374 44.0333 34.7 43.5707 34.7 43H34.5C34.5 43.4602 34.1269 43.8333 33.6667 43.8333V44.0333ZM34.7 43C34.7 42.4293 34.2374 41.9667 33.6667 41.9667V42.1667C34.1269 42.1667 34.5 42.5398 34.5 43H34.7ZM33.6667 41.9667H28.0667V42.1667H33.6667V41.9667ZM28.0667 41.9667C27.496 41.9667 27.0333 42.4293 27.0333 43H27.2333C27.2333 42.5398 27.6064 42.1667 28.0667 42.1667V41.9667ZM27.0333 43C27.0333 43.5707 27.496 44.0333 28.0667 44.0333V43.8333C27.6064 43.8333 27.2333 43.4602 27.2333 43H27.0333ZM28.0667 44.0333H33.6667V43.8333H28.0667V44.0333ZM19.5667 46.7333C19.5667 47.304 20.0293 47.7667 20.6 47.7667V47.5667C20.1398 47.5667 19.7667 47.1936 19.7667 46.7333H19.5667ZM20.6 47.7667H33.6667V47.5667H20.6V47.7667ZM33.6667 47.7667C34.2374 47.7667 34.7 47.304 34.7 46.7333H34.5C34.5 47.1936 34.1269 47.5667 33.6667 47.5667V47.7667ZM34.7 46.7333C34.7 46.1626 34.2374 45.7 33.6667 45.7V45.9C34.1269 45.9 34.5 46.2731 34.5 46.7333H34.7ZM33.6667 45.7H20.6V45.9H33.6667V45.7ZM20.6 45.7C20.0293 45.7 19.5667 46.1626 19.5667 46.7333H19.7667C19.7667 46.2731 20.1398 45.9 20.6 45.9V45.7ZM6.6 47.7667H16.8667V47.5667H6.6V47.7667ZM16.8667 47.7667C17.4374 47.7667 17.9 47.304 17.9 46.7333H17.7C17.7 47.1936 17.3269 47.5667 16.8667 47.5667V47.7667ZM17.9 46.7333C17.9 46.1626 17.4374 45.7 16.8667 45.7V45.9C17.3269 45.9 17.7 46.2731 17.7 46.7333H17.9ZM16.8667 45.7H6.6V45.9H16.8667V45.7ZM6.6 45.7C6.0293 45.7 5.56666 46.1626 5.56666 46.7333H5.76666C5.76666 46.2731 6.13976 45.9 6.6 45.9V45.7ZM5.56666 46.7333C5.56666 47.304 6.0293 47.7667 6.6 47.7667V47.5667C6.13976 47.5667 5.76666 47.1936 5.76666 46.7333H5.56666ZM29 49.4333H6.6V49.6333H29V49.4333ZM6.6 49.4333C6.0293 49.4333 5.56666 49.896 5.56666 50.4667H5.76666C5.76666 50.0064 6.13976 49.6333 6.6 49.6333V49.4333ZM5.56666 50.4667C5.56666 51.0374 6.0293 51.5 6.6 51.5V51.3C6.13976 51.3 5.76666 50.9269 5.76666 50.4667H5.56666ZM6.6 51.5H29V51.3H6.6V51.5ZM29 51.5C29.5707 51.5 30.0333 51.0374 30.0333 50.4667H29.8333C29.8333 50.9269 29.4602 51.3 29 51.3V51.5ZM30.0333 50.4667C30.0333 49.896 29.5707 49.4333 29 49.4333V49.6333C29.4602 49.6333 29.8333 50.0064 29.8333 50.4667H30.0333ZM34.6 49.4333H32.7333V49.6333H34.6V49.4333ZM32.7333 49.4333C32.1626 49.4333 31.7 49.896 31.7 50.4667H31.9C31.9 50.0064 32.2731 49.6333 32.7333 49.6333V49.4333ZM31.7 50.4667C31.7 51.0374 32.1626 51.5 32.7333 51.5V51.3C32.2731 51.3 31.9 50.9269 31.9 50.4667H31.7ZM32.7333 51.5H34.6V51.3H32.7333V51.5ZM34.6 51.5C35.1707 51.5 35.6333 51.0374 35.6333 50.4667H35.4333C35.4333 50.9269 35.0602 51.3 34.6 51.3V51.5ZM35.6333 50.4667C35.6333 49.896 35.1707 49.4333 34.6 49.4333V49.6333C35.0602 49.6333 35.4333 50.0064 35.4333 50.4667H35.6333Z" fill="white" mask="url(#path-1-outside-1)"/>
</svg>
