<svg width="57" height="57" viewBox="0 0 57 57" fill="none" xmlns="http://www.w3.org/2000/svg">
<path d="M28.5 25.1584C27.8854 25.1584 27.3867 25.6572 27.3867 26.2717C27.3867 26.8863 27.8853 27.385 28.5 27.385C29.1145 27.385 29.6132 26.8863 29.6132 26.2717C29.6132 25.6572 29.1146 25.1584 28.5 25.1584Z" fill="black"/>
<path d="M56.2078 21.8857C55.572 21.1353 54.6436 20.705 53.6606 20.705H43.995L50.4833 13.3521C52.1902 13.3111 53.8277 12.6179 55.0447 11.4007C57.648 8.79584 57.648 4.55776 55.0443 1.9526C52.4395 -0.650902 48.2016 -0.650902 45.5966 1.95282C44.3802 3.16945 43.6871 4.80626 43.6458 6.51264L27.5056 20.705H3.33923C2.35631 20.705 1.42795 21.1354 0.792042 21.8857C0.156024 22.6364 -0.116062 23.6236 0.0456977 24.5947L0.406179 26.7576C2.00129 36.3319 8.9976 44.0348 17.7919 47.5584L15.7428 52.1925C15.235 53.2291 15.2937 54.4318 15.9014 55.4154C16.5145 56.4076 17.5768 57 18.743 57H38.257C39.4233 57 40.4856 56.4076 41.0986 55.4154C41.7064 54.4318 41.7649 53.2291 41.2573 52.1925L39.2081 47.5582C48.0441 44.0171 55.0055 36.2915 56.5941 26.756L56.9545 24.5943C57.1159 23.6238 56.8438 22.6365 56.2078 21.8857ZM47.171 3.5275C48.9071 1.79239 51.7331 1.79105 53.4699 3.52716C55.2057 5.26394 55.2057 8.08977 53.4701 9.82632C51.7355 11.561 48.9104 11.5656 47.1713 9.82632C45.4232 8.07808 45.4461 5.2527 47.171 3.5275ZM44.0911 9.08641C44.4236 9.94723 44.9328 10.7368 45.5969 11.4009C46.2602 12.0642 47.0487 12.5731 47.908 12.9055L41.0256 20.705H30.8778L44.0911 9.08641ZM39.253 53.1629C39.5034 53.6633 39.3024 54.0863 39.2043 54.2451C39.1061 54.404 38.8173 54.7735 38.2569 54.7735H18.7429C18.1825 54.7735 17.8937 54.404 17.7955 54.2451C17.6975 54.0864 17.4964 53.6633 17.7468 53.1629C17.7705 53.1151 17.6264 53.437 19.8937 48.3105C22.7057 49.2002 25.5955 49.6521 28.4999 49.6521C31.4033 49.6521 34.2932 49.2002 37.1059 48.3104C39.365 53.418 39.2292 53.1146 39.253 53.1629ZM54.7579 24.228L54.6029 25.1584H32.9531C32.3383 25.1584 31.8398 25.6568 31.8398 26.2717C31.8398 26.8866 32.3383 27.3739 32.9531 27.3739H54.2083C52.4307 35.7512 46.0521 42.7942 37.3425 45.8838C37.3423 45.8838 37.3421 45.884 37.3421 45.884C34.4624 46.9066 31.4875 47.4251 28.4999 47.4251C25.5101 47.4251 22.5342 46.9062 19.6539 45.8827C10.946 42.7932 4.56852 35.7611 2.79139 27.3849H24.0466C24.6614 27.3849 25.1599 26.8865 25.1599 26.2716C25.1599 25.6567 24.6614 25.1583 24.0466 25.1583H2.39695L2.24198 24.2283C2.18732 23.9 2.27571 23.5793 2.49091 23.3252C2.70589 23.0715 3.00714 22.9318 3.33912 22.9318H53.6607C53.9927 22.9318 54.2939 23.0715 54.5089 23.3252C54.7242 23.5793 54.8126 23.9001 54.7579 24.228Z" fill="black"/>
<path d="M32.9532 36.2918H29.6134V32.9517C29.6134 32.3369 29.1148 31.8384 28.5001 31.8384C27.8853 31.8384 27.3868 32.3369 27.3868 32.9517V36.2918H24.0468C23.4321 36.2918 22.9336 36.7902 22.9336 37.4051C22.9336 38.02 23.4321 38.5185 24.0468 38.5185H27.3868V41.8585C27.3868 42.4734 27.8853 42.9718 28.5001 42.9718C29.1148 42.9718 29.6134 42.4734 29.6134 41.8585V38.5185H32.9532C33.568 38.5185 34.0665 38.02 34.0665 37.4051C34.0665 36.7902 33.5681 36.2918 32.9532 36.2918Z" fill="black"/>
</svg>
