<svg width="64" height="57" viewBox="0 0 64 57" fill="none" xmlns="http://www.w3.org/2000/svg">
<path d="M53.0625 6.45897C52.3725 6.45897 51.8125 7.01897 51.8125 7.70897C51.8125 8.39897 52.3725 8.95897 53.0625 8.95897C53.7525 8.95897 54.3125 8.39897 54.3125 7.70897C54.3125 7.01884 53.7525 6.45897 53.0625 6.45897Z" fill="white"/>
<path d="M59.5573 5.1995C56.5741 1.84663 52.4364 0.000124931 47.9062 0.000124931C42.9526 0.000124931 38.4324 1.92025 34.8345 5.553C33.5834 6.81612 32.6483 8.07812 32 9.07963C31.3517 8.07825 30.4166 6.81637 29.1655 5.553C25.5676 1.92012 21.0475 0 16.0938 0C6.61175 0 0 7.93263 0 17.3639C0 30.1036 13.5005 40.8305 31.1814 56.1534C31.4163 56.357 31.7081 56.4587 32 56.4587C32.2919 56.4587 32.5838 56.357 32.8186 56.1534C50.5416 40.7939 64 30.0859 64 17.3639C64 12.7395 62.4223 8.4195 59.5573 5.1995ZM32 53.5552C15.3039 39.1072 2.5 28.7303 2.5 17.3639C2.5 8.89013 8.344 2.50012 16.0938 2.50012C20.3967 2.50012 24.1764 4.09837 27.3276 7.25025C29.7284 9.6515 30.8485 12.1021 30.8595 12.1266C31.0606 12.575 31.5065 12.863 31.9981 12.864H32.0005C32.492 12.864 32.9385 12.5749 33.1406 12.1266C33.1516 12.1021 34.2718 9.65162 36.6725 7.25025C39.8236 4.09825 43.6033 2.50012 47.9064 2.50012C55.6561 2.50012 61.5001 8.89013 61.5001 17.3639C61.5 28.9869 47.8512 39.8384 32 53.5552Z" fill="white"/>
<path d="M57.4345 10.912C57.1139 10.3005 56.3583 10.065 55.747 10.3855C55.1356 10.7061 54.8999 11.4616 55.2205 12.073C56.0456 13.6464 56.5 15.5254 56.5 17.3639C56.5 20.9759 54.7809 24.8095 51.0897 29.4285C50.6587 29.9678 50.7466 30.7544 51.2859 31.1854C51.8286 31.6191 52.6145 31.5251 53.0428 30.9893C57.107 25.9033 59 21.5736 59 17.3639C59 15.0959 58.4586 12.8649 57.4345 10.912Z" fill="white"/>
<path d="M44 23.959H37V16.959C37 16.2686 36.4404 15.709 35.75 15.709H28.25C27.5596 15.709 27 16.2686 27 16.959V23.959H20C19.3096 23.959 18.75 24.5186 18.75 25.209V32.709C18.75 33.3993 19.3096 33.959 20 33.959H27V40.959C27 41.6493 27.5596 42.209 28.25 42.209H35.75C36.4404 42.209 37 41.6493 37 40.959V33.959H44C44.6904 33.959 45.25 33.3993 45.25 32.709V25.209C45.25 24.5186 44.6904 23.959 44 23.959ZM42.75 31.4588H35.75C35.0596 31.4588 34.5 32.0185 34.5 32.7088V39.7088H29.5V32.7088C29.5 32.0185 28.9404 31.4588 28.25 31.4588H21.25V26.4588H28.25C28.9404 26.4588 29.5 25.8992 29.5 25.2088V18.2088H34.5V25.2088C34.5 25.8992 35.0596 26.4588 35.75 26.4588H42.75V31.4588Z" fill="white"/>
</svg>
