<svg width="53" height="57" viewBox="0 0 53 57" fill="none" xmlns="http://www.w3.org/2000/svg">
<path d="M12.1302 14.0266C11.5214 14.0266 11.0274 14.5254 11.0274 15.1399C11.0274 15.7545 11.5214 16.2532 12.1302 16.2532C12.7389 16.2532 13.233 15.7545 13.233 15.1399C13.233 14.5254 12.7389 14.0266 12.1302 14.0266Z" fill="white"/>
<path d="M22.0548 34.8439H18.7466V31.5043C18.7466 30.8895 18.2528 30.391 17.6438 30.391C17.0348 30.391 16.5411 30.8895 16.5411 31.5043V34.8439H13.233C12.624 34.8439 12.1302 35.3424 12.1302 35.957C12.1302 36.5717 12.624 37.0703 13.233 37.0703H16.5411V40.4099C16.5411 41.0247 17.035 41.5232 17.6438 41.5232C18.2527 41.5232 18.7466 41.0247 18.7466 40.4099V37.0703H22.0548C22.6637 37.0703 23.1576 36.5718 23.1576 35.957C23.1576 35.3423 22.6638 34.8439 22.0548 34.8439Z" fill="white"/>
<path d="M51.8177 35.8458C49.38 31.5835 43.99 30.1248 39.7671 32.5862L35.2877 35.1969V25.5296C35.2877 24.3345 34.8963 23.1485 34.1851 22.19L28.6714 14.7688V11.6086C29.9549 11.149 30.8769 9.91174 30.8769 8.46036V3.3396C30.8767 1.49813 29.3926 -1.52588e-05 27.5685 -1.52588e-05H7.71922C5.89509 -1.52588e-05 4.41095 1.49813 4.41095 3.3396V8.46047C4.41095 9.91163 5.333 11.1492 6.61643 11.6087V14.7689L1.10235 22.1906C0.391492 23.1486 0 24.3345 0 25.5296V47.0894C0 50.1586 2.47346 52.6555 5.51364 52.6555H23.2357C25.7083 56.8395 31.0399 58.2398 35.2191 55.8037L48.589 48.0111C52.7746 45.571 54.2677 40.1314 51.8177 35.8458ZM6.61643 3.3396C6.61643 2.72574 7.11114 2.22632 7.71911 2.22632H27.5684C28.1765 2.22632 28.6712 2.72574 28.6712 3.3396V8.46047C28.6712 9.07433 28.1765 9.57364 27.5684 9.57364H7.71922C7.11114 9.57364 6.61654 9.07422 6.61654 8.46047L6.61643 3.3396ZM2.86726 23.5257L8.60135 15.8078C8.74449 15.6152 8.82191 15.3807 8.82191 15.1398V11.8002H26.4657V14.0266H16.5411C15.9322 14.0266 15.4383 14.5252 15.4383 15.1399C15.4383 15.7547 15.9322 16.2532 16.5411 16.2532H27.0171L32.42 23.5254C32.7732 24.0013 32.9925 24.5707 33.0588 25.159H2.22897C2.29513 24.5706 2.51448 24.0012 2.86726 23.5257ZM5.51375 50.429C3.68962 50.429 2.20559 48.9309 2.20559 47.0894V45.9651H22.2406C21.8909 47.4085 21.8932 48.9501 22.2936 50.4291H5.51375V50.429ZM23.1055 43.7497H2.20548V27.3852H33.0822V36.4822L26.3971 40.3789C25.0033 41.1917 23.8767 42.3487 23.1055 43.7497ZM34.1166 53.8755C30.9519 55.7203 26.9079 54.6293 25.0793 51.4323C23.2419 48.2045 24.3554 44.1405 27.5001 42.3069L33.4858 38.8181L40.1022 50.3867L34.1166 53.8755ZM47.4862 46.083L42.0122 49.2735L35.3957 37.7047L40.8698 34.5145C44.0365 32.6689 48.079 33.7618 49.9077 36.9589C51.7444 40.172 50.6275 44.2518 47.4862 46.083Z" fill="white"/>
</svg>
