<svg width="57" height="57" viewBox="0 0 57 57" fill="none" xmlns="http://www.w3.org/2000/svg">
<path d="M56.6661 8.3807L48.6189 0.333214C48.1745 -0.111071 47.4541 -0.111071 47.0097 0.333214L40.6934 6.64966C28.6352 -0.0939994 13.3933 4.2147 6.64985 16.2734C2.40701 23.8605 2.40687 33.1065 6.64942 40.6936L0.333173 47.01C-0.111098 47.4545 -0.111098 48.1749 0.333173 48.6193L8.38042 56.6668C8.82483 57.1111 9.54522 57.1111 9.98964 56.6668L16.3025 50.3515C28.3649 57.0927 43.6083 52.7788 50.3495 40.7159C54.5879 33.1315 54.5885 23.8914 50.351 16.3064L56.6673 9.98997C57.1113 9.54526 57.1108 8.82485 56.6661 8.3807ZM9.18616 54.2529L2.74928 47.8147L13.2104 37.3521C13.4237 37.1387 13.5438 36.8494 13.5438 36.5475V32.0736C13.5439 31.7574 13.568 31.4417 13.6155 31.129C14.1337 28.0293 17.0667 25.9366 20.1663 26.455C21.3356 26.6504 22.4146 27.2063 23.2526 28.0448C24.1096 28.8928 24.6685 29.9957 24.8459 31.1882C24.9189 31.685 25.3087 32.0752 25.8053 32.1487C26.998 32.3254 28.1011 32.8845 28.9486 33.7421C30.0178 34.8116 30.6187 36.262 30.6193 37.7744C30.6194 38.1178 30.5889 38.4606 30.5283 38.7987C30.4876 38.9836 30.4374 39.1663 30.378 39.3461C30.3382 39.4838 30.3143 39.6283 30.2642 39.7615C29.5556 41.6647 27.8852 43.0449 25.8827 43.3818C25.5664 43.432 25.2469 43.4575 24.9267 43.458H20.453C20.1511 43.458 19.8618 43.5781 19.6484 43.7915L9.18616 54.2529ZM44.5947 44.5961C37.5759 51.6532 26.7775 53.3122 17.964 48.6876L20.923 45.7342H24.9267C25.3657 45.7335 25.804 45.6992 26.2378 45.6318H26.2514C26.9593 45.5129 27.6482 45.3 28.2999 44.999C31.1108 43.697 32.9077 40.879 32.9023 37.7812C32.9023 37.7607 32.9023 37.7414 32.9023 37.7209C32.8768 34.1164 30.4345 30.9781 26.9468 30.0683C26.0296 26.5574 22.8581 24.1085 19.2296 24.1092C15.3337 24.1061 12.0093 26.9262 11.3769 30.7705C11.3099 31.204 11.2761 31.6419 11.2756 32.0805V36.0831L8.31668 39.0422C2.49748 27.8928 6.81828 14.1369 17.9673 8.31754C24.5657 4.87337 32.4308 4.87152 39.0309 8.31242L36.0719 11.2658H32.0739C31.6303 11.2666 31.1875 11.3016 30.7492 11.3705C30.0413 11.4894 29.3524 11.7022 28.7007 12.0033C25.8898 13.3053 24.0929 16.1233 24.0983 19.2211C24.0983 19.2416 24.0983 19.2609 24.0983 19.2814C24.1238 22.8859 26.5661 26.0242 30.0538 26.934C30.9627 30.4186 34.0961 32.8602 37.6971 32.8896H37.7653C41.6612 32.8928 44.9856 30.0727 45.618 26.2284C45.685 25.7949 45.7188 25.357 45.7193 24.9184V20.9237L48.6782 17.9646C53.305 26.7766 51.6493 37.5753 44.5947 44.5961ZM43.7901 19.6479C43.5767 19.8613 43.4566 20.1506 43.4566 20.4525V24.9264C43.4565 25.2426 43.4325 25.5583 43.385 25.871C43.2259 26.7953 42.8408 27.6659 42.264 28.4055C42.2207 28.4624 42.1866 28.5285 42.1399 28.5831C42.0133 28.7248 41.8796 28.8601 41.7393 28.9882C41.6414 29.0838 41.5549 29.1908 41.4514 29.2785C41.3478 29.3661 41.2238 29.4344 41.1179 29.5152C40.9643 29.629 40.8175 29.7428 40.6525 29.8441C40.5546 29.9021 40.4453 29.9397 40.344 29.9909C40.156 30.0936 39.9622 30.1857 39.7636 30.2663C39.6794 30.2971 39.5884 30.3107 39.503 30.338C39.2728 30.4167 39.038 30.481 38.7997 30.5304C38.6859 30.5509 38.5596 30.5486 38.4401 30.5622C38.2214 30.5952 38.0011 30.615 37.78 30.6214C36.2682 30.6228 34.8178 30.0235 33.7478 28.9552C32.8909 28.1072 32.3319 27.0043 32.1545 25.8118C32.0816 25.315 31.6918 24.9248 31.1952 24.8513C30.0025 24.6746 28.8994 24.1155 28.0518 23.2579C25.8265 21.0388 25.8215 17.4357 28.0406 15.2104C28.8759 14.3728 29.9515 13.8163 31.1178 13.6182C31.4352 13.568 31.7559 13.5425 32.0772 13.542H36.5509C36.8528 13.542 37.1421 13.4219 37.3555 13.2085L47.8177 2.74712L54.2546 9.18534L43.7901 19.6479Z" fill="white"/>
</svg>
