<svg width="68" height="46" viewBox="0 0 68 46" fill="none" xmlns="http://www.w3.org/2000/svg">
<path d="M67.7673 24.2435C64.9505 20.735 61.7723 17.5326 58.2855 14.6891C52.9003 10.2695 44.4961 4.91942 35.0392 4.55678C34.3116 4.52959 33.5218 4.52505 32.9257 4.56698C32.8294 4.56698 32.7206 4.56698 32.6174 4.58058C31.605 4.62903 30.5963 4.73612 29.5962 4.90129C27.6074 2.33789 25.8418 0.441967 25.7624 0.358107C25.547 0.128341 25.2457 -0.00141462 24.9306 1.94145e-06C24.6169 0.000426909 24.3174 0.13089 24.1034 0.360373C21.4837 3.2068 19.1264 6.28399 17.0602 9.5544C10.6302 13.4222 4.93366 18.395 0.23267 24.2435C-0.0775565 24.6497 -0.0775565 25.2132 0.23267 25.6193C3.04949 29.1278 6.22768 32.3302 9.71454 35.1737C15.0997 39.5933 23.5039 44.9434 32.9608 45.306C33.3008 45.3185 33.6555 45.3298 33.9977 45.3298C34.34 45.3298 34.6936 45.3185 35.0381 45.306H35.0687C44.5097 44.9332 52.9014 39.5933 58.2809 35.176C61.7695 32.3319 64.9492 29.1288 67.7673 25.6193C68.0776 25.2132 68.0776 24.6497 67.7673 24.2435ZM17.0727 15.1254C17.426 13.6434 18.0304 12.233 18.8598 10.9551C20.6448 8.07735 22.676 5.35983 24.9306 2.83312C25.7114 3.71818 26.9489 5.1676 28.2284 6.85387C28.2486 6.88787 28.2705 6.92073 28.2941 6.95247C28.7599 7.57348 29.2381 8.24097 29.6925 8.90505C32.3137 12.7479 32.8634 14.8115 32.8634 15.8654C32.8678 20.2422 29.3232 23.7938 24.9465 23.7982C22.3246 23.8007 19.871 22.5064 18.3929 20.3406C18.249 20.1344 18.1176 19.9225 17.9952 19.706C17.9555 19.6358 17.9238 19.561 17.8818 19.4896C17.8037 19.3411 17.7255 19.1938 17.6552 19.0363C17.6155 18.9479 17.5849 18.8549 17.5498 18.7643C17.4931 18.6249 17.4365 18.4855 17.3878 18.3427C17.3549 18.2441 17.3311 18.1433 17.3028 18.0435C17.262 17.903 17.2189 17.7636 17.1894 17.6197V17.5959C17.0658 17.0273 17.0016 16.4474 16.9979 15.8654C17.0005 15.6171 17.0254 15.3694 17.0727 15.1254ZM35.0505 17.0769C39.3936 17.654 42.4464 21.6423 41.8693 25.9853C41.2922 30.3284 37.3038 33.3812 32.9608 32.8041C29.4087 32.3321 26.6139 29.5375 26.1421 25.9853C30.8082 25.4205 34.4857 21.743 35.0505 17.0769ZM2.58869 24.9314C6.25842 20.5499 10.4942 16.6754 15.1847 13.4097C15.1723 13.446 15.1689 13.4777 15.1564 13.5151C15.0317 13.8915 14.9306 14.2752 14.8538 14.6642C14.847 14.7016 14.8436 14.7379 14.8368 14.7775C14.7709 15.1365 14.7358 15.5005 14.7314 15.8654C14.7364 16.4977 14.7986 17.128 14.9173 17.7489C12.1765 24.9818 13.7777 33.1433 19.048 38.8046C12.7956 35.1741 7.22536 30.4791 2.58869 24.9314ZM34.9542 43.0407C34.3252 43.0633 33.6736 43.0622 33.0526 43.0407C23.0367 42.5031 15.3531 33.9478 15.8909 23.9319C15.9402 23.0138 16.059 22.1008 16.2466 21.2008C16.3372 21.3447 16.4302 21.4852 16.5254 21.6246C18.2065 24.0888 20.8871 25.6883 23.8541 25.9978C24.4457 31.5996 29.4665 35.661 35.0681 35.0693C40.6699 34.4776 44.7313 29.4569 44.1396 23.8552C43.6322 19.0516 39.8248 15.2626 35.0187 14.7787C34.3625 12.1831 33.1883 9.74691 31.5668 7.61654C31.4297 7.41596 31.2903 7.21538 31.1509 7.01593C31.696 6.93207 32.2615 6.8686 32.8508 6.82781L32.9901 6.83121C33.3176 6.81081 33.6486 6.80288 33.9749 6.80288C34.3013 6.80288 34.6198 6.81081 34.9393 6.82101C44.9414 7.31114 52.6522 15.8167 52.162 25.8187C51.706 35.1294 44.2644 42.5769 34.9542 43.0407ZM48.9487 38.8035C56.2118 30.9811 56.2118 18.8806 48.9487 11.0582C55.1996 14.6891 60.7681 19.384 65.4034 24.9314C60.7681 30.4784 55.1995 35.173 48.9487 38.8035Z" fill="black"/>
</svg>
