<svg width="58" height="58" viewBox="0 0 58 58" fill="none" xmlns="http://www.w3.org/2000/svg">
<mask id="path-1-outside-1" maskUnits="userSpaceOnUse" x="0.00701904" y="0" width="58" height="58" fill="black">
<rect fill="white" x="0.00701904" width="58" height="58"/>
<path d="M56.169 20.7132C56.6957 20.1909 56.992 19.48 56.992 18.7383C56.9837 17.1921 55.7309 15.9415 54.1846 15.9359H54.1751C53.435 15.9369 52.7262 16.2347 52.2075 16.7625L49.0341 19.9354C48.2776 19.7587 47.5035 19.6678 46.7267 19.6645V10.5797L50.3365 4.26246C50.3457 4.24634 50.3451 4.22799 50.3534 4.21153C50.379 4.1545 50.3987 4.09513 50.4122 4.03409C50.4304 3.97505 50.4428 3.91445 50.4488 3.85297C50.4499 3.83429 50.4595 3.8185 50.4595 3.79949C50.4539 3.73967 50.4445 3.6803 50.4315 3.62171C50.426 3.59335 50.4264 3.56511 50.4183 3.53743C49.9906 1.08061 43.7318 1 42.9938 1C42.2558 1 35.997 1.08061 35.5693 3.53754C35.5612 3.56523 35.5616 3.59358 35.5561 3.62182C35.5431 3.68041 35.5337 3.73978 35.528 3.7996C35.528 3.81861 35.5377 3.8344 35.5388 3.85308C35.5448 3.91456 35.5571 3.97527 35.5754 4.0342C35.5889 4.09524 35.6085 4.15472 35.6342 4.21165C35.6425 4.22821 35.6419 4.24645 35.6511 4.26257L39.261 10.5798V19.6643H35.5282V13.478C36.2015 12.5019 36.5299 11.3292 36.4613 10.1453C36.4613 7.53247 33.6339 5.19484 33.3113 4.93701C33.2882 4.91844 33.2599 4.91399 33.2357 4.89798C33.1338 4.83338 33.0216 4.78702 32.9039 4.76089C32.6676 4.71875 32.4243 4.76756 32.2225 4.89731C32.1978 4.91344 32.169 4.91811 32.1455 4.9369C31.8229 5.19484 28.9955 7.53236 28.9955 10.1452C28.927 11.3289 29.2554 12.5017 29.9286 13.4778V19.6641H27.129V11.2653C27.1247 11.2357 27.1187 11.2062 27.1114 11.1772C27.1131 11.1467 27.1132 11.1163 27.1118 11.0858L26.1403 6.14624C25.9308 5.30647 25.1713 4.72087 24.3059 4.73198C23.4404 4.7431 22.6961 5.34783 22.5081 6.19271L21.5471 11.0857C21.5456 11.1161 21.5457 11.1466 21.5475 11.1771C21.5401 11.2061 21.5342 11.2356 21.5298 11.2652V19.6641H19.6634V15.9313C19.6622 14.9009 18.8273 14.0661 17.797 14.0648V11.9389C18.3723 11.6081 18.728 10.9958 18.7301 10.3321V2.86644C18.7291 1.8361 17.8941 1.00122 16.8639 1H12.1979C11.1675 1.00122 10.3327 1.8361 10.3314 2.86644V10.3322C10.3337 10.9959 10.6892 11.6082 11.2646 11.939V14.0651C10.2343 14.0663 9.39938 14.9012 9.39816 15.9315V19.8403C4.53077 20.7401 1.00069 24.9881 1.00703 29.9379L1.02615 55.0825C1.01225 55.5863 1.20271 56.0742 1.55416 56.4353C1.90561 56.7964 2.38815 57.0001 2.89214 57H55.0991C55.5984 57.0001 56.077 56.8002 56.4278 56.4448C56.7785 56.0894 56.9722 55.6082 56.9656 55.1089L56.9842 29.9377C56.9918 27.269 55.9523 24.7036 54.0892 22.793L56.169 20.7132ZM53.5317 18.0776C53.7025 17.9023 53.9367 17.8032 54.1814 17.8024H54.1842C54.5635 17.7977 54.9078 18.024 55.0539 18.3741C55.2 18.7242 55.1187 19.128 54.8485 19.3944L52.6689 21.5741C52.1451 21.1996 51.5869 20.8758 51.0019 20.607L53.5317 18.0776ZM37.5438 3.81316C38.1462 3.42424 40.0264 2.86644 42.9938 2.86644C45.9612 2.86644 47.8414 3.42424 48.4438 3.81316L45.252 9.39891H40.7357L37.5438 3.81316ZM41.1274 13.1318V11.2653H44.8602V13.1318H41.1274ZM44.8602 14.9982V19.6643H41.1274V14.9982H44.8602ZM30.862 10.1453C30.862 9.00688 31.9318 7.70503 32.7284 6.9233C33.5251 7.70503 34.5949 9.00688 34.5949 10.1453C34.6338 10.8575 34.479 11.5671 34.1473 12.1985H31.3095C30.9779 11.567 30.8232 10.8575 30.862 10.1453ZM31.7953 15.9314V14.0649H33.6617V15.9314H31.7953ZM33.6616 17.7978V19.6643H31.7952V17.7978H33.6616ZM24.3191 6.55184L25.0616 10.3321H23.5928L24.3191 6.55184ZM23.3964 12.1985H25.2628V19.6643H23.3964V12.1985ZM12.1978 2.86644H16.8638L16.8647 10.3322H12.1976L12.1978 2.86644ZM11.2646 15.9314C12.2949 15.9302 13.1298 15.0953 13.131 14.0649V12.1985H15.9306V14.0649C15.9319 15.0953 16.7667 15.9302 17.7971 15.9314V19.6643H11.2723L11.2645 19.6647L11.2646 15.9314ZM55.1178 29.9359L55.0991 55.1336L2.89214 55.1071L2.87346 29.9358C2.87169 27.7072 3.75582 25.5692 5.33117 23.9927C6.90642 22.4163 9.04381 21.5305 11.2724 21.5306H46.7189C48.9476 21.5306 51.0848 22.4163 52.6601 23.9927C54.2354 25.5693 55.1196 27.7073 55.1178 29.9359Z"/>
<path d="M36.11 27.1372H36.1037C34.4934 27.1406 32.9576 27.8162 31.8669 29.0009L28.9961 32.0703L26.1232 28.9982C25.0326 27.815 23.4978 27.1405 21.8886 27.1372H21.8823C20.276 27.1417 18.7447 27.817 17.6582 29C15.3645 31.509 15.3647 35.3539 17.6587 37.8627L28.3149 49.239C28.4914 49.4274 28.738 49.5343 28.9961 49.5343C29.2543 49.5343 29.5009 49.4275 29.6774 49.239L40.3336 37.8627C42.6275 35.3538 42.6275 31.5089 40.3336 29C39.2474 27.8169 37.7161 27.1415 36.11 27.1372ZM38.9735 36.585L38.9721 36.5869L28.9961 47.2358L19.0188 36.585C17.3863 34.7985 17.3868 32.0615 19.0201 30.2758C19.7557 29.4712 20.7938 29.01 21.884 29.0036H21.8881C22.9812 29.0088 24.0228 29.4695 24.7619 30.2749L28.3144 34.0734C28.4949 34.2545 28.7402 34.3563 28.996 34.3563C29.2519 34.3563 29.4971 34.2545 29.6777 34.0734L33.2278 30.2777C33.967 29.4708 35.0096 29.009 36.104 29.0036H36.1081C37.1983 29.01 38.2362 29.4712 38.9715 30.2759C40.6054 32.0614 40.6061 34.7985 38.9735 36.585Z"/>
<path d="M5.66584 29.9369C5.41835 29.9368 5.18086 30.0352 5.00586 30.2102C4.83085 30.3852 4.73257 30.6225 4.73257 30.8701V43.0018C4.73257 43.5173 5.1504 43.935 5.66573 43.935C6.18107 43.935 6.59889 43.5171 6.59889 43.0018V30.8701C6.599 30.6226 6.50061 30.3853 6.3256 30.2102C6.15082 30.0352 5.91334 29.9369 5.66584 29.9369Z"/>
<path d="M5.66584 45.8015C5.41835 45.8014 5.18086 45.8998 5.00586 46.0748C4.83085 46.2498 4.73257 46.4872 4.73257 46.7348V50.4677C4.73257 50.9831 5.1504 51.4009 5.66573 51.4009C6.18107 51.4009 6.59889 50.983 6.59889 50.4677V46.7348C6.599 46.4873 6.50061 46.2498 6.3256 46.0748C6.15082 45.8997 5.91334 45.8014 5.66584 45.8015Z"/>
</mask>
<path d="M56.169 20.7132C56.6957 20.1909 56.992 19.48 56.992 18.7383C56.9837 17.1921 55.7309 15.9415 54.1846 15.9359H54.1751C53.435 15.9369 52.7262 16.2347 52.2075 16.7625L49.0341 19.9354C48.2776 19.7587 47.5035 19.6678 46.7267 19.6645V10.5797L50.3365 4.26246C50.3457 4.24634 50.3451 4.22799 50.3534 4.21153C50.379 4.1545 50.3987 4.09513 50.4122 4.03409C50.4304 3.97505 50.4428 3.91445 50.4488 3.85297C50.4499 3.83429 50.4595 3.8185 50.4595 3.79949C50.4539 3.73967 50.4445 3.6803 50.4315 3.62171C50.426 3.59335 50.4264 3.56511 50.4183 3.53743C49.9906 1.08061 43.7318 1 42.9938 1C42.2558 1 35.997 1.08061 35.5693 3.53754C35.5612 3.56523 35.5616 3.59358 35.5561 3.62182C35.5431 3.68041 35.5337 3.73978 35.528 3.7996C35.528 3.81861 35.5377 3.8344 35.5388 3.85308C35.5448 3.91456 35.5571 3.97527 35.5754 4.0342C35.5889 4.09524 35.6085 4.15472 35.6342 4.21165C35.6425 4.22821 35.6419 4.24645 35.6511 4.26257L39.261 10.5798V19.6643H35.5282V13.478C36.2015 12.5019 36.5299 11.3292 36.4613 10.1453C36.4613 7.53247 33.6339 5.19484 33.3113 4.93701C33.2882 4.91844 33.2599 4.91399 33.2357 4.89798C33.1338 4.83338 33.0216 4.78702 32.9039 4.76089C32.6676 4.71875 32.4243 4.76756 32.2225 4.89731C32.1978 4.91344 32.169 4.91811 32.1455 4.9369C31.8229 5.19484 28.9955 7.53236 28.9955 10.1452C28.927 11.3289 29.2554 12.5017 29.9286 13.4778V19.6641H27.129V11.2653C27.1247 11.2357 27.1187 11.2062 27.1114 11.1772C27.1131 11.1467 27.1132 11.1163 27.1118 11.0858L26.1403 6.14624C25.9308 5.30647 25.1713 4.72087 24.3059 4.73198C23.4404 4.7431 22.6961 5.34783 22.5081 6.19271L21.5471 11.0857C21.5456 11.1161 21.5457 11.1466 21.5475 11.1771C21.5401 11.2061 21.5342 11.2356 21.5298 11.2652V19.6641H19.6634V15.9313C19.6622 14.9009 18.8273 14.0661 17.797 14.0648V11.9389C18.3723 11.6081 18.728 10.9958 18.7301 10.3321V2.86644C18.7291 1.8361 17.8941 1.00122 16.8639 1H12.1979C11.1675 1.00122 10.3327 1.8361 10.3314 2.86644V10.3322C10.3337 10.9959 10.6892 11.6082 11.2646 11.939V14.0651C10.2343 14.0663 9.39938 14.9012 9.39816 15.9315V19.8403C4.53077 20.7401 1.00069 24.9881 1.00703 29.9379L1.02615 55.0825C1.01225 55.5863 1.20271 56.0742 1.55416 56.4353C1.90561 56.7964 2.38815 57.0001 2.89214 57H55.0991C55.5984 57.0001 56.077 56.8002 56.4278 56.4448C56.7785 56.0894 56.9722 55.6082 56.9656 55.1089L56.9842 29.9377C56.9918 27.269 55.9523 24.7036 54.0892 22.793L56.169 20.7132ZM53.5317 18.0776C53.7025 17.9023 53.9367 17.8032 54.1814 17.8024H54.1842C54.5635 17.7977 54.9078 18.024 55.0539 18.3741C55.2 18.7242 55.1187 19.128 54.8485 19.3944L52.6689 21.5741C52.1451 21.1996 51.5869 20.8758 51.0019 20.607L53.5317 18.0776ZM37.5438 3.81316C38.1462 3.42424 40.0264 2.86644 42.9938 2.86644C45.9612 2.86644 47.8414 3.42424 48.4438 3.81316L45.252 9.39891H40.7357L37.5438 3.81316ZM41.1274 13.1318V11.2653H44.8602V13.1318H41.1274ZM44.8602 14.9982V19.6643H41.1274V14.9982H44.8602ZM30.862 10.1453C30.862 9.00688 31.9318 7.70503 32.7284 6.9233C33.5251 7.70503 34.5949 9.00688 34.5949 10.1453C34.6338 10.8575 34.479 11.5671 34.1473 12.1985H31.3095C30.9779 11.567 30.8232 10.8575 30.862 10.1453ZM31.7953 15.9314V14.0649H33.6617V15.9314H31.7953ZM33.6616 17.7978V19.6643H31.7952V17.7978H33.6616ZM24.3191 6.55184L25.0616 10.3321H23.5928L24.3191 6.55184ZM23.3964 12.1985H25.2628V19.6643H23.3964V12.1985ZM12.1978 2.86644H16.8638L16.8647 10.3322H12.1976L12.1978 2.86644ZM11.2646 15.9314C12.2949 15.9302 13.1298 15.0953 13.131 14.0649V12.1985H15.9306V14.0649C15.9319 15.0953 16.7667 15.9302 17.7971 15.9314V19.6643H11.2723L11.2645 19.6647L11.2646 15.9314ZM55.1178 29.9359L55.0991 55.1336L2.89214 55.1071L2.87346 29.9358C2.87169 27.7072 3.75582 25.5692 5.33117 23.9927C6.90642 22.4163 9.04381 21.5305 11.2724 21.5306H46.7189C48.9476 21.5306 51.0848 22.4163 52.6601 23.9927C54.2354 25.5693 55.1196 27.7073 55.1178 29.9359Z" fill="black"/>
<path d="M36.11 27.1372H36.1037C34.4934 27.1406 32.9576 27.8162 31.8669 29.0009L28.9961 32.0703L26.1232 28.9982C25.0326 27.815 23.4978 27.1405 21.8886 27.1372H21.8823C20.276 27.1417 18.7447 27.817 17.6582 29C15.3645 31.509 15.3647 35.3539 17.6587 37.8627L28.3149 49.239C28.4914 49.4274 28.738 49.5343 28.9961 49.5343C29.2543 49.5343 29.5009 49.4275 29.6774 49.239L40.3336 37.8627C42.6275 35.3538 42.6275 31.5089 40.3336 29C39.2474 27.8169 37.7161 27.1415 36.11 27.1372ZM38.9735 36.585L38.9721 36.5869L28.9961 47.2358L19.0188 36.585C17.3863 34.7985 17.3868 32.0615 19.0201 30.2758C19.7557 29.4712 20.7938 29.01 21.884 29.0036H21.8881C22.9812 29.0088 24.0228 29.4695 24.7619 30.2749L28.3144 34.0734C28.4949 34.2545 28.7402 34.3563 28.996 34.3563C29.2519 34.3563 29.4971 34.2545 29.6777 34.0734L33.2278 30.2777C33.967 29.4708 35.0096 29.009 36.104 29.0036H36.1081C37.1983 29.01 38.2362 29.4712 38.9715 30.2759C40.6054 32.0614 40.6061 34.7985 38.9735 36.585Z" fill="black"/>
<path d="M5.66584 29.9369C5.41835 29.9368 5.18086 30.0352 5.00586 30.2102C4.83085 30.3852 4.73257 30.6225 4.73257 30.8701V43.0018C4.73257 43.5173 5.1504 43.935 5.66573 43.935C6.18107 43.935 6.59889 43.5171 6.59889 43.0018V30.8701C6.599 30.6226 6.50061 30.3853 6.3256 30.2102C6.15082 30.0352 5.91334 29.9369 5.66584 29.9369Z" fill="black"/>
<path d="M5.66584 45.8015C5.41835 45.8014 5.18086 45.8998 5.00586 46.0748C4.83085 46.2498 4.73257 46.4872 4.73257 46.7348V50.4677C4.73257 50.9831 5.1504 51.4009 5.66573 51.4009C6.18107 51.4009 6.59889 50.983 6.59889 50.4677V46.7348C6.599 46.4873 6.50061 46.2498 6.3256 46.0748C6.15082 45.8997 5.91334 45.8014 5.66584 45.8015Z" fill="black"/>
<path d="M56.169 20.7132L56.0986 20.6422L56.0983 20.6425L56.169 20.7132ZM56.992 18.7383H57.092L57.092 18.7378L56.992 18.7383ZM54.1846 15.9359L54.185 15.8359H54.1846V15.9359ZM54.1751 15.9359V15.8359H54.1749L54.1751 15.9359ZM52.2075 16.7625L52.2782 16.8332L52.2788 16.8326L52.2075 16.7625ZM49.0341 19.9354L49.0113 20.0328L49.0654 20.0455L49.1048 20.0061L49.0341 19.9354ZM46.7267 19.6645H46.6267V19.7641L46.7262 19.7645L46.7267 19.6645ZM46.7267 10.5797L46.6398 10.5301L46.6267 10.5531V10.5797H46.7267ZM50.3365 4.26246L50.2497 4.21278L50.2496 4.21284L50.3365 4.26246ZM50.3534 4.21153L50.4429 4.25629L50.4445 4.25259L50.3534 4.21153ZM50.4122 4.03409L50.3163 4.00448L50.3145 4.01256L50.4122 4.03409ZM50.4488 3.85297L50.5484 3.86269L50.5486 3.85891L50.4488 3.85297ZM50.4595 3.79949H50.56L50.5591 3.79005L50.4595 3.79949ZM50.4315 3.62171L50.3334 3.64095L50.3339 3.64338L50.4315 3.62171ZM50.4183 3.53743L50.3191 3.55469L50.3223 3.56556L50.4183 3.53743ZM35.5693 3.53754L35.6659 3.56585L35.6678 3.55469L35.5693 3.53754ZM35.5561 3.62182L35.6537 3.6435L35.6542 3.64113L35.5561 3.62182ZM35.528 3.7996L35.4281 3.79012V3.7996H35.528ZM35.5388 3.85308L35.4389 3.85903L35.4393 3.8628L35.5388 3.85308ZM35.5754 4.0342L35.6734 4.0126L35.6709 4.00447L35.5754 4.0342ZM35.6342 4.21165L35.543 4.2528L35.5447 4.25613L35.6342 4.21165ZM35.6511 4.26257L35.7379 4.21295L35.7379 4.21289L35.6511 4.26257ZM39.261 10.5798H39.361V10.5532L39.3479 10.5302L39.261 10.5798ZM39.261 19.6643V19.7643H39.361V19.6643H39.261ZM35.5282 19.6643H35.4282V19.7643H35.5282V19.6643ZM35.5282 13.478L35.4458 13.4212L35.4282 13.4469V13.478H35.5282ZM36.4613 10.1453H36.3612L36.3615 10.1511L36.4613 10.1453ZM33.3113 4.93701L33.2487 5.01498L33.2488 5.01513L33.3113 4.93701ZM33.2357 4.89798L33.2908 4.81453L33.2892 4.81354L33.2357 4.89798ZM32.9039 4.76089L32.9256 4.66318L32.9215 4.66245L32.9039 4.76089ZM32.2225 4.89731L32.1684 4.8132L32.1678 4.81359L32.2225 4.89731ZM32.1455 4.9369L32.208 5.015L32.208 5.01495L32.1455 4.9369ZM28.9955 10.1452L29.0955 10.151V10.1452H28.9955ZM29.9286 13.4778H30.0286V13.4466L30.0109 13.421L29.9286 13.4778ZM29.9286 19.6641V19.7641H30.0286V19.6641H29.9286ZM27.129 19.6641H27.029V19.7641H27.129V19.6641ZM27.129 11.2653H27.229V11.2581L27.228 11.2509L27.129 11.2653ZM27.1114 11.1772L27.0115 11.1713L27.0106 11.1867L27.0144 11.2017L27.1114 11.1772ZM27.1118 11.0858L27.2117 11.081L27.2113 11.0737L27.2099 11.0665L27.1118 11.0858ZM26.1403 6.14624L26.2385 6.12692L26.2373 6.12204L26.1403 6.14624ZM22.5081 6.19271L22.4105 6.17098L22.41 6.17344L22.5081 6.19271ZM21.5471 11.0857L21.4489 11.0664L21.4475 11.0736L21.4472 11.0809L21.5471 11.0857ZM21.5475 11.1771L21.6444 11.2019L21.6482 11.1868L21.6473 11.1712L21.5475 11.1771ZM21.5298 11.2652L21.4309 11.2508L21.4298 11.258V11.2652H21.5298ZM21.5298 19.6641V19.7641H21.6298V19.6641H21.5298ZM19.6634 19.6641H19.5634V19.7641H19.6634V19.6641ZM19.6634 15.9313H19.7634V15.9312L19.6634 15.9313ZM17.797 14.0648H17.697V14.1647L17.7968 14.1648L17.797 14.0648ZM17.797 11.9389L17.7471 11.8522L17.697 11.881V11.9389H17.797ZM18.7301 10.3321L18.8301 10.3324V10.3321H18.7301ZM18.7301 2.86644H18.8301V2.86634L18.7301 2.86644ZM16.8639 1L16.864 0.9H16.8639V1ZM12.1979 1V0.9L12.1977 0.9L12.1979 1ZM10.3314 2.86644L10.2314 2.86632V2.86644H10.3314ZM10.3314 10.3322H10.2314L10.2314 10.3325L10.3314 10.3322ZM11.2646 11.939H11.3646V11.8812L11.3144 11.8523L11.2646 11.939ZM11.2646 14.0651L11.2647 14.1651L11.3646 14.1649V14.0651H11.2646ZM9.39816 15.9315L9.29815 15.9314V15.9315H9.39816ZM9.39816 19.8403L9.41633 19.9386L9.49816 19.9235V19.8403H9.39816ZM1.00703 29.9379L1.10703 29.9379L1.10703 29.9378L1.00703 29.9379ZM1.02615 55.0825L1.12615 55.0853L1.12615 55.0825L1.02615 55.0825ZM2.89214 57V56.9H2.89212L2.89214 57ZM55.0991 57L55.0991 56.9H55.0991V57ZM56.4278 56.4448L56.3566 56.3745L56.3566 56.3745L56.4278 56.4448ZM56.9656 55.1089L56.8655 55.1088L56.8656 55.1102L56.9656 55.1089ZM56.9842 29.9377L56.8842 29.9374V29.9376L56.9842 29.9377ZM54.0892 22.793L54.0185 22.7222L53.9487 22.7921L54.0176 22.8628L54.0892 22.793ZM53.5317 18.0776L53.6024 18.1483L53.6032 18.1474L53.5317 18.0776ZM54.1814 17.8024V17.7024H54.1811L54.1814 17.8024ZM54.1842 17.8024V17.9024L54.1854 17.9024L54.1842 17.8024ZM54.8485 19.3944L54.7783 19.3232L54.7778 19.3237L54.8485 19.3944ZM52.6689 21.5741L52.6107 21.6554L52.6797 21.7047L52.7396 21.6448L52.6689 21.5741ZM51.0019 20.607L50.9312 20.5363L50.8296 20.6379L50.9601 20.6978L51.0019 20.607ZM37.5438 3.81316L37.4896 3.72915L37.41 3.78053L37.457 3.86278L37.5438 3.81316ZM48.4438 3.81316L48.5306 3.86278L48.5776 3.78053L48.498 3.72915L48.4438 3.81316ZM45.252 9.39891V9.49891H45.3101L45.3389 9.44852L45.252 9.39891ZM40.7357 9.39891L40.6488 9.44852L40.6776 9.49891H40.7357V9.39891ZM41.1274 13.1318H41.0274V13.2318H41.1274V13.1318ZM41.1274 11.2653V11.1653H41.0274V11.2653H41.1274ZM44.8602 11.2653H44.9602V11.1653H44.8602V11.2653ZM44.8602 13.1318V13.2318H44.9602V13.1318H44.8602ZM44.8602 14.9982H44.9602V14.8982H44.8602V14.9982ZM44.8602 19.6643V19.7643H44.9602V19.6643H44.8602ZM41.1274 19.6643H41.0274V19.7643H41.1274V19.6643ZM41.1274 14.9982V14.8982H41.0274V14.9982H41.1274ZM30.862 10.1453L30.962 10.1507V10.1453H30.862ZM32.7284 6.9233L32.7985 6.85192L32.7284 6.78319L32.6584 6.85192L32.7284 6.9233ZM34.5949 10.1453H34.4947L34.495 10.1507L34.5949 10.1453ZM34.1473 12.1985V12.2985H34.2077L34.2358 12.245L34.1473 12.1985ZM31.3095 12.1985L31.221 12.245L31.2491 12.2985H31.3095V12.1985ZM31.7953 15.9314H31.6953V16.0314H31.7953V15.9314ZM31.7953 14.0649V13.9649H31.6953V14.0649H31.7953ZM33.6617 14.0649H33.7617V13.9649H33.6617V14.0649ZM33.6617 15.9314V16.0314H33.7617V15.9314H33.6617ZM33.6616 17.7978H33.7616V17.6978H33.6616V17.7978ZM33.6616 19.6643V19.7643H33.7616V19.6643H33.6616ZM31.7952 19.6643H31.6952V19.7643H31.7952V19.6643ZM31.7952 17.7978V17.6978H31.6952V17.7978H31.7952ZM24.3191 6.55184L24.4172 6.53256L24.2209 6.53297L24.3191 6.55184ZM25.0616 10.3321V10.4321H25.1831L25.1597 10.3128L25.0616 10.3321ZM23.5928 10.3321L23.4946 10.3132L23.4718 10.4321H23.5928V10.3321ZM23.3964 12.1985V12.0985H23.2964V12.1985H23.3964ZM25.2628 12.1985H25.3628V12.0985H25.2628V12.1985ZM25.2628 19.6643V19.7643H25.3628V19.6643H25.2628ZM23.3964 19.6643H23.2964V19.7643H23.3964V19.6643ZM12.1978 2.86644V2.76644H12.0978L12.0978 2.86644L12.1978 2.86644ZM16.8638 2.86644L16.9638 2.86643L16.9638 2.76644H16.8638V2.86644ZM16.8647 10.3322V10.4322H16.9647L16.9647 10.3322L16.8647 10.3322ZM12.1976 10.3322L12.0976 10.3322L12.0976 10.4322H12.1976V10.3322ZM11.2646 15.9314L11.2645 15.8314L11.1646 15.8315L11.1646 15.9314L11.2646 15.9314ZM13.131 14.0649L13.231 14.0651V14.0649H13.131ZM13.131 12.1985V12.0985H13.031V12.1985H13.131ZM15.9306 12.1985H16.0306V12.0985H15.9306V12.1985ZM15.9306 14.0649H15.8306V14.0651L15.9306 14.0649ZM17.7971 15.9314H17.8971V15.8315L17.7972 15.8314L17.7971 15.9314ZM17.7971 19.6643V19.7643H17.8971V19.6643H17.7971ZM11.2723 19.6643V19.5641L11.2666 19.5644L11.2723 19.6643ZM11.2645 19.6647L11.1645 19.6647L11.1645 19.7706L11.2702 19.7645L11.2645 19.6647ZM55.1178 29.9359L55.0178 29.9359V29.9359L55.1178 29.9359ZM55.0991 55.1336L55.0991 55.2336L55.199 55.2336L55.1991 55.1336L55.0991 55.1336ZM2.89214 55.1071L2.79214 55.1072L2.79222 55.2071L2.89209 55.2071L2.89214 55.1071ZM2.87346 29.9358L2.97346 29.9358V29.9358L2.87346 29.9358ZM5.33117 23.9927L5.40191 24.0634L5.40191 24.0634L5.33117 23.9927ZM11.2724 21.5306L11.2724 21.6306H11.2724V21.5306ZM52.6601 23.9927L52.5893 24.0634L52.6601 23.9927ZM36.11 27.1372L36.1103 27.0372H36.11V27.1372ZM36.1037 27.1372V27.0372H36.1034L36.1037 27.1372ZM31.8669 29.0009L31.9399 29.0692L31.9405 29.0686L31.8669 29.0009ZM28.9961 32.0703L28.9231 32.1386L28.9961 32.2167L29.0692 32.1386L28.9961 32.0703ZM26.1232 28.9982L26.0496 29.066L26.0501 29.0665L26.1232 28.9982ZM21.8886 27.1372L21.8888 27.0372H21.8886V27.1372ZM21.8823 27.1372V27.0372H21.882L21.8823 27.1372ZM17.6582 29L17.5846 28.9323L17.5844 28.9325L17.6582 29ZM17.6587 37.8627L17.5848 37.9302L17.5857 37.9311L17.6587 37.8627ZM28.3149 49.239L28.2419 49.3074L28.2419 49.3074L28.3149 49.239ZM29.6774 49.239L29.6044 49.1707L29.6044 49.1707L29.6774 49.239ZM40.3336 37.8627L40.4066 37.9311L40.4074 37.9302L40.3336 37.8627ZM40.3336 29L40.4074 28.9325L40.4073 28.9323L40.3336 29ZM38.9735 36.585L38.8994 36.5173L38.8941 36.5242L38.9735 36.585ZM38.9721 36.5869L39.0454 36.6556L39.0515 36.6477L38.9721 36.5869ZM28.9961 47.2358L28.9232 47.3042L28.9961 47.3821L29.0691 47.3042L28.9961 47.2358ZM19.0188 36.585L18.9449 36.6525L18.9458 36.6534L19.0188 36.585ZM19.0201 30.2758L19.0939 30.3433L19.0939 30.3433L19.0201 30.2758ZM21.884 29.0036V28.9036L21.8834 28.9036L21.884 29.0036ZM21.8881 29.0036L21.8885 28.9036H21.8881V29.0036ZM24.7619 30.2749L24.6883 30.3425L24.6889 30.3432L24.7619 30.2749ZM28.3144 34.0734L28.2413 34.1417L28.2435 34.144L28.3144 34.0734ZM29.6777 34.0734L29.7486 34.144L29.7507 34.1417L29.6777 34.0734ZM33.2278 30.2777L33.3008 30.346L33.3015 30.3452L33.2278 30.2777ZM36.104 29.0036V28.9036L36.1035 28.9036L36.104 29.0036ZM36.1081 29.0036L36.1087 28.9036H36.1081V29.0036ZM38.9715 30.2759L38.8977 30.3434L38.8978 30.3434L38.9715 30.2759ZM5.66584 29.9369L5.6658 30.0369H5.66584V29.9369ZM6.59889 30.8701L6.49889 30.8701V30.8701H6.59889ZM6.3256 30.2102L6.25485 30.2808L6.25487 30.2808L6.3256 30.2102ZM5.66584 45.8015L5.6658 45.9015H5.66589L5.66584 45.8015ZM6.59889 46.7348L6.49889 46.7348V46.7348H6.59889ZM6.3256 46.0748L6.25483 46.1455L6.25489 46.1455L6.3256 46.0748ZM56.2395 20.7842C56.7851 20.2432 57.092 19.5067 57.092 18.7383H56.892C56.892 19.4534 56.6064 20.1387 56.0986 20.6422L56.2395 20.7842ZM57.092 18.7378C57.0834 17.1367 55.7861 15.8417 54.185 15.8359L54.1843 16.0359C55.6756 16.0413 56.884 17.2475 56.892 18.7389L57.092 18.7378ZM54.1846 15.8359H54.1751V16.0359H54.1846V15.8359ZM54.1749 15.8359C53.4081 15.837 52.6737 16.1455 52.1361 16.6924L52.2788 16.8326C52.7788 16.3239 53.4619 16.0369 54.1752 16.0359L54.1749 15.8359ZM52.1368 16.6918L48.9634 19.8647L49.1048 20.0061L52.2782 16.8332L52.1368 16.6918ZM49.0568 19.8381C48.293 19.6596 47.5115 19.5678 46.7271 19.5645L46.7262 19.7645C47.4956 19.7678 48.2621 19.8577 49.0113 20.0328L49.0568 19.8381ZM46.8267 19.6645V10.5797H46.6267V19.6645H46.8267ZM46.8135 10.6293L50.4233 4.31207L50.2496 4.21284L46.6398 10.5301L46.8135 10.6293ZM50.4233 4.31213C50.4359 4.28998 50.4407 4.26812 50.4426 4.26008C50.4454 4.24829 50.4449 4.25199 50.4428 4.25626L50.2639 4.16681C50.2584 4.17794 50.2549 4.18822 50.2525 4.19619C50.2504 4.20358 50.2487 4.211 50.248 4.21416C50.2458 4.22344 50.2462 4.21881 50.2497 4.21278L50.4233 4.31213ZM50.4445 4.25259C50.473 4.18929 50.4949 4.12337 50.5098 4.05561L50.3145 4.01256C50.3026 4.06688 50.285 4.11971 50.2622 4.17048L50.4445 4.25259ZM50.5077 4.0636C50.5279 3.99828 50.5416 3.93105 50.5483 3.86269L50.3492 3.84325C50.3439 3.89785 50.3329 3.95182 50.3166 4.00458L50.5077 4.0636ZM50.5486 3.85891C50.5483 3.8633 50.547 3.8665 50.5505 3.85468C50.5529 3.84643 50.5595 3.82509 50.5595 3.79949H50.3595C50.3595 3.7929 50.3613 3.78896 50.3587 3.79803C50.3577 3.80115 50.3555 3.80847 50.3537 3.81594C50.3518 3.82402 50.3497 3.83464 50.3489 3.84703L50.5486 3.85891ZM50.5591 3.79005C50.553 3.72615 50.5431 3.66269 50.5291 3.60003L50.3339 3.64338C50.346 3.69791 50.3547 3.75319 50.36 3.80893L50.5591 3.79005ZM50.5297 3.60246C50.5279 3.59343 50.5272 3.5852 50.5252 3.56803C50.5235 3.5531 50.5209 3.5319 50.5143 3.5093L50.3223 3.56556C50.3238 3.57064 50.325 3.5774 50.3265 3.59061C50.3278 3.60157 50.3296 3.62163 50.3334 3.64095L50.5297 3.60246ZM50.5168 3.52028C50.4022 2.86189 49.8988 2.37561 49.2288 2.01635C48.5574 1.65636 47.7006 1.41361 46.8412 1.24919C45.1214 0.920135 43.3647 0.9 42.9938 0.9V1.1C43.3609 1.1 45.1026 1.12017 46.8036 1.44563C47.6547 1.60846 48.4888 1.84651 49.1343 2.19262C49.7812 2.53946 50.2205 2.98456 50.3198 3.55458L50.5168 3.52028ZM42.9938 0.9C42.6229 0.9 40.8662 0.920135 39.1464 1.2492C38.287 1.41363 37.4302 1.65639 36.7588 2.0164C36.0888 2.37567 35.5854 2.86198 35.4708 3.52039L35.6678 3.55469C35.7671 2.98464 36.2064 2.53952 36.8533 2.19266C37.4988 1.84654 38.3329 1.60848 39.184 1.44564C40.885 1.12017 42.6267 1.1 42.9938 1.1V0.9ZM35.4733 3.50941C35.4667 3.53203 35.4641 3.55328 35.4624 3.56819C35.4604 3.58538 35.4597 3.59357 35.458 3.6025L35.6542 3.64113C35.658 3.62182 35.6598 3.60171 35.6611 3.59075C35.6626 3.57751 35.6638 3.57074 35.6653 3.56567L35.4733 3.50941ZM35.4584 3.60014C35.4445 3.6628 35.4346 3.72626 35.4285 3.79016L35.6276 3.80904C35.6329 3.7533 35.6416 3.69802 35.6537 3.64349L35.4584 3.60014ZM35.4281 3.7996C35.4281 3.8252 35.4347 3.84654 35.4371 3.85479C35.4406 3.86661 35.4393 3.86341 35.439 3.85902L35.6387 3.84714C35.6379 3.83475 35.6358 3.82413 35.6339 3.81605C35.6321 3.80858 35.6299 3.80126 35.6289 3.79814C35.6263 3.78907 35.628 3.79301 35.628 3.7996H35.4281ZM35.4393 3.8628C35.446 3.93102 35.4595 3.99843 35.4799 4.06392L35.6709 4.00447C35.6546 3.95211 35.6437 3.89811 35.6384 3.84336L35.4393 3.8628ZM35.4778 4.05572C35.4927 4.12344 35.5145 4.1895 35.5431 4.25277L35.7254 4.17052C35.7026 4.11994 35.6851 4.06703 35.6731 4.01267L35.4778 4.05572ZM35.5447 4.25613C35.5426 4.25206 35.5422 4.24852 35.545 4.26026C35.5469 4.26835 35.5517 4.29013 35.5643 4.31225L35.7379 4.21289C35.7413 4.21889 35.7418 4.22349 35.7396 4.21429C35.7389 4.21114 35.7372 4.20375 35.7351 4.19638C35.7327 4.18843 35.7293 4.17823 35.7238 4.16717L35.5447 4.25613ZM35.5643 4.31218L39.1742 10.6294L39.3479 10.5302L35.7379 4.21295L35.5643 4.31218ZM39.161 10.5798V19.6643H39.361V10.5798H39.161ZM39.261 19.5643H35.5282V19.7643H39.261V19.5643ZM35.6282 19.6643V13.478H35.4282V19.6643H35.6282ZM35.6105 13.5348C36.2964 12.5404 36.631 11.3456 36.5612 10.1395L36.3615 10.1511C36.4288 11.3127 36.1065 12.4635 35.4458 13.4212L35.6105 13.5348ZM36.5613 10.1453C36.5613 8.80488 35.8375 7.54506 35.0857 6.59594C34.3319 5.64438 33.538 4.99015 33.3737 4.85889L33.2488 5.01513C33.4072 5.1417 34.1883 5.7852 34.9289 6.72012C35.6714 7.65748 36.3613 8.87288 36.3613 10.1453H36.5613ZM33.3739 4.85903C33.3504 4.84015 33.3259 4.8299 33.3125 4.82429C33.2959 4.81733 33.2932 4.81614 33.2908 4.81454L33.1806 4.98142C33.2024 4.99583 33.2259 5.00487 33.2353 5.00878C33.2478 5.01404 33.2491 5.0153 33.2487 5.01498L33.3739 4.85903ZM33.2892 4.81354C33.1776 4.74273 33.0546 4.69191 32.9256 4.66327L32.8822 4.85852C32.9887 4.88213 33.09 4.92403 33.1821 4.98243L33.2892 4.81354ZM32.9215 4.66245C32.6603 4.61587 32.3914 4.66982 32.1684 4.8132L32.2765 4.98143C32.4571 4.8653 32.6749 4.82163 32.8863 4.85934L32.9215 4.66245ZM32.1678 4.81359C32.1649 4.81545 32.1618 4.81677 32.1449 4.82386C32.1312 4.82958 32.1066 4.83992 32.083 4.85884L32.208 5.01495C32.2079 5.01509 32.2094 5.01369 32.2221 5.00835C32.2316 5.00437 32.2553 4.9953 32.2771 4.98104L32.1678 4.81359ZM32.0831 4.85879C31.9188 4.99009 31.1249 5.64433 30.3711 6.59587C29.6193 7.54497 28.8955 8.80477 28.8955 10.1452H29.0955C29.0955 8.87277 29.7854 7.6574 30.5279 6.72005C31.2685 5.78514 32.0495 5.14165 32.208 5.015L32.0831 4.85879ZM28.8956 10.1394C28.8259 11.3454 29.1605 12.5402 29.8463 13.5346L30.0109 13.421C29.3504 12.4632 29.0281 11.3125 29.0953 10.151L28.8956 10.1394ZM29.8286 13.4778V19.6641H30.0286V13.4778H29.8286ZM29.9286 19.5641H27.129V19.7641H29.9286V19.5641ZM27.229 19.6641V11.2653H27.029V19.6641H27.229ZM27.228 11.2509C27.2231 11.2175 27.2164 11.1847 27.2083 11.1527L27.0144 11.2017C27.021 11.2277 27.0263 11.2538 27.0301 11.2798L27.228 11.2509ZM27.2112 11.183C27.2132 11.1489 27.2133 11.1149 27.2117 11.081L27.0119 11.0905C27.0132 11.1176 27.0131 11.1445 27.0115 11.1713L27.2112 11.183ZM27.2099 11.0665L26.2384 6.12694L26.0422 6.16554L27.0137 11.1051L27.2099 11.0665ZM26.2373 6.12204C26.0166 5.23727 25.2164 4.62028 24.3046 4.63199L24.3071 4.83198C25.1262 4.82145 25.845 5.37567 26.0432 6.17044L26.2373 6.12204ZM24.3046 4.63199C23.3927 4.64371 22.6086 5.28084 22.4105 6.17099L22.6057 6.21443C22.7837 5.41482 23.4881 4.8425 24.3071 4.83198L24.3046 4.63199ZM22.41 6.17344L21.4489 11.0664L21.6452 11.1049L22.6063 6.21199L22.41 6.17344ZM21.4472 11.0809C21.4456 11.1148 21.4457 11.1488 21.4477 11.1829L21.6473 11.1712C21.6458 11.1444 21.6457 11.1175 21.6469 11.0904L21.4472 11.0809ZM21.4506 11.1522C21.4423 11.1847 21.4357 11.2176 21.4309 11.2508L21.6288 11.2797C21.6326 11.2535 21.6378 11.2275 21.6444 11.2019L21.4506 11.1522ZM21.4298 11.2652V19.6641H21.6298V11.2652H21.4298ZM21.5298 19.5641H19.6634V19.7641H21.5298V19.5641ZM19.7634 19.6641V15.9313H19.5634V19.6641H19.7634ZM19.7634 15.9312C19.7621 14.8457 18.8825 13.9661 17.7971 13.9648L17.7968 14.1648C18.772 14.166 19.5622 14.9562 19.5634 15.9314L19.7634 15.9312ZM17.897 14.0648V11.9389H17.697V14.0648H17.897ZM17.8468 12.0256C18.4531 11.677 18.8279 11.0318 18.8301 10.3324L18.6301 10.3318C18.6281 10.9598 18.2916 11.5392 17.7471 11.8522L17.8468 12.0256ZM18.8301 10.3321V2.86644H18.6301V10.3321H18.8301ZM18.8301 2.86634C18.8291 1.78084 17.9494 0.901289 16.864 0.9L16.8638 1.1C17.8389 1.10116 18.6292 1.89136 18.6301 2.86653L18.8301 2.86634ZM16.8639 0.9H12.1979V1.1H16.8639V0.9ZM12.1977 0.9C11.1123 0.901289 10.2327 1.78085 10.2314 2.86632L10.4314 2.86656C10.4326 1.89135 11.2228 1.10116 12.198 1.1L12.1977 0.9ZM10.2314 2.86644V10.3322H10.4314V2.86644H10.2314ZM10.2314 10.3325C10.2338 11.0319 10.6084 11.6771 11.2148 12.0257L11.3144 11.8523C10.77 11.5393 10.4335 10.96 10.4314 10.3319L10.2314 10.3325ZM11.1646 11.939V14.0651H11.3646V11.939H11.1646ZM11.2645 13.9651C10.179 13.9663 9.29944 14.8459 9.29815 15.9314L9.49816 15.9316C9.49931 14.9564 10.2895 14.1662 11.2647 14.1651L11.2645 13.9651ZM9.29815 15.9315V19.8403H9.49816V15.9315H9.29815ZM9.37998 19.7419C4.46513 20.6505 0.900628 24.9399 0.907028 29.9381L1.10703 29.9378C1.10075 25.0362 4.59641 20.8296 9.41633 19.9386L9.37998 19.7419ZM0.907028 29.938L0.926151 55.0826L1.12615 55.0825L1.10703 29.9379L0.907028 29.938ZM0.926189 55.0798C0.911546 55.6105 1.11221 56.1246 1.4825 56.505L1.62583 56.3656C1.29321 56.0238 1.11296 55.5621 1.12611 55.0853L0.926189 55.0798ZM1.4825 56.505C1.85278 56.8855 2.36117 57.1001 2.89217 57.1L2.89212 56.9C2.41513 56.9001 1.95845 56.7073 1.62583 56.3656L1.4825 56.505ZM2.89214 57.1H55.0991V56.9H2.89214V57.1ZM55.0991 57.1C55.6252 57.1001 56.1293 56.8895 56.4989 56.515L56.3566 56.3745C56.0246 56.7109 55.5717 56.9001 55.0991 56.9L55.0991 57.1ZM56.4989 56.515C56.8685 56.1406 57.0726 55.6336 57.0655 55.1075L56.8656 55.1102C56.8719 55.5828 56.6886 56.0382 56.3566 56.3745L56.4989 56.515ZM57.0656 55.109L57.0842 29.9378L56.8842 29.9376L56.8656 55.1088L57.0656 55.109ZM57.0842 29.938C57.0919 27.2431 56.0422 24.6526 54.1608 22.7231L54.0176 22.8628C55.8625 24.7547 56.8917 27.2949 56.8842 29.9374L57.0842 29.938ZM54.16 22.8637L56.2397 20.7839L56.0983 20.6425L54.0185 22.7222L54.16 22.8637ZM53.6032 18.1474C53.7554 17.9914 53.9639 17.9031 54.1817 17.9024L54.1811 17.7024C53.9095 17.7032 53.6497 17.8133 53.4601 18.0077L53.6032 18.1474ZM54.1814 17.9024H54.1842V17.7024H54.1814V17.9024ZM54.1854 17.9024C54.524 17.8982 54.8312 18.1001 54.9616 18.4126L55.1462 18.3356C54.9843 17.9478 54.6031 17.6972 54.183 17.7024L54.1854 17.9024ZM54.9616 18.4126C55.092 18.7251 55.0194 19.0855 54.7783 19.3232L54.9187 19.4656C55.2179 19.1706 55.308 18.7234 55.1462 18.3356L54.9616 18.4126ZM54.7778 19.3237L52.5982 21.5033L52.7396 21.6448L54.9192 19.4651L54.7778 19.3237ZM52.727 21.4927C52.1981 21.1146 51.6345 20.7876 51.0437 20.5161L50.9601 20.6978C51.5394 20.964 52.0921 21.2846 52.6107 21.6554L52.727 21.4927ZM51.0726 20.6777L53.6024 18.1483L53.4609 18.0068L50.9312 20.5363L51.0726 20.6777ZM37.598 3.89718C37.8836 3.71278 38.4899 3.47913 39.402 3.29191C40.3111 3.10533 41.5162 2.96644 42.9938 2.96644V2.76644C41.504 2.76644 40.2853 2.90645 39.3618 3.096C38.4414 3.28491 37.8064 3.52463 37.4896 3.72915L37.598 3.89718ZM42.9938 2.96644C44.4714 2.96644 45.6765 3.10533 46.5856 3.29191C47.4977 3.47913 48.1039 3.71278 48.3895 3.89718L48.498 3.72915C48.1812 3.52463 47.5462 3.28491 46.6258 3.096C45.7023 2.90645 44.4836 2.76644 42.9938 2.76644V2.96644ZM48.357 3.76355L45.1652 9.3493L45.3389 9.44852L48.5306 3.86278L48.357 3.76355ZM45.252 9.29891H40.7357V9.49891H45.252V9.29891ZM40.8225 9.3493L37.6306 3.76355L37.457 3.86278L40.6488 9.44852L40.8225 9.3493ZM41.2274 13.1318V11.2653H41.0274V13.1318H41.2274ZM41.1274 11.3653H44.8602V11.1653H41.1274V11.3653ZM44.7602 11.2653V13.1318H44.9602V11.2653H44.7602ZM44.8602 13.0318H41.1274V13.2318H44.8602V13.0318ZM44.7602 14.9982V19.6643H44.9602V14.9982H44.7602ZM44.8602 19.5643H41.1274V19.7643H44.8602V19.5643ZM41.2274 19.6643V14.9982H41.0274V19.6643H41.2274ZM41.1274 15.0982H44.8602V14.8982H41.1274V15.0982ZM30.962 10.1453C30.962 9.6048 31.2172 9.01453 31.5804 8.45498C31.9421 7.89761 32.4034 7.38239 32.7985 6.99467L32.6584 6.85192C32.2569 7.24594 31.7849 7.77251 31.4126 8.3461C31.0417 8.91751 30.762 9.54736 30.762 10.1453H30.962ZM32.6584 6.99467C33.0535 7.38239 33.5148 7.89761 33.8765 8.45498C34.2397 9.01453 34.4949 9.6048 34.4949 10.1453H34.6949C34.6949 9.54736 34.4152 8.91751 34.0443 8.3461C33.672 7.77251 33.2 7.24594 32.7985 6.85192L32.6584 6.99467ZM34.495 10.1507C34.533 10.8449 34.3821 11.5366 34.0587 12.152L34.2358 12.245C34.5759 11.5976 34.7346 10.8701 34.6947 10.1398L34.495 10.1507ZM34.1473 12.0985H31.3095V12.2985H34.1473V12.0985ZM31.3981 12.152C31.0748 11.5365 30.924 10.8449 30.9619 10.1507L30.7622 10.1398C30.7224 10.8701 30.8809 11.5975 31.221 12.245L31.3981 12.152ZM31.8953 15.9314V14.0649H31.6953V15.9314H31.8953ZM31.7953 14.1649H33.6617V13.9649H31.7953V14.1649ZM33.5617 14.0649V15.9314H33.7617V14.0649H33.5617ZM33.6617 15.8314H31.7953V16.0314H33.6617V15.8314ZM33.5616 17.7978V19.6643H33.7616V17.7978H33.5616ZM33.6616 19.5643H31.7952V19.7643H33.6616V19.5643ZM31.8952 19.6643V17.7978H31.6952V19.6643H31.8952ZM31.7952 17.8978H33.6616V17.6978H31.7952V17.8978ZM24.221 6.57111L24.9634 10.3513L25.1597 10.3128L24.4172 6.53256L24.221 6.57111ZM25.0616 10.2321H23.5928V10.4321H25.0616V10.2321ZM23.691 10.3509L24.4173 6.5707L24.2209 6.53297L23.4946 10.3132L23.691 10.3509ZM23.3964 12.2985H25.2628V12.0985H23.3964V12.2985ZM25.1628 12.1985V19.6643H25.3628V12.1985H25.1628ZM25.2628 19.5643H23.3964V19.7643H25.2628V19.5643ZM23.4964 19.6643V12.1985H23.2964V19.6643H23.4964ZM12.1978 2.96644H16.8638V2.76644H12.1978V2.96644ZM16.7638 2.86645L16.7647 10.3322L16.9647 10.3322L16.9638 2.86643L16.7638 2.86645ZM16.8647 10.2322H12.1976V10.4322H16.8647V10.2322ZM12.2976 10.3322L12.2978 2.86644L12.0978 2.86644L12.0976 10.3322L12.2976 10.3322ZM11.2647 16.0314C12.3502 16.0301 13.2297 15.1505 13.231 14.0651L13.031 14.0648C13.0299 15.04 12.2397 15.8302 11.2645 15.8314L11.2647 16.0314ZM13.231 14.0649V12.1985H13.031V14.0649H13.231ZM13.131 12.2985H15.9306V12.0985H13.131V12.2985ZM15.8306 12.1985V14.0649H16.0306V12.1985H15.8306ZM15.8306 14.0651C15.8319 15.1505 16.7115 16.0301 17.7969 16.0314L17.7972 15.8314C16.822 15.8302 16.0318 15.04 16.0306 14.0648L15.8306 14.0651ZM17.6971 15.9314V19.6643H17.8971V15.9314H17.6971ZM17.7971 19.5643H11.2723V19.7643H17.7971V19.5643ZM11.2666 19.5644L11.2588 19.5649L11.2702 19.7645L11.278 19.7641L11.2666 19.5644ZM11.3645 19.6647L11.3646 15.9314L11.1646 15.9314L11.1645 19.6647L11.3645 19.6647ZM55.0178 29.9359L54.9991 55.1335L55.1991 55.1336L55.2178 29.936L55.0178 29.9359ZM55.0992 55.0336L2.89219 55.0071L2.89209 55.2071L55.0991 55.2336L55.0992 55.0336ZM2.99214 55.107L2.97346 29.9358L2.77346 29.9359L2.79214 55.1072L2.99214 55.107ZM2.97346 29.9358C2.97171 27.7336 3.84531 25.6211 5.40191 24.0634L5.26044 23.9221C3.66632 25.5173 2.77166 27.6807 2.77346 29.9359L2.97346 29.9358ZM5.40191 24.0634C6.9584 22.5057 9.07035 21.6305 11.2724 21.6306L11.2724 21.4306C9.01728 21.4305 6.85444 22.3268 5.26044 23.9221L5.40191 24.0634ZM11.2724 21.6306H46.7189V21.4306H11.2724V21.6306ZM46.7189 21.6306C48.921 21.6306 51.0329 22.5057 52.5893 24.0634L52.7308 23.9221C51.1368 22.3268 48.9741 21.4306 46.7189 21.4306V21.6306ZM52.5893 24.0634C54.146 25.6212 55.0196 27.7337 55.0178 29.9359L55.2178 29.936C55.2196 27.6808 54.3249 25.5174 52.7308 23.9221L52.5893 24.0634ZM36.11 27.0372H36.1037V27.2372H36.11V27.0372ZM36.1034 27.0372C34.4653 27.0407 32.9029 27.728 31.7933 28.9331L31.9405 29.0686C33.0123 27.9044 34.5215 27.2406 36.1039 27.2372L36.1034 27.0372ZM31.7939 28.9326L28.9231 32.002L29.0692 32.1386L31.9399 29.0692L31.7939 28.9326ZM29.0692 32.002L26.1962 28.9299L26.0501 29.0665L28.9231 32.1386L29.0692 32.002ZM26.1967 28.9304C25.0872 27.7267 23.5259 27.0406 21.8888 27.0372L21.8884 27.2372C23.4697 27.2405 24.9779 27.9032 26.0496 29.066L26.1967 28.9304ZM21.8886 27.0372H21.8823V27.2372H21.8886V27.0372ZM21.882 27.0372C20.2478 27.0417 18.6899 27.7288 17.5846 28.9323L17.7319 29.0676C18.7995 27.9052 20.3042 27.2416 21.8826 27.2372L21.882 27.0372ZM17.5844 28.9325C15.2558 31.4798 15.256 35.3832 17.5849 37.9302L17.7325 37.7953C15.4734 35.3246 15.4732 31.5383 17.732 29.0674L17.5844 28.9325ZM17.5857 37.9311L28.2419 49.3074L28.3879 49.1707L17.7316 37.7944L17.5857 37.9311ZM28.2419 49.3074C28.4373 49.5159 28.7103 49.6343 28.9961 49.6343V49.4343C28.7656 49.4343 28.5455 49.3388 28.3879 49.1707L28.2419 49.3074ZM28.9961 49.6343C29.282 49.6343 29.555 49.516 29.7504 49.3074L29.6044 49.1707C29.4468 49.3389 29.2267 49.4343 28.9961 49.4343V49.6343ZM29.7503 49.3074L40.4066 37.9311L40.2607 37.7944L29.6044 49.1707L29.7503 49.3074ZM40.4074 37.9302C42.7362 35.383 42.7362 31.4797 40.4074 28.9325L40.2598 29.0674C42.5187 31.5382 42.5187 35.3245 40.2598 37.7953L40.4074 37.9302ZM40.4073 28.9323C39.3022 27.7287 37.7443 27.0416 36.1103 27.0372L36.1097 27.2372C37.688 27.2415 39.1926 27.9051 40.26 29.0676L40.4073 28.9323ZM38.8941 36.5242L38.8927 36.5261L39.0515 36.6477L39.0529 36.6458L38.8941 36.5242ZM38.8991 36.5185L28.9232 47.1675L29.0691 47.3042L39.0451 36.6553L38.8991 36.5185ZM29.0691 47.1675L19.0917 36.5167L18.9458 36.6534L28.9232 47.3042L29.0691 47.1675ZM19.0926 36.5176C17.495 34.7693 17.4955 32.0908 19.0939 30.3433L18.9463 30.2083C17.2781 32.0322 17.2775 34.8278 18.9449 36.6525L19.0926 36.5176ZM19.0939 30.3433C19.8107 29.5592 20.8223 29.1098 21.8845 29.1036L21.8834 28.9036C20.7653 28.9101 19.7007 29.3831 18.9463 30.2083L19.0939 30.3433ZM21.884 29.1036H21.8881V28.9036H21.884V29.1036ZM21.8876 29.1036C22.9529 29.1086 23.9679 29.5576 24.6883 30.3425L24.8356 30.2073C24.0776 29.3814 23.0095 28.9089 21.8885 28.9036L21.8876 29.1036ZM24.6889 30.3432L28.2413 34.1417L28.3874 34.0051L24.835 30.2066L24.6889 30.3432ZM28.2435 34.144C28.4429 34.3439 28.7136 34.4563 28.996 34.4563V34.2563C28.7668 34.2563 28.547 34.1651 28.3852 34.0028L28.2435 34.144ZM28.996 34.4563C29.2784 34.4563 29.5492 34.3439 29.7485 34.144L29.6069 34.0028C29.4451 34.1651 29.2253 34.2563 28.996 34.2563V34.4563ZM29.7507 34.1417L33.3008 30.346L33.1548 30.2094L29.6047 34.0051L29.7507 34.1417ZM33.3015 30.3452C34.0219 29.5589 35.038 29.1088 36.1045 29.1036L36.1035 28.9036C34.9813 28.9091 33.9121 29.3827 33.1541 30.2101L33.3015 30.3452ZM36.104 29.1036H36.1081V28.9036H36.104V29.1036ZM36.1075 29.1036C37.1698 29.1098 38.1811 29.5592 38.8977 30.3434L39.0453 30.2085C38.2912 29.3831 37.2267 28.9101 36.1087 28.9036L36.1075 29.1036ZM38.8978 30.3434C40.4966 32.0907 40.4974 34.7693 38.8997 36.5176L39.0473 36.6525C40.7149 34.8278 40.7141 32.0321 39.0453 30.2084L38.8978 30.3434ZM5.66589 29.8369C5.39183 29.8367 5.1289 29.9457 4.93515 30.1394L5.07657 30.2809C5.23282 30.1246 5.44486 30.0368 5.6658 30.0369L5.66589 29.8369ZM4.93515 30.1394C4.74138 30.3332 4.63257 30.596 4.63257 30.8701H4.83257C4.83257 30.649 4.92033 30.4371 5.07657 30.2809L4.93515 30.1394ZM4.63257 30.8701V43.0018H4.83257V30.8701H4.63257ZM4.63257 43.0018C4.63257 43.5725 5.09517 44.035 5.66573 44.035V43.835C5.20562 43.835 4.83257 43.462 4.83257 43.0018H4.63257ZM5.66573 44.035C6.23629 44.035 6.69889 43.5724 6.69889 43.0018H6.49889C6.49889 43.4619 6.12584 43.835 5.66573 43.835V44.035ZM6.69889 43.0018V30.8701H6.49889V43.0018H6.69889ZM6.69889 30.8702C6.69902 30.5961 6.59005 30.3333 6.39634 30.1395L6.25487 30.2808C6.41116 30.4372 6.49899 30.6492 6.49889 30.8701L6.69889 30.8702ZM6.39636 30.1395C6.20278 29.9457 5.93982 29.8369 5.66584 29.8369V30.0369C5.88685 30.0369 6.09887 30.1246 6.25485 30.2808L6.39636 30.1395ZM5.66589 45.7015C5.39183 45.7014 5.1289 45.8104 4.93515 46.0041L5.07657 46.1455C5.23282 45.9893 5.44486 45.9014 5.6658 45.9015L5.66589 45.7015ZM4.93515 46.0041C4.74138 46.1979 4.63257 46.4607 4.63257 46.7348H4.83257C4.83257 46.5137 4.92033 46.3018 5.07657 46.1455L4.93515 46.0041ZM4.63257 46.7348V50.4677H4.83257V46.7348H4.63257ZM4.63257 50.4677C4.63257 51.0384 5.09517 51.5009 5.66573 51.5009V51.3009C5.20562 51.3009 4.83257 50.9279 4.83257 50.4677H4.63257ZM5.66573 51.5009C6.23629 51.5009 6.69889 51.0383 6.69889 50.4677H6.49889C6.49889 50.9278 6.12584 51.3009 5.66573 51.3009V51.5009ZM6.69889 50.4677V46.7348H6.49889V50.4677H6.69889ZM6.69889 46.7349C6.69902 46.4608 6.59007 46.1979 6.39632 46.0041L6.25489 46.1455C6.41115 46.3018 6.49899 46.5138 6.49889 46.7348L6.69889 46.7349ZM6.39638 46.0042C6.2028 45.8102 5.93981 45.7014 5.6658 45.7015L5.66589 45.9015C5.88686 45.9014 6.09885 45.9892 6.25483 46.1455L6.39638 46.0042Z" fill="black" mask="url(#path-1-outside-1)"/>
</svg>
