<svg width="53" height="57" viewBox="0 0 53 57" fill="none" xmlns="http://www.w3.org/2000/svg">
<path d="M20.9336 9.24022C20.3191 9.24022 19.8203 9.73897 19.8203 10.3535C19.8203 10.968 20.3191 11.4668 20.9336 11.4668C21.5481 11.4668 22.0469 10.968 22.0469 10.3535C22.0469 9.73897 21.5481 9.24022 20.9336 9.24022Z" fill="white"/>
<path d="M32.0664 9.24022C31.4519 9.24022 30.9531 9.73897 30.9531 10.3535C30.9531 10.968 31.4519 11.4668 32.0664 11.4668C32.6809 11.4668 33.1797 10.968 33.1797 10.3535C33.1797 9.73897 32.6809 9.24022 32.0664 9.24022Z" fill="white"/>
<path d="M50.6719 33.274C51.6274 31.8398 52.1055 30.0505 52.1055 28.5C52.1055 26.1625 51.0671 23.9909 49.2853 22.5182C49.6796 21.5759 49.8789 20.5959 49.8789 19.5937C49.8789 16.4927 48.0692 13.6039 45.3785 12.255C45.7867 8.86905 43.5804 5.76545 40.3108 4.97379C39.0311 2.01547 36.1828 -1.52588e-05 33.1797 -1.52588e-05C30.3842 -1.52588e-05 27.877 1.6305 26.5 4.00958C25.1229 1.6305 22.6157 -1.52588e-05 19.8203 -1.52588e-05C16.817 -1.52588e-05 13.9687 2.01547 12.6892 4.9739C9.4 5.77057 7.21441 8.88965 7.62153 12.255C4.93096 13.6038 3.12109 16.4927 3.12109 19.5937C3.12109 20.5959 3.32037 21.5759 3.7147 22.5182C1.93289 23.991 0.894531 26.1625 0.894531 28.5C0.894531 30.0586 1.37658 31.8456 2.3281 33.2738C1.39829 34.5864 0.894531 36.142 0.894531 37.7402C0.894531 39.8127 1.73484 41.787 3.22118 43.253C2.45702 47.8722 6.14087 52.5469 10.9141 52.5469C10.9486 52.5469 10.9825 52.5463 11.0158 52.5453C12.5983 55.2753 15.5358 57 18.707 57C22.0121 57 24.9655 55.0161 26.5 52.1579C28.0345 55.0161 30.9879 57 34.293 57C37.4641 57 40.4017 55.2753 41.9842 52.5453C42.0176 52.5463 42.0514 52.5469 42.0859 52.5469C46.3102 52.5469 49.8789 48.8252 49.8789 44.4199C49.8789 44.0448 49.846 43.6591 49.7788 43.253C51.2652 41.787 52.1055 39.8128 52.1055 37.7402C52.1055 36.142 51.6017 34.5864 50.6719 33.274ZM25.3867 16.8529C24.7312 16.4728 23.971 16.2539 23.1602 16.2539C22.5453 16.2539 22.0469 16.7523 22.0469 17.3672C22.0469 17.982 22.5453 18.4805 23.1602 18.4805C24.3879 18.4805 25.3867 19.4793 25.3867 20.707V41.8782C23.7534 40.0256 21.3652 38.8535 18.707 38.8535C18.0922 38.8535 17.5938 39.3519 17.5938 39.9668C17.5938 40.5816 18.0922 41.0801 18.707 41.0801C22.3902 41.0801 25.3867 44.0766 25.3867 47.7598C25.3867 51.5615 22.3278 54.7734 18.707 54.7734C16.1296 54.7734 13.7568 53.2492 12.662 50.8903C12.4602 50.4556 12.0031 50.1992 11.5265 50.2528C11.4478 50.2619 11.3695 50.2723 11.2912 50.283C8.12284 50.7163 4.55478 47.1285 5.52066 43.1149C5.61985 42.7027 5.47624 42.27 5.15038 41.9989C3.86076 40.9258 3.12109 39.3735 3.12109 37.7402C3.12109 36.7304 3.40665 35.7421 3.93802 34.8755C5.27329 35.9699 6.93419 36.6269 8.6875 36.6269C9.30237 36.6269 9.80078 36.1285 9.80078 35.5137C9.80078 34.8988 9.30237 34.4004 8.6875 34.4004C5.66617 34.4004 3.12109 31.6428 3.12109 28.5C3.12109 26.5935 4.09288 24.8396 5.72083 23.8084C6.22236 23.4907 6.38635 22.8353 6.09344 22.3188C5.59859 21.4461 5.34766 20.5292 5.34766 19.5937C5.34766 16.589 7.7971 13.6933 10.9141 13.6933C13.8794 13.6933 16.4805 16.4506 16.4805 19.5937C16.4805 20.2086 16.9789 20.707 17.5938 20.707C18.2086 20.707 18.707 20.2086 18.707 19.5937C18.707 15.1885 15.1383 11.4668 10.9141 11.4668C10.5413 11.4668 10.1706 11.497 9.80357 11.5541C9.80301 11.5248 9.80078 11.4963 9.80078 11.4668C9.80078 8.98227 11.8177 7.01366 14.2539 7.01366C15.4431 7.01366 16.5617 7.47689 17.4036 8.31787C17.8386 8.75238 18.5434 8.75193 18.978 8.31709C19.4125 7.88202 19.4122 7.1772 18.9772 6.74268C17.9616 5.72815 16.677 5.08111 15.2848 4.86669C16.2666 3.4093 17.8992 2.22655 19.8203 2.22655C22.7856 2.22655 25.3867 4.9837 25.3867 8.12694V16.8529ZM44.3125 36.6269C46.0659 36.6269 47.7268 35.9698 49.0621 34.8759C49.5933 35.7423 49.8789 36.7305 49.8789 37.7402C49.8789 39.3735 49.1392 40.9258 47.8497 41.9989C47.5238 42.27 47.3803 42.7028 47.4795 43.1149C47.5975 43.6051 47.6523 44.0198 47.6523 44.4198C47.6523 47.8754 44.5268 50.6682 41.7089 50.283C41.6306 50.2723 41.5522 50.2617 41.4735 50.2528C40.9963 50.1988 40.5397 50.4556 40.3381 50.8903C39.2433 53.2492 36.8703 54.7734 34.293 54.7734C30.6722 54.7734 27.6133 51.5615 27.6133 47.7598C27.6133 44.0766 30.6098 41.0801 34.293 41.0801C34.9077 41.0801 35.4062 40.5816 35.4062 39.9668C35.4062 39.3519 34.9077 38.8535 34.293 38.8535C31.6348 38.8535 29.2466 40.0256 27.6133 41.8782V20.707C27.6133 19.4793 28.6121 18.4805 29.8398 18.4805C30.4546 18.4805 30.9531 17.982 30.9531 17.3672C30.9531 16.7523 30.4546 16.2539 29.8398 16.2539C29.029 16.2539 28.2688 16.4728 27.6133 16.8529V8.12694C27.6133 4.9837 30.2144 2.22655 33.1797 2.22655C35.1008 2.22655 36.7333 3.4093 37.7151 4.86658C36.323 5.081 35.0385 5.72804 34.0228 6.74257C33.5877 7.17709 33.5873 7.8819 34.0218 8.31697C34.4563 8.75204 35.1613 8.75238 35.5962 8.31787C36.4384 7.47689 37.5569 7.01366 38.7461 7.01366C41.1945 7.01366 43.1992 8.99385 43.1992 11.4668C43.1992 11.4962 43.197 11.5248 43.1964 11.5541C42.8294 11.497 42.4587 11.4668 42.0859 11.4668C37.8617 11.4668 34.293 15.1885 34.293 19.5937C34.293 20.2086 34.7915 20.707 35.4062 20.707C36.021 20.707 36.5195 20.2086 36.5195 19.5937C36.5195 16.4506 39.1206 13.6933 42.0859 13.6933C45.2011 13.6933 47.6523 16.5875 47.6523 19.5937C47.6523 20.5292 47.4014 21.4461 46.9066 22.3188C46.6138 22.8353 46.7777 23.4907 47.2793 23.8084C48.9071 24.8396 49.8789 26.5935 49.8789 28.5C49.8789 31.654 47.3249 34.4004 44.3125 34.4004C43.6977 34.4004 43.1992 34.8988 43.1992 35.5137C43.1992 36.1285 43.6977 36.6269 44.3125 36.6269Z" fill="white"/>
<path d="M42.9157 23.8301C42.5058 23.3719 41.8021 23.3327 41.3437 23.7426C37.7737 26.936 32.0664 24.3839 32.0664 19.5937C32.0664 18.9789 31.568 18.4805 30.9532 18.4805C30.3383 18.4805 29.8399 18.9789 29.8399 19.5937C29.8399 23.4585 32.6684 26.6736 36.3637 27.2817C35.9351 28.6319 34.67 29.6133 33.1797 29.6133C32.5648 29.6133 32.0664 30.1117 32.0664 30.7265C32.0664 31.3414 32.5648 31.8398 33.1797 31.8398C35.8913 31.8398 38.155 29.8905 38.6461 27.3197C40.1944 27.1172 41.6516 26.4547 42.8282 25.4021C43.2864 24.9921 43.3256 24.2883 42.9157 23.8301Z" fill="white"/>
<path d="M35.4062 43.3066C34.7914 43.3066 34.293 43.805 34.293 44.4199C34.293 45.0348 34.7914 45.5332 35.4062 45.5332C38.3716 45.5332 40.9727 48.2905 40.9727 51.4336C40.9727 52.0484 41.4711 52.5469 42.0859 52.5469C42.7008 52.5469 43.1992 52.0484 43.1992 51.4336C43.1992 47.0283 39.6305 43.3066 35.4062 43.3066Z" fill="white"/>
<path d="M40.9283 34.4004C37.1559 34.4004 33.9169 36.4694 32.2113 39.4778C31.9082 40.0128 32.096 40.6922 32.6308 40.9953C33.1658 41.2985 33.8451 41.1108 34.1483 40.5759C35.477 38.2317 37.9982 36.6269 40.9283 36.6269C41.5432 36.6269 42.0416 36.1285 42.0416 35.5137C42.0416 34.8988 41.5432 34.4004 40.9283 34.4004Z" fill="white"/>
<path d="M19.8203 29.6133C18.3301 29.6133 17.0649 28.6319 16.6363 27.2817C20.3316 26.6736 23.1602 23.4585 23.1602 19.5937C23.1602 18.9789 22.6616 18.4805 22.0469 18.4805C21.4321 18.4805 20.9336 18.9789 20.9336 19.5937C20.9336 22.6631 18.4365 25.1601 15.3672 25.1601C13.9961 25.1601 12.6783 24.6567 11.6563 23.7426C11.1982 23.3327 10.4942 23.3718 10.0843 23.8301C9.67432 24.2883 9.71362 24.9921 10.1718 25.4021C11.3485 26.4547 12.8058 27.1172 14.3539 27.3197C14.8451 29.8905 17.1087 31.8398 19.8203 31.8398C20.4351 31.8398 20.9336 31.3414 20.9336 30.7265C20.9336 30.1117 20.4351 29.6133 19.8203 29.6133Z" fill="white"/>
<path d="M17.5938 43.3066C13.3695 43.3066 9.80078 47.0283 9.80078 51.4336C9.80078 52.0484 10.2993 52.5469 10.9141 52.5469C11.5288 52.5469 12.0273 52.0484 12.0273 51.4336C12.0273 48.2905 14.6284 45.5332 17.5938 45.5332C18.2085 45.5332 18.707 45.0348 18.707 44.4199C18.707 43.805 18.2085 43.3066 17.5938 43.3066Z" fill="white"/>
<path d="M20.7887 39.4779C19.0874 36.4766 15.8529 34.4004 12.0717 34.4004C11.457 34.4004 10.9585 34.8988 10.9585 35.5137C10.9585 36.1285 11.457 36.6269 12.0717 36.6269C14.9998 36.6269 17.5228 38.2313 18.8515 40.5759C19.1551 41.1115 19.835 41.2983 20.369 40.9955C20.904 40.6923 21.0918 40.0129 20.7887 39.4779Z" fill="white"/>
</svg>
