<svg width="36" height="59" viewBox="0 0 36 59" fill="none" xmlns="http://www.w3.org/2000/svg">
<mask id="path-1-outside-1" maskUnits="userSpaceOnUse" x="0" y="0" width="36" height="59" fill="black">
<rect fill="white" width="36" height="59"/>
<path d="M20.7167 20.9994C20.3278 20.6929 19.7569 20.7508 19.4415 21.1285C19.0558 21.5905 18.5439 21.8449 17.9999 21.8449C17.4559 21.8449 16.9439 21.5905 16.5583 21.1285C16.243 20.7508 15.672 20.693 15.2831 20.9994C14.8942 21.3058 14.8347 21.8604 15.1501 22.2382C15.8759 23.1076 16.9146 23.6063 17.9998 23.6063C19.085 23.6063 20.1236 23.1076 20.8497 22.2382C21.1651 21.8603 21.1056 21.3058 20.7167 20.9994Z"/>
<path d="M13.7083 15.5913C13.2076 15.5913 12.8016 15.9856 12.8016 16.472V17.5143C12.8016 18.0007 13.2076 18.395 13.7083 18.395C14.209 18.395 14.6149 18.0007 14.6149 17.5143V16.472C14.6149 15.9857 14.209 15.5913 13.7083 15.5913Z"/>
<path d="M22.2913 15.5913C21.7906 15.5913 21.3846 15.9856 21.3846 16.472V17.5143C21.3846 18.0007 21.7906 18.395 22.2913 18.395C22.792 18.395 23.1979 18.0007 23.1979 17.5143V16.472C23.1979 15.9857 22.792 15.5913 22.2913 15.5913Z"/>
<path fill-rule="evenodd" clip-rule="evenodd" d="M30.7787 31.2623L24.2709 29.3658V26.8051C26.676 25.0751 28.3031 22.3797 28.5341 19.3122C29.7904 18.9448 30.7082 17.8105 30.7082 16.472C30.7082 15.6056 30.3073 14.7844 29.6353 14.2261V8.13416C29.6353 6.464 28.7645 4.90177 27.3375 3.96558C26.8603 2.22426 25.2525 1 23.3642 1H14.7812C10.14 1 6.36437 4.66784 6.36437 9.17639V14.2261C5.69236 14.7844 5.2915 15.6055 5.2915 16.472C5.2915 17.8105 6.20928 18.9448 7.46554 19.3122C7.69655 22.3797 9.32358 25.0751 11.7287 26.8051V29.3658L3.93986 31.6357C2.18143 32.1482 1 33.6907 1 35.4741V45.6546C1 46.141 1.40594 46.5353 1.90665 46.5353H2.07287V57.1191C2.07287 57.6055 2.47881 57.9999 2.97953 57.9999C3.48024 57.9999 3.88618 57.6055 3.88618 57.1191V46.5353H7.43725V57.1191C7.43725 57.6055 7.84319 57.9999 8.3439 57.9999C8.84462 57.9999 9.25056 57.6055 9.25056 57.1191V40.4434C9.25056 40.3066 9.2178 40.1718 9.15482 40.0495L7.00907 35.8806C6.78518 35.4455 6.24071 35.2691 5.7927 35.4867C5.34481 35.7042 5.16324 36.2332 5.38724 36.6683L7.43725 40.6514V44.7738H2.81331V35.4741C2.81331 34.4747 3.47553 33.6101 4.461 33.3229L7.71686 32.374C8.82371 36.9428 13.0833 40.2818 17.9999 40.2818C20.5278 40.2818 22.9738 39.4007 24.8873 37.8006C26.5868 36.3797 27.7723 34.473 28.2808 32.3733L30.2575 32.9495C30.3444 32.9749 30.4321 32.9869 30.5184 32.9869C31.4077 33.1798 33.1862 33.9473 33.1862 35.4743V44.7739L28.5623 44.7739V40.6515L30.6123 36.6684C30.8363 36.2334 30.6547 35.7043 30.2069 35.4868C29.759 35.2692 29.2144 35.4456 28.9905 35.8807L26.8447 40.0496C26.7818 40.172 26.749 40.3067 26.749 40.4435V57.1192C26.749 57.6057 27.1549 58 27.6557 58C28.1564 58 28.5623 57.6057 28.5623 57.1192V46.5354H32.1134V57.1192C32.1134 57.6057 32.5193 58 33.02 58C33.5207 58 33.9267 57.6057 33.9267 57.1192V46.5354H34.0929C34.5936 46.5354 34.9996 46.1411 34.9996 45.6547V35.4743C34.9996 35.4743 35.105 32.5319 32.0597 31.6358C29.0144 30.7397 30.7787 31.2623 30.7787 31.2623ZM8.3439 17.6757C8.84462 17.6757 9.25056 18.0701 9.25056 18.5565C9.25056 23.243 13.1753 27.0558 17.9997 27.0558C22.824 27.0558 26.7489 23.2431 26.7489 18.5565C26.7489 18.0701 27.1548 17.6757 27.6555 17.6757C28.3388 17.6757 28.8946 17.1358 28.8946 16.472C28.8946 16.0448 28.662 15.6582 28.2724 15.4379C27.9934 15.2802 27.8217 14.9902 27.8217 14.6767V8.13416C27.8217 6.9624 27.1569 5.87025 26.0864 5.28378C25.8455 5.15179 25.6797 4.92009 25.6364 4.65469C25.4571 3.55773 24.5015 2.76152 23.3642 2.76152H14.7812C11.14 2.76152 8.17768 5.63926 8.17768 9.17639V13.5121C8.23305 13.5091 8.28842 13.5068 8.3439 13.5068H9.71634C9.78814 13.5068 9.85137 13.4624 9.87409 13.3964L10.7024 10.9823C10.8257 10.6227 11.1722 10.3802 11.5624 10.3801C11.6462 10.3801 19.9829 10.3551 24.0316 8.38864C24.4796 8.17103 25.0241 8.34742 25.2479 8.78252C25.4719 9.21761 25.2904 9.74666 24.8425 9.96414C21.0679 11.7977 14.3504 12.0875 12.2189 12.1332L11.5943 13.9534C11.3245 14.7399 10.5698 15.2683 9.71634 15.2683H8.3439C8.14819 15.2683 7.95682 15.3153 7.78432 15.4004C7.76534 15.4131 7.74708 15.4265 7.72702 15.4379C7.3374 15.6582 7.10481 16.0448 7.10481 16.472C7.10481 17.1358 7.66065 17.6757 8.3439 17.6757ZM22.4575 30.0211V27.8565C21.1022 28.4721 19.592 28.8174 17.9998 28.8174C16.4076 28.8174 14.8973 28.472 13.5421 27.8565V30.0198L13.5423 30.0323C13.5487 32.415 15.5456 34.3515 17.9998 34.3515C20.4578 34.3515 22.4575 32.4089 22.4575 30.0211ZM17.9998 38.5204C20.0937 38.5204 22.1196 37.7907 23.7042 36.4656C25.1407 35.2646 26.1339 33.6457 26.5402 31.8663L24.1571 31.1717C23.6016 33.9824 21.0527 36.113 17.9998 36.113C14.947 36.113 12.398 33.9824 11.8425 31.1718L9.45921 31.8663C10.3354 35.7035 13.8896 38.5204 17.9998 38.5204Z"/>
</mask>
<path d="M20.7167 20.9994C20.3278 20.6929 19.7569 20.7508 19.4415 21.1285C19.0558 21.5905 18.5439 21.8449 17.9999 21.8449C17.4559 21.8449 16.9439 21.5905 16.5583 21.1285C16.243 20.7508 15.672 20.693 15.2831 20.9994C14.8942 21.3058 14.8347 21.8604 15.1501 22.2382C15.8759 23.1076 16.9146 23.6063 17.9998 23.6063C19.085 23.6063 20.1236 23.1076 20.8497 22.2382C21.1651 21.8603 21.1056 21.3058 20.7167 20.9994Z" fill="black"/>
<path d="M13.7083 15.5913C13.2076 15.5913 12.8016 15.9856 12.8016 16.472V17.5143C12.8016 18.0007 13.2076 18.395 13.7083 18.395C14.209 18.395 14.6149 18.0007 14.6149 17.5143V16.472C14.6149 15.9857 14.209 15.5913 13.7083 15.5913Z" fill="black"/>
<path d="M22.2913 15.5913C21.7906 15.5913 21.3846 15.9856 21.3846 16.472V17.5143C21.3846 18.0007 21.7906 18.395 22.2913 18.395C22.792 18.395 23.1979 18.0007 23.1979 17.5143V16.472C23.1979 15.9857 22.792 15.5913 22.2913 15.5913Z" fill="black"/>
<path fill-rule="evenodd" clip-rule="evenodd" d="M30.7787 31.2623L24.2709 29.3658V26.8051C26.676 25.0751 28.3031 22.3797 28.5341 19.3122C29.7904 18.9448 30.7082 17.8105 30.7082 16.472C30.7082 15.6056 30.3073 14.7844 29.6353 14.2261V8.13416C29.6353 6.464 28.7645 4.90177 27.3375 3.96558C26.8603 2.22426 25.2525 1 23.3642 1H14.7812C10.14 1 6.36437 4.66784 6.36437 9.17639V14.2261C5.69236 14.7844 5.2915 15.6055 5.2915 16.472C5.2915 17.8105 6.20928 18.9448 7.46554 19.3122C7.69655 22.3797 9.32358 25.0751 11.7287 26.8051V29.3658L3.93986 31.6357C2.18143 32.1482 1 33.6907 1 35.4741V45.6546C1 46.141 1.40594 46.5353 1.90665 46.5353H2.07287V57.1191C2.07287 57.6055 2.47881 57.9999 2.97953 57.9999C3.48024 57.9999 3.88618 57.6055 3.88618 57.1191V46.5353H7.43725V57.1191C7.43725 57.6055 7.84319 57.9999 8.3439 57.9999C8.84462 57.9999 9.25056 57.6055 9.25056 57.1191V40.4434C9.25056 40.3066 9.2178 40.1718 9.15482 40.0495L7.00907 35.8806C6.78518 35.4455 6.24071 35.2691 5.7927 35.4867C5.34481 35.7042 5.16324 36.2332 5.38724 36.6683L7.43725 40.6514V44.7738H2.81331V35.4741C2.81331 34.4747 3.47553 33.6101 4.461 33.3229L7.71686 32.374C8.82371 36.9428 13.0833 40.2818 17.9999 40.2818C20.5278 40.2818 22.9738 39.4007 24.8873 37.8006C26.5868 36.3797 27.7723 34.473 28.2808 32.3733L30.2575 32.9495C30.3444 32.9749 30.4321 32.9869 30.5184 32.9869C31.4077 33.1798 33.1862 33.9473 33.1862 35.4743V44.7739L28.5623 44.7739V40.6515L30.6123 36.6684C30.8363 36.2334 30.6547 35.7043 30.2069 35.4868C29.759 35.2692 29.2144 35.4456 28.9905 35.8807L26.8447 40.0496C26.7818 40.172 26.749 40.3067 26.749 40.4435V57.1192C26.749 57.6057 27.1549 58 27.6557 58C28.1564 58 28.5623 57.6057 28.5623 57.1192V46.5354H32.1134V57.1192C32.1134 57.6057 32.5193 58 33.02 58C33.5207 58 33.9267 57.6057 33.9267 57.1192V46.5354H34.0929C34.5936 46.5354 34.9996 46.1411 34.9996 45.6547V35.4743C34.9996 35.4743 35.105 32.5319 32.0597 31.6358C29.0144 30.7397 30.7787 31.2623 30.7787 31.2623ZM8.3439 17.6757C8.84462 17.6757 9.25056 18.0701 9.25056 18.5565C9.25056 23.243 13.1753 27.0558 17.9997 27.0558C22.824 27.0558 26.7489 23.2431 26.7489 18.5565C26.7489 18.0701 27.1548 17.6757 27.6555 17.6757C28.3388 17.6757 28.8946 17.1358 28.8946 16.472C28.8946 16.0448 28.662 15.6582 28.2724 15.4379C27.9934 15.2802 27.8217 14.9902 27.8217 14.6767V8.13416C27.8217 6.9624 27.1569 5.87025 26.0864 5.28378C25.8455 5.15179 25.6797 4.92009 25.6364 4.65469C25.4571 3.55773 24.5015 2.76152 23.3642 2.76152H14.7812C11.14 2.76152 8.17768 5.63926 8.17768 9.17639V13.5121C8.23305 13.5091 8.28842 13.5068 8.3439 13.5068H9.71634C9.78814 13.5068 9.85137 13.4624 9.87409 13.3964L10.7024 10.9823C10.8257 10.6227 11.1722 10.3802 11.5624 10.3801C11.6462 10.3801 19.9829 10.3551 24.0316 8.38864C24.4796 8.17103 25.0241 8.34742 25.2479 8.78252C25.4719 9.21761 25.2904 9.74666 24.8425 9.96414C21.0679 11.7977 14.3504 12.0875 12.2189 12.1332L11.5943 13.9534C11.3245 14.7399 10.5698 15.2683 9.71634 15.2683H8.3439C8.14819 15.2683 7.95682 15.3153 7.78432 15.4004C7.76534 15.4131 7.74708 15.4265 7.72702 15.4379C7.3374 15.6582 7.10481 16.0448 7.10481 16.472C7.10481 17.1358 7.66065 17.6757 8.3439 17.6757ZM22.4575 30.0211V27.8565C21.1022 28.4721 19.592 28.8174 17.9998 28.8174C16.4076 28.8174 14.8973 28.472 13.5421 27.8565V30.0198L13.5423 30.0323C13.5487 32.415 15.5456 34.3515 17.9998 34.3515C20.4578 34.3515 22.4575 32.4089 22.4575 30.0211ZM17.9998 38.5204C20.0937 38.5204 22.1196 37.7907 23.7042 36.4656C25.1407 35.2646 26.1339 33.6457 26.5402 31.8663L24.1571 31.1717C23.6016 33.9824 21.0527 36.113 17.9998 36.113C14.947 36.113 12.398 33.9824 11.8425 31.1718L9.45921 31.8663C10.3354 35.7035 13.8896 38.5204 17.9998 38.5204Z" fill="black"/>
<path d="M13.6423 30.0323C13.6423 30.0286 13.6422 30.025 13.6421 30.0231C13.6421 30.0208 13.6421 30.0201 13.6421 30.0198H13.4421C13.4421 30.0235 13.4422 30.0271 13.4422 30.0289C13.4423 30.0312 13.4423 30.0319 13.4423 30.0323H13.6423ZM30.7787 31.2623L30.7227 31.4544L30.8355 31.0706L30.7787 31.2623ZM24.2709 29.3658H24.0709V29.5158L24.215 29.5578L24.2709 29.3658ZM24.2709 26.8051L24.1541 26.6427L24.0709 26.7026V26.8051H24.2709ZM28.5341 19.3122L28.478 19.1202L28.3451 19.1591L28.3347 19.2972L28.5341 19.3122ZM29.6353 14.2261H29.4353V14.3199L29.5075 14.3799L29.6353 14.2261ZM27.3375 3.96558L27.1446 4.01843L27.1646 4.09134L27.2278 4.13281L27.3375 3.96558ZM6.36437 14.2261L6.49218 14.3799L6.56437 14.3199V14.2261H6.36437ZM7.46554 19.3122L7.66497 19.2972L7.65457 19.1591L7.52167 19.1202L7.46554 19.3122ZM11.7287 26.8051H11.9287V26.7026L11.8455 26.6427L11.7287 26.8051ZM11.7287 29.3658L11.7847 29.5578L11.9287 29.5158V29.3658H11.7287ZM3.93986 31.6357L3.8839 31.4437L3.8839 31.4437L3.93986 31.6357ZM2.07287 46.5353H2.27287V46.3353H2.07287V46.5353ZM3.88618 46.5353V46.3353H3.68618V46.5353H3.88618ZM7.43725 46.5353H7.63725V46.3353H7.43725V46.5353ZM9.15482 40.0495L8.97699 40.141L8.97702 40.1411L9.15482 40.0495ZM7.00907 35.8806L6.83123 35.9721L6.83124 35.9721L7.00907 35.8806ZM5.7927 35.4867L5.88006 35.6666L5.88008 35.6666L5.7927 35.4867ZM5.38724 36.6683L5.56507 36.5768L5.56506 36.5768L5.38724 36.6683ZM7.43725 40.6514H7.63725V40.6029L7.61508 40.5598L7.43725 40.6514ZM7.43725 44.7738V44.9738H7.63725V44.7738H7.43725ZM2.81331 44.7738H2.61331V44.9738H2.81331V44.7738ZM4.461 33.3229L4.40504 33.1308L4.40504 33.1308L4.461 33.3229ZM7.71686 32.374L7.91124 32.3269L7.86194 32.1234L7.6609 32.182L7.71686 32.374ZM24.8873 37.8006L24.759 37.6472L24.759 37.6472L24.8873 37.8006ZM28.2808 32.3733L28.3367 32.1813L28.1357 32.1227L28.0864 32.3262L28.2808 32.3733ZM30.2575 32.9495L30.3135 32.7575L30.3135 32.7575L30.2575 32.9495ZM30.5184 32.9869L30.5608 32.7914L30.5398 32.7869H30.5184V32.9869ZM7.72702 15.4379L7.82546 15.612L7.82575 15.6118L7.72702 15.4379ZM7.78432 15.4004L7.6958 15.2211L7.68407 15.2269L7.67319 15.2341L7.78432 15.4004ZM11.5943 13.9534L11.4051 13.8885L11.4051 13.8885L11.5943 13.9534ZM12.2189 12.1332L12.2147 11.9332L12.0751 11.9362L12.0298 12.0682L12.2189 12.1332ZM24.8425 9.96414L24.7551 9.78423L24.7551 9.78425L24.8425 9.96414ZM25.2479 8.78252L25.0701 8.87402L25.0701 8.87406L25.2479 8.78252ZM24.0316 8.38864L24.1189 8.56854L24.119 8.56854L24.0316 8.38864ZM11.5624 10.3801V10.1801H11.5623L11.5624 10.3801ZM10.7024 10.9823L10.8916 11.0472L10.8916 11.0472L10.7024 10.9823ZM9.87409 13.3964L10.0632 13.4615L10.0633 13.4613L9.87409 13.3964ZM8.17768 13.5121H7.97768V13.723L8.18827 13.7118L8.17768 13.5121ZM25.6364 4.65469L25.439 4.68694L25.439 4.68696L25.6364 4.65469ZM26.0864 5.28378L26.1825 5.10838L26.0864 5.28378ZM28.2724 15.4379L28.3709 15.2638L28.3708 15.2638L28.2724 15.4379ZM22.4575 27.8565H22.6575V27.546L22.3748 27.6744L22.4575 27.8565ZM13.5423 30.0323L13.7423 30.0318L13.7423 30.0285L13.5423 30.0323ZM13.5421 30.0198H13.342L13.3421 30.0236L13.5421 30.0198ZM13.5421 27.8565L13.6248 27.6744L13.3421 27.546V27.8565H13.5421ZM23.7042 36.4656L23.5759 36.3122L23.5759 36.3122L23.7042 36.4656ZM9.45921 31.8663L9.40326 31.6743L9.22226 31.727L9.26423 31.9108L9.45921 31.8663ZM11.8425 31.1718L12.0387 31.133L11.9963 30.9186L11.7865 30.9798L11.8425 31.1718ZM24.1571 31.1717L24.213 30.9797L24.0032 30.9185L23.9608 31.1329L24.1571 31.1717ZM26.5402 31.8663L26.7352 31.9108L26.7772 31.727L26.5962 31.6743L26.5402 31.8663ZM20.7167 20.9994L20.5929 21.1564L20.5929 21.1565L20.7167 20.9994ZM19.4415 21.1285L19.2879 21.0004L19.2879 21.0004L19.4415 21.1285ZM16.5583 21.1285L16.4048 21.2567L16.4048 21.2567L16.5583 21.1285ZM15.1501 22.2382L14.9966 22.3664L14.9966 22.3664L15.1501 22.2382ZM20.8497 22.2382L21.0032 22.3664L21.0032 22.3663L20.8497 22.2382ZM28.5623 44.7739H28.3623V44.9739H28.5623L28.5623 44.7739ZM28.5623 40.6515L28.3845 40.56L28.3623 40.603V40.6515H28.5623ZM30.6123 36.6684L30.4345 36.5769L30.4345 36.5769L30.6123 36.6684ZM30.2069 35.4868L30.1195 35.6667L30.1195 35.6667L30.2069 35.4868ZM28.9905 35.8807L29.1683 35.9722L29.1683 35.9722L28.9905 35.8807ZM26.8447 40.0496L26.6669 39.9581L26.8447 40.0496ZM28.5623 46.5354V46.3354H28.3623V46.5354H28.5623ZM34.9996 35.4743L34.7996 35.4671V35.4743H34.9996ZM33.9267 46.5354V46.3354H33.7267V46.5354H33.9267ZM32.1134 46.5354H32.3134V46.3354H32.1134V46.5354ZM33.1862 44.7739V44.9739H33.3862V44.7739H33.1862ZM30.8346 31.0703L24.3269 29.1738L24.215 29.5578L30.7227 31.4544L30.8346 31.0703ZM24.4709 29.3658V26.8051H24.0709V29.3658H24.4709ZM24.3877 26.9675C26.8376 25.2052 28.4978 22.4574 28.7336 19.3272L28.3347 19.2972C28.1084 22.302 26.5144 24.9449 24.1541 26.6427L24.3877 26.9675ZM28.5903 19.5041C29.926 19.1136 30.9082 17.9053 30.9082 16.472H30.5082C30.5082 17.7158 29.6548 18.7761 28.478 19.1202L28.5903 19.5041ZM30.9082 16.472C30.9082 15.5435 30.4788 14.6668 29.7631 14.0722L29.5075 14.3799C30.1359 14.9019 30.5082 15.6677 30.5082 16.472H30.9082ZM29.8353 14.2261V8.13416H29.4353V14.2261H29.8353ZM29.8353 8.13416C29.8353 6.39361 28.9281 4.76984 27.4472 3.79835L27.2278 4.13281C28.601 5.0337 29.4353 6.53439 29.4353 8.13416H29.8353ZM27.5304 3.91273C27.0287 2.08202 25.34 0.8 23.3642 0.8V1.2C25.165 1.2 26.6919 2.36649 27.1446 4.01843L27.5304 3.91273ZM23.3642 0.8H14.7812V1.2H23.3642V0.8ZM14.7812 0.8C10.0351 0.8 6.16437 4.55196 6.16437 9.17639H6.56437C6.56437 4.78372 10.245 1.2 14.7812 1.2V0.8ZM6.16437 9.17639V14.2261H6.56437V9.17639H6.16437ZM6.23657 14.0722C5.52091 14.6668 5.0915 15.5433 5.0915 16.472H5.4915C5.4915 15.6676 5.86381 14.9019 6.49218 14.3799L6.23657 14.0722ZM5.0915 16.472C5.0915 17.9053 6.07369 19.1136 7.40941 19.5041L7.52167 19.1202C6.34486 18.7761 5.4915 17.7158 5.4915 16.472H5.0915ZM7.2661 19.3272C7.50184 22.4574 9.16197 25.2052 11.612 26.9675L11.8455 26.6427C9.48517 24.9449 7.89127 22.302 7.66497 19.2972L7.2661 19.3272ZM11.5287 26.8051V29.3658H11.9287V26.8051H11.5287ZM11.6728 29.1738L3.8839 31.4437L3.99582 31.8277L11.7847 29.5578L11.6728 29.1738ZM3.8839 31.4437C2.04334 31.9801 0.8 33.5984 0.8 35.4741H1.2C1.2 33.7829 2.31953 32.3162 3.99582 31.8277L3.8839 31.4437ZM0.8 35.4741V45.6546H1.2V35.4741H0.8ZM0.8 45.6546C0.8 46.2569 1.30098 46.7353 1.90665 46.7353V46.3353C1.51089 46.3353 1.2 46.0251 1.2 45.6546H0.8ZM1.90665 46.7353H2.07287V46.3353H1.90665V46.7353ZM1.87287 46.5353V57.1191H2.27287V46.5353H1.87287ZM1.87287 57.1191C1.87287 57.7214 2.37386 58.1999 2.97953 58.1999V57.7999C2.58377 57.7999 2.27287 57.4897 2.27287 57.1191H1.87287ZM2.97953 58.1999C3.5852 58.1999 4.08618 57.7214 4.08618 57.1191H3.68618C3.68618 57.4897 3.37529 57.7999 2.97953 57.7999V58.1999ZM4.08618 57.1191V46.5353H3.68618V57.1191H4.08618ZM3.88618 46.7353H7.43725V46.3353H3.88618V46.7353ZM7.23725 46.5353V57.1191H7.63725V46.5353H7.23725ZM7.23725 57.1191C7.23725 57.7214 7.73823 58.1999 8.3439 58.1999V57.7999C7.94814 57.7999 7.63725 57.4897 7.63725 57.1191H7.23725ZM8.3439 58.1999C8.94957 58.1999 9.45056 57.7214 9.45056 57.1191H9.05056C9.05056 57.4897 8.73966 57.7999 8.3439 57.7999V58.1999ZM9.45056 57.1191V40.4434H9.05056V57.1191H9.45056ZM9.45056 40.4434C9.45056 40.2746 9.41011 40.1084 9.33261 39.9579L8.97702 40.1411C9.02548 40.2352 9.05056 40.3386 9.05056 40.4434H9.45056ZM9.33264 39.958L7.18689 35.7891L6.83124 35.9721L8.97699 40.141L9.33264 39.958ZM7.1869 35.7891C6.91186 35.2546 6.2482 35.0431 5.70532 35.3068L5.88008 35.6666C6.23321 35.4951 6.65851 35.6364 6.83123 35.9721L7.1869 35.7891ZM5.70534 35.3068C5.15951 35.5718 4.93247 36.2219 5.20942 36.7599L5.56506 36.5768C5.39401 36.2445 5.53011 35.8365 5.88006 35.6666L5.70534 35.3068ZM5.20941 36.7599L7.25942 40.7429L7.61508 40.5598L5.56507 36.5768L5.20941 36.7599ZM7.23725 40.6514V44.7738H7.63725V40.6514H7.23725ZM3.01331 44.7738V35.4741H2.61331V44.7738H3.01331ZM3.01331 35.4741C3.01331 34.5669 3.61362 33.7782 4.51697 33.5149L4.40504 33.1308C3.33744 33.442 2.61331 34.3824 2.61331 35.4741H3.01331ZM4.51696 33.5149L7.77282 32.566L7.6609 32.182L4.40504 33.1308L4.51696 33.5149ZM7.52248 32.4211C8.65172 37.0823 12.9938 40.4818 17.9999 40.4818V40.0818C13.1728 40.0818 8.99569 36.8033 7.91124 32.3269L7.52248 32.4211ZM17.9999 40.4818C20.574 40.4818 23.0656 39.5846 25.0156 37.9541L24.759 37.6472C22.882 39.2167 20.4816 40.0818 17.9999 40.0818V40.4818ZM25.0156 37.9541C26.7474 36.506 27.9565 34.5623 28.4751 32.4203L28.0864 32.3262C27.5881 34.3837 26.4261 36.2533 24.759 37.6472L25.0156 37.9541ZM28.2248 32.5653L30.2015 33.1415L30.3135 32.7575L28.3367 32.1813L28.2248 32.5653ZM30.2015 33.1415C30.307 33.1723 30.4135 33.1869 30.5184 33.1869V32.7869C30.4507 32.7869 30.3819 32.7775 30.3135 32.7575L30.2015 33.1415ZM9.45056 18.5565C9.45056 17.9542 8.94957 17.4757 8.3439 17.4757V17.8757C8.73966 17.8757 9.05056 18.186 9.05056 18.5565H9.45056ZM8.3439 17.4757C7.7656 17.4757 7.30481 17.0199 7.30481 16.472H6.90481C6.90481 17.2516 7.55569 17.8757 8.3439 17.8757V17.4757ZM7.30481 16.472C7.30481 16.121 7.49491 15.7989 7.82546 15.612L7.62857 15.2638C7.17988 15.5175 6.90481 15.9686 6.90481 16.472H7.30481ZM7.82575 15.6118C7.85423 15.5957 7.88602 15.573 7.89544 15.5667L7.67319 15.2341C7.64465 15.2532 7.63994 15.2573 7.62828 15.264L7.82575 15.6118ZM7.87283 15.5798C8.01902 15.5076 8.18021 15.4683 8.3439 15.4683V15.0683C8.11617 15.0683 7.89463 15.123 7.6958 15.2211L7.87283 15.5798ZM8.3439 15.4683H9.71634V15.0683H8.3439V15.4683ZM9.71634 15.4683C10.6522 15.4683 11.485 14.8884 11.7835 14.0183L11.4051 13.8885C11.164 14.5913 10.4874 15.0683 9.71634 15.0683V15.4683ZM11.7835 14.0183L12.4081 12.1981L12.0298 12.0682L11.4051 13.8885L11.7835 14.0183ZM12.2232 12.3331C13.2927 12.3102 15.5126 12.2261 17.9398 11.9175C20.362 11.6096 23.012 11.0757 24.9299 10.144L24.7551 9.78425C22.8984 10.6861 20.3024 11.2139 17.8893 11.5207C15.4813 11.8268 13.2767 11.9104 12.2147 11.9332L12.2232 12.3331ZM24.9298 10.1441C25.4757 9.87901 25.7027 9.22891 25.4258 8.69097L25.0701 8.87406C25.2412 9.20631 25.1051 9.6143 24.7551 9.78423L24.9298 10.1441ZM25.4258 8.69101C25.1507 8.15649 24.4871 7.94505 23.9442 8.20874L24.119 8.56854C24.4721 8.39702 24.8974 8.53836 25.0701 8.87402L25.4258 8.69101ZM23.9442 8.20874C21.9551 9.17484 18.8909 9.67073 16.2909 9.92272C13.6989 10.1739 11.6007 10.1801 11.5624 10.1801V10.5801C11.6079 10.5801 13.72 10.5738 16.3295 10.3209C18.9309 10.0687 22.0594 9.56888 24.1189 8.56854L23.9442 8.20874ZM11.5623 10.1801C11.0898 10.1802 10.6653 10.4741 10.5132 10.9174L10.8916 11.0472C10.9862 10.7713 11.2545 10.5802 11.5625 10.5801L11.5623 10.1801ZM10.5132 10.9174L9.68492 13.3315L10.0633 13.4613L10.8916 11.0472L10.5132 10.9174ZM9.68499 13.3313C9.69097 13.3139 9.70561 13.3068 9.71634 13.3068V13.7068C9.87068 13.7068 10.0118 13.6109 10.0632 13.4615L9.68499 13.3313ZM9.71634 13.3068H8.3439V13.7068H9.71634V13.3068ZM8.3439 13.3068C8.28308 13.3068 8.22355 13.3094 8.16709 13.3124L8.18827 13.7118C8.24255 13.7089 8.29375 13.7068 8.3439 13.7068V13.3068ZM8.37768 13.5121V9.17639H7.97768V13.5121H8.37768ZM8.37768 9.17639C8.37768 5.75514 11.245 2.96152 14.7812 2.96152V2.56152C11.0351 2.56152 7.97768 5.52338 7.97768 9.17639H8.37768ZM14.7812 2.96152H23.3642V2.56152H14.7812V2.96152ZM23.3642 2.96152C24.4069 2.96152 25.276 3.69006 25.439 4.68694L25.8337 4.62243C25.6381 3.4254 24.596 2.56152 23.3642 2.56152V2.96152ZM25.439 4.68696C25.4925 5.01461 25.6967 5.29835 25.9903 5.45919L26.1825 5.10838C25.9942 5.00523 25.8669 4.82556 25.8337 4.62241L25.439 4.68696ZM25.9903 5.45919C27 6.01237 27.6217 7.03916 27.6217 8.13416H28.0217C28.0217 6.88564 27.3137 5.72814 26.1825 5.10838L25.9903 5.45919ZM27.6217 8.13416V14.6767H28.0217V8.13416H27.6217ZM27.6217 14.6767C27.6217 15.0643 27.834 15.4198 28.174 15.612L28.3708 15.2638C28.1529 15.1406 28.0217 14.9162 28.0217 14.6767H27.6217ZM28.174 15.612C28.5045 15.7989 28.6946 16.121 28.6946 16.472H29.0946C29.0946 15.9686 28.8196 15.5175 28.3709 15.2638L28.174 15.612ZM28.6946 16.472C28.6946 17.0199 28.2338 17.4757 27.6555 17.4757V17.8757C28.4437 17.8757 29.0946 17.2516 29.0946 16.472H28.6946ZM27.6555 17.4757C27.0499 17.4757 26.5489 17.9542 26.5489 18.5565H26.9489C26.9489 18.186 27.2598 17.8757 27.6555 17.8757V17.4757ZM26.5489 18.5565C26.5489 23.1272 22.7191 26.8558 17.9997 26.8558V27.2558C22.929 27.2558 26.9489 23.359 26.9489 18.5565H26.5489ZM17.9997 26.8558C13.2802 26.8558 9.45056 23.1271 9.45056 18.5565H9.05056C9.05056 23.3588 13.0703 27.2558 17.9997 27.2558V26.8558ZM22.2575 27.8565V30.0211H22.6575V27.8565H22.2575ZM22.2575 30.0211C22.2575 32.293 20.3528 34.1515 17.9998 34.1515V34.5515C20.5627 34.5515 22.6575 32.5247 22.6575 30.0211H22.2575ZM17.9998 34.1515C15.6505 34.1515 13.7484 32.2988 13.7423 30.0318L13.3423 30.0329C13.349 32.5311 15.4408 34.5515 17.9998 34.5515V34.1515ZM13.7421 30.0198V27.8565H13.3421V30.0198H13.7421ZM13.4594 28.0386C14.84 28.6656 16.3784 29.0174 17.9998 29.0174V28.6174C16.4367 28.6174 14.9546 28.2783 13.6248 27.6744L13.4594 28.0386ZM17.9998 29.0174C19.6211 29.0174 21.1595 28.6657 22.5402 28.0386L22.3748 27.6744C21.0449 28.2785 19.5628 28.6174 17.9998 28.6174V29.0174ZM23.5759 36.3122C22.0278 37.6067 20.0475 38.3204 17.9998 38.3204V38.7204C20.1399 38.7204 22.2114 37.9746 23.8325 36.6191L23.5759 36.3122ZM17.9998 38.3204C13.9799 38.3204 10.5089 35.5651 9.65419 31.8218L9.26423 31.9108C10.1619 35.8419 13.7993 38.7204 17.9998 38.7204V38.3204ZM9.51516 32.0583L11.8985 31.3638L11.7865 30.9798L9.40326 31.6743L9.51516 32.0583ZM11.6463 31.2106C12.2207 34.1167 14.8535 36.313 17.9998 36.313V35.913C15.0406 35.913 12.5753 33.848 12.0387 31.133L11.6463 31.2106ZM17.9998 36.313C21.1462 36.313 23.7789 34.1167 24.3533 31.2105L23.9608 31.1329C23.4243 33.848 20.9591 35.913 17.9998 35.913V36.313ZM24.1011 31.3637L26.4843 32.0583L26.5962 31.6743L24.213 30.9797L24.1011 31.3637ZM26.3452 31.8218C25.9488 33.5579 24.9794 35.1388 23.5759 36.3122L23.8325 36.6191C25.302 35.3905 26.319 33.7335 26.7352 31.9108L26.3452 31.8218ZM20.8405 20.8423C20.3674 20.4694 19.6734 20.5387 19.2879 21.0004L19.595 21.2567C19.8403 20.9629 20.2882 20.9163 20.5929 21.1564L20.8405 20.8423ZM19.2879 21.0004C18.9358 21.4223 18.4778 21.6449 17.9999 21.6449V22.0449C18.6099 22.0449 19.1759 21.7588 19.595 21.2567L19.2879 21.0004ZM17.9999 21.6449C17.522 21.6449 17.064 21.4223 16.7119 21.0004L16.4048 21.2567C16.8239 21.7588 17.3899 22.0449 17.9999 22.0449V21.6449ZM16.7119 21.0004C16.3265 20.5386 15.6323 20.4696 15.1593 20.8423L15.4068 21.1565C15.7116 20.9164 16.1596 20.9629 16.4048 21.2567L16.7119 21.0004ZM15.1593 20.8423C14.6828 21.2177 14.6082 21.9012 14.9966 22.3664L15.3036 22.11C15.0612 21.8196 15.1056 21.3938 15.4068 21.1565L15.1593 20.8423ZM14.9966 22.3664C15.7585 23.279 16.8524 23.8063 17.9998 23.8063V23.4063C16.9768 23.4063 15.9934 22.9362 15.3036 22.11L14.9966 22.3664ZM17.9998 23.8063C19.1472 23.8063 20.2411 23.279 21.0032 22.3664L20.6962 22.11C20.0062 22.9362 19.0228 23.4063 17.9998 23.4063V23.8063ZM21.0032 22.3663C21.3915 21.9011 21.317 21.2177 20.8405 20.8423L20.5929 21.1565C20.8942 21.3938 20.9386 21.8195 20.6961 22.11L21.0032 22.3663ZM13.7083 15.3913C13.1026 15.3913 12.6016 15.8697 12.6016 16.472H13.0016C13.0016 16.1015 13.3125 15.7913 13.7083 15.7913V15.3913ZM12.6016 16.472V17.5143H13.0016V16.472H12.6016ZM12.6016 17.5143C12.6016 18.1166 13.1026 18.595 13.7083 18.595V18.195C13.3125 18.195 13.0016 17.8848 13.0016 17.5143H12.6016ZM13.7083 18.595C14.3139 18.595 14.8149 18.1166 14.8149 17.5143H14.4149C14.4149 17.8848 14.104 18.195 13.7083 18.195V18.595ZM14.8149 17.5143V16.472H14.4149V17.5143H14.8149ZM14.8149 16.472C14.8149 15.8699 14.314 15.3913 13.7083 15.3913V15.7913C14.104 15.7913 14.4149 16.1016 14.4149 16.472H14.8149ZM22.2913 15.3913C21.6856 15.3913 21.1846 15.8697 21.1846 16.472H21.5846C21.5846 16.1015 21.8955 15.7913 22.2913 15.7913V15.3913ZM21.1846 16.472V17.5143H21.5846V16.472H21.1846ZM21.1846 17.5143C21.1846 18.1166 21.6856 18.595 22.2913 18.595V18.195C21.8955 18.195 21.5846 17.8848 21.5846 17.5143H21.1846ZM22.2913 18.595C22.8969 18.595 23.3979 18.1166 23.3979 17.5143H22.9979C22.9979 17.8848 22.687 18.195 22.2913 18.195V18.595ZM23.3979 17.5143V16.472H22.9979V17.5143H23.3979ZM23.3979 16.472C23.3979 15.8699 22.897 15.3913 22.2913 15.3913V15.7913C22.687 15.7913 22.9979 16.1016 22.9979 16.472H23.3979ZM28.7623 44.7739V40.6515H28.3623V44.7739H28.7623ZM28.7401 40.743L30.7901 36.76L30.4345 36.5769L28.3845 40.56L28.7401 40.743ZM30.7901 36.76C31.0671 36.2221 30.84 35.572 30.2942 35.3069L30.1195 35.6667C30.4694 35.8367 30.6055 36.2447 30.4345 36.5769L30.7901 36.76ZM30.2943 35.3069C29.7515 35.0432 29.0877 35.2547 28.8127 35.7892L29.1683 35.9722C29.3411 35.6365 29.7665 35.4952 30.1195 35.6667L30.2943 35.3069ZM28.8127 35.7892L26.6669 39.9581L27.0226 40.1412L29.1683 35.9722L28.8127 35.7892ZM26.6669 39.9581C26.5895 40.1086 26.549 40.2746 26.549 40.4435H26.949C26.949 40.3388 26.9741 40.2354 27.0226 40.1412L26.6669 39.9581ZM26.549 40.4435V57.1192H26.949V40.4435H26.549ZM26.549 57.1192C26.549 57.7215 27.05 58.2 27.6557 58.2V57.8C27.2599 57.8 26.949 57.4898 26.949 57.1192H26.549ZM27.6557 58.2C28.2613 58.2 28.7623 57.7215 28.7623 57.1192H28.3623C28.3623 57.4898 28.0514 57.8 27.6557 57.8V58.2ZM28.7623 57.1192V46.5354H28.3623V57.1192H28.7623ZM7.43725 44.5738H2.81331V44.9738H7.43725V44.5738ZM32.0032 31.8277C33.4586 32.2559 34.1519 33.1664 34.4871 33.9682C34.6558 34.3718 34.7341 34.7496 34.7701 35.0263C34.7881 35.1644 34.7954 35.2767 34.7983 35.3535C34.7997 35.3919 34.8 35.4214 34.8 35.4407C34.8 35.4504 34.7999 35.4575 34.7998 35.462C34.7998 35.4642 34.7997 35.4658 34.7997 35.4666C34.7997 35.467 34.7997 35.4673 34.7997 35.4674C34.7997 35.4674 34.7997 35.4674 34.7997 35.4674C34.7997 35.4673 34.7997 35.4673 34.7997 35.4673C34.7997 35.4672 34.7997 35.4671 34.9996 35.4743C35.1994 35.4814 35.1994 35.4813 35.1994 35.4812C35.1994 35.4811 35.1994 35.481 35.1994 35.4809C35.1995 35.4807 35.1995 35.4804 35.1995 35.4801C35.1995 35.4794 35.1995 35.4786 35.1995 35.4776C35.1996 35.4757 35.1997 35.473 35.1997 35.4696C35.1999 35.4629 35.2 35.4534 35.2 35.4413C35.2 35.4171 35.1996 35.3824 35.198 35.3386C35.1947 35.251 35.1865 35.1264 35.1668 34.9747C35.1274 34.6718 35.0417 34.2579 34.8562 33.8139C34.4827 32.9206 33.7061 31.9118 32.1162 31.4439L32.0032 31.8277ZM34.7996 45.6547C34.7996 46.0252 34.4887 46.3354 34.0929 46.3354V46.7354C34.6986 46.7354 35.1996 46.257 35.1996 45.6547H34.7996ZM34.0929 46.3354H33.9267V46.7354H34.0929V46.3354ZM33.7267 57.1192C33.7267 57.4898 33.4158 57.8 33.02 57.8V58.2C33.6257 58.2 34.1267 57.7215 34.1267 57.1192H33.7267ZM33.02 57.8C32.6243 57.8 32.3134 57.4898 32.3134 57.1192H31.9134C31.9134 57.7215 32.4144 58.2 33.02 58.2V57.8ZM32.1134 46.3354H28.5623V46.7354H32.1134V46.3354ZM33.3862 44.7739V35.4743H32.9862V44.7739H33.3862ZM28.5623 44.9739L33.1862 44.9739V44.5739L28.5623 44.5739L28.5623 44.9739ZM30.7787 31.2623C30.8355 31.0706 30.8355 31.0706 30.8354 31.0706C30.8354 31.0706 30.8354 31.0706 30.8354 31.0706C30.8353 31.0705 30.8353 31.0705 30.8351 31.0705C30.8349 31.0704 30.8346 31.0703 30.8342 31.0702C30.8334 31.07 30.8321 31.0696 30.8305 31.0691C30.8273 31.0681 30.8225 31.0667 30.8164 31.0649C30.8042 31.0613 30.7868 31.0562 30.7657 31.0499C30.7234 31.0373 30.6664 31.0204 30.6075 31.003C30.4889 30.9677 30.3651 30.9308 30.3362 30.9219C30.328 30.9194 30.3348 30.9213 30.3424 30.9243C30.344 30.9249 30.3479 30.9265 30.3502 30.9275C30.3542 30.9292 30.3661 30.9352 30.374 30.9398C30.3972 30.9562 30.4704 31.1103 30.4185 31.2452C30.3584 31.2904 30.2701 31.3108 30.2544 31.3102C30.2481 31.3096 30.2385 31.3083 30.2352 31.3077C30.2332 31.3073 30.2298 31.3066 30.2284 31.3064C30.2258 31.3058 30.2238 31.3053 30.2231 31.3051C30.2206 31.3045 30.2191 31.3041 30.2208 31.3045C30.2252 31.3058 30.2374 31.3093 30.2604 31.3159C30.3054 31.329 30.3871 31.3528 30.5186 31.3913C30.7813 31.4683 31.2419 31.6036 32.0032 31.8277L32.1162 31.4439C31.3548 31.2199 30.894 31.0845 30.631 31.0074C30.4996 30.9689 30.4174 30.9449 30.3717 30.9317C30.3494 30.9252 30.3346 30.921 30.3272 30.919C30.3258 30.9186 30.3223 30.9176 30.3187 30.9167C30.3177 30.9165 30.3155 30.9159 30.3127 30.9153C30.3113 30.915 30.3078 30.9143 30.3057 30.9139C30.3023 30.9134 30.2927 30.9121 30.2864 30.9114C30.2706 30.9108 30.1823 30.9312 30.1222 30.9765C30.0704 31.1113 30.1435 31.2655 30.1667 31.2819C30.1746 31.2864 30.1866 31.2925 30.1906 31.2942C30.193 31.2953 30.197 31.2969 30.1986 31.2975C30.2035 31.2994 30.2078 31.3008 30.2082 31.3009C30.2096 31.3014 30.211 31.3018 30.2119 31.3021C30.2139 31.3028 30.216 31.3035 30.2182 31.3041C30.2497 31.3138 30.3766 31.3516 30.4936 31.3864C30.5526 31.4039 30.6096 31.4208 30.6519 31.4334C30.6731 31.4397 30.6906 31.4448 30.7028 31.4484C30.7088 31.4502 30.7136 31.4517 30.7169 31.4526C30.7185 31.4531 30.7197 31.4535 30.7206 31.4537C30.721 31.4538 30.7213 31.4539 30.7215 31.454C30.7216 31.454 30.7217 31.4541 30.7218 31.4541C30.7218 31.4541 30.7218 31.4541 30.7218 31.4541C30.7218 31.4541 30.7218 31.4541 30.7787 31.2623ZM30.476 33.1823C30.9 33.2743 31.5394 33.505 32.0677 33.8917C32.5951 34.2777 32.9862 34.7986 32.9862 35.4743H33.3862C33.3862 34.623 32.8881 33.9965 32.3039 33.5689C31.7206 33.1419 31.026 32.8923 30.5608 32.7914L30.476 33.1823ZM34.7996 35.4743V45.6547H35.1996V35.4743H34.7996ZM33.7267 46.5354V57.1192H34.1267V46.5354H33.7267ZM32.3134 57.1192V46.5354H31.9134V57.1192H32.3134ZM13.3421 30.0236L13.3423 30.0362L13.7423 30.0285L13.742 30.0159L13.3421 30.0236Z" fill="black" mask="url(#path-1-outside-1)"/>
</svg>
