<svg width="63" height="57" viewBox="0 0 63 57" fill="none" xmlns="http://www.w3.org/2000/svg">
<path d="M21.2871 19.6976C20.6079 19.6976 20.0566 20.2492 20.0566 20.9287C20.0566 21.6083 20.6079 22.1598 21.2871 22.1598C21.9663 22.1598 22.5176 21.6083 22.5176 20.9287C22.5176 20.2492 21.9663 19.6976 21.2871 19.6976Z" fill="white"/>
<path d="M13.9043 0C6.46784 0 0 6.01479 0 13.5421V43.0886C0 50.6181 6.4703 56.6307 13.9043 56.6307C21.3275 56.6307 27.8086 50.6276 27.8086 43.0886V13.5421C27.8086 6.01258 21.3383 0 13.9043 0ZM25.3477 43.0886C25.3477 49.3235 19.8951 54.1685 13.9043 54.1685C7.70138 54.1685 2.46094 49.0945 2.46094 43.0886V29.5464H25.3477V43.0886ZM25.3477 27.0842H2.46094V13.5421C2.46094 7.53619 7.70138 2.4622 13.9043 2.4622C20.1072 2.4622 25.3477 7.53619 25.3477 13.5421V27.0842Z" fill="white"/>
<path d="M16.7762 5.41734C16.1355 5.19045 15.4324 5.52568 15.2054 6.16646C14.9784 6.80738 15.3137 7.51107 15.9543 7.73821C18.4081 8.60823 20.0566 10.9407 20.0566 13.5421V16.0043C20.0566 16.6843 20.6075 17.2354 21.2871 17.2354C21.9667 17.2354 22.5176 16.6843 22.5176 16.0043V13.5421C22.5176 9.90015 20.2103 6.63502 16.7762 5.41734Z" fill="white"/>
<path d="M46.6348 24.2527C38.0073 24.2527 30.2695 31.5854 30.2695 40.6264C30.2695 49.4563 37.8101 57 46.6348 57C55.4257 57 63 49.5249 63 40.6264C63 31.7964 55.4594 24.2527 46.6348 24.2527ZM46.6348 54.5378C39.0979 54.5378 32.7305 48.1671 32.7305 40.6264C32.7305 37.4119 33.9006 34.3055 36.0456 31.7728L55.4834 51.2206C52.9536 53.3675 49.854 54.5378 46.6348 54.5378ZM57.2237 49.4796L37.7868 30.0327C40.3029 27.9104 43.4592 26.7149 46.6348 26.7149C54.1716 26.7149 60.5391 33.0856 60.5391 40.6264C60.5391 43.8474 59.3694 46.9484 57.2237 49.4796Z" fill="white"/>
</svg>
