<svg width="57" height="57" viewBox="0 0 57 57" fill="none" xmlns="http://www.w3.org/2000/svg">
<path d="M19.5938 34.0664C18.9792 34.0664 18.4805 34.5652 18.4805 35.1797C18.4805 35.7942 18.9792 36.293 19.5938 36.293C20.2083 36.293 20.707 35.7942 20.707 35.1797C20.707 34.5652 20.2083 34.0664 19.5938 34.0664Z" fill="white"/>
<path d="M28.5 16.2539C26.3446 16.2539 24.2232 16.8246 22.3654 17.9041C21.8338 18.2131 21.6533 18.8945 21.9621 19.4261C22.271 19.9577 22.9524 20.1381 23.484 19.8293C25.0025 18.9468 26.7371 18.4805 28.5 18.4805C34.0248 18.4805 38.5195 22.9752 38.5195 28.5C38.5195 34.0248 34.0248 38.5195 28.5 38.5195C22.9752 38.5195 18.4805 34.0248 18.4805 28.5C18.4805 27.6934 18.5772 26.8891 18.768 26.1096C18.9142 25.5124 18.5486 24.9097 17.9513 24.7635C17.3537 24.6164 16.7514 24.9829 16.6053 25.5801C16.3721 26.5328 16.2539 27.5152 16.2539 28.5C16.2539 35.2525 21.7475 40.7461 28.5 40.7461C35.2525 40.7461 40.7461 35.2525 40.7461 28.5C40.7461 21.7475 35.2525 16.2539 28.5 16.2539Z" fill="white"/>
<path d="M52.5469 24.0469C50.4757 24.0469 48.7303 25.4682 48.2347 27.3867H45.1618C44.9217 23.7147 43.4961 20.2725 41.0693 17.5051L43.4366 15.1377C45.1007 16.1233 47.3473 15.9506 48.8486 14.4494C50.5842 12.7137 50.5843 9.8885 48.8482 8.151C47.1113 6.41562 44.2862 6.41573 42.5505 8.15133C41.0492 9.65282 40.8768 11.8994 41.8622 13.5633L39.4949 15.9306C36.7277 13.5039 33.2854 12.0783 29.6133 11.8382V8.76531C31.5318 8.26968 32.9531 6.52427 32.9531 4.45312C32.9531 1.99767 30.9555 0 28.5 0C26.0445 0 24.0469 1.99767 24.0469 4.45312C24.0469 6.52427 25.4682 8.26968 27.3867 8.76531V11.8382C23.7147 12.0783 20.2725 13.5039 17.5051 15.9307L15.1377 13.5633C16.1231 11.8994 15.9508 9.65293 14.4494 8.15133C12.7137 6.41573 9.8885 6.41562 8.151 8.15167C6.41551 9.8885 6.41562 12.7137 8.15133 14.4493C9.65282 15.951 11.8995 16.1232 13.5634 15.1378L15.9307 17.5051C13.504 20.2723 12.0783 23.7146 11.8382 27.3867H8.76531C8.26968 25.4682 6.52427 24.0469 4.45312 24.0469C1.99767 24.0469 0 26.0445 0 28.5C0 30.9555 1.99767 32.9531 4.45312 32.9531C6.52427 32.9531 8.26968 31.5318 8.76531 29.6133H11.8382C12.0783 33.2853 13.5039 36.7275 15.9307 39.4949L13.5634 41.8623C11.8993 40.8767 9.65271 41.0494 8.15145 42.5506C6.41584 44.2863 6.41573 47.1115 8.15178 48.849C9.88828 50.5839 12.7133 50.5847 14.4495 48.8487C15.9508 47.3472 16.1232 45.1006 15.1378 43.4367L17.5051 41.0694C20.2723 43.4961 23.7146 44.9217 27.3867 45.1618V48.2347C25.4682 48.7303 24.0469 50.4757 24.0469 52.5469C24.0469 55.0023 26.0445 57 28.5 57C30.9555 57 32.9531 55.0023 32.9531 52.5469C32.9531 50.4757 31.5318 48.7303 29.6133 48.2347V45.1618C33.2853 44.9217 36.7275 43.4961 39.4949 41.0693L41.8623 43.4367C40.8747 45.1044 41.0521 47.35 42.5506 48.8487C44.2862 50.5842 47.1114 50.5844 48.849 48.8483C50.5844 47.1114 50.5843 44.2862 48.8487 42.5507C47.3472 41.049 45.1005 40.8768 43.4366 41.8622L41.0693 39.4949C43.496 36.7277 44.9217 33.2854 45.1618 29.6133H48.2347C48.7303 31.5318 50.4757 32.9531 52.5469 32.9531C55.0023 32.9531 57 30.9555 57 28.5C57 26.0445 55.0023 24.0469 52.5469 24.0469ZM44.125 9.72574C44.9926 8.85816 46.4056 8.85771 47.2739 9.7254C48.142 10.5942 48.1422 12.007 47.2743 12.8749C46.4059 13.7432 44.9974 13.7481 44.1247 12.8745C43.2545 12.0053 43.2543 10.5964 44.125 9.72574ZM12.8747 12.8752C12.0052 13.7457 10.5964 13.7458 9.72574 12.8749C8.85782 12.007 8.85804 10.5942 9.7254 9.72607C10.5934 8.85871 12.0066 8.85726 12.875 9.72574C13.745 10.5957 13.7464 12.0043 12.8747 12.8752ZM4.45312 30.7266C3.2254 30.7266 2.22656 29.7277 2.22656 28.5C2.22656 27.2723 3.2254 26.2734 4.45312 26.2734C5.68085 26.2734 6.67969 27.2723 6.67969 28.5C6.67969 29.7277 5.68085 30.7266 4.45312 30.7266ZM12.875 47.2743C12.0071 48.1421 10.5941 48.1421 9.72607 47.2746C8.85804 46.4058 8.85782 44.993 9.72574 44.125C10.5941 43.2567 12.0026 43.2519 12.8753 44.1255C13.7455 44.9947 13.7457 46.4036 12.875 47.2743ZM44.1253 44.1248C44.9949 43.2543 46.4036 43.2543 47.2743 44.125C48.1422 44.993 48.142 46.4058 47.2746 47.2739C46.4059 48.1421 44.9929 48.1422 44.125 47.2743C43.255 46.4043 43.2536 44.9957 44.1253 44.1248ZM26.2734 4.45312C26.2734 3.2254 27.2723 2.22656 28.5 2.22656C29.7277 2.22656 30.7266 3.2254 30.7266 4.45312C30.7266 5.68085 29.7277 6.67969 28.5 6.67969C27.2723 6.67969 26.2734 5.68085 26.2734 4.45312ZM30.7266 52.5469C30.7266 53.7746 29.7277 54.7734 28.5 54.7734C27.2723 54.7734 26.2734 53.7746 26.2734 52.5469C26.2734 51.3191 27.2723 50.3203 28.5 50.3203C29.7277 50.3203 30.7266 51.3191 30.7266 52.5469ZM38.7429 38.7255C38.7398 38.7284 38.7366 38.7308 38.7337 38.7337C38.7308 38.7366 38.7284 38.7398 38.7256 38.7427C35.9923 41.4704 32.3613 42.9727 28.5 42.9727C24.6346 42.9727 20.9998 41.4674 18.2658 38.7345C15.5326 36.0001 14.0273 32.3655 14.0273 28.5C14.0273 24.6386 15.5296 21.0076 18.2571 18.2745C18.26 18.2716 18.2633 18.2692 18.2663 18.2663C18.2692 18.2634 18.2716 18.2601 18.2744 18.2573C21.0077 15.5296 24.6387 14.0273 28.5 14.0273C32.3654 14.0273 36.0002 15.5326 38.7342 18.2655C41.4674 20.9999 42.9727 24.6345 42.9727 28.5C42.9727 32.3614 41.4704 35.9924 38.7429 38.7255ZM52.5469 30.7266C51.3191 30.7266 50.3203 29.7277 50.3203 28.5C50.3203 27.2723 51.3191 26.2734 52.5469 26.2734C53.7746 26.2734 54.7734 27.2723 54.7734 28.5C54.7734 29.7277 53.7746 30.7266 52.5469 30.7266Z" fill="white"/>
</svg>
