<svg width="35" height="56" viewBox="0 0 35 56" fill="none" xmlns="http://www.w3.org/2000/svg">
<path d="M20.3671 20.7375C21.9519 21.7492 23.77 22.3226 25.6412 22.4008C26.1206 22.4046 26.5983 22.3448 27.0625 22.2226C27.9158 22.0261 28.652 21.483 29.0989 20.7208C30.3166 18.5153 28.4146 15.0673 24.7701 12.8721C22.4073 11.4412 19.9066 10.884 18.0831 11.3788C17.2272 11.5745 16.4877 12.1171 16.0374 12.8806C14.794 15.1139 16.6555 18.4901 20.3671 20.7375ZM17.6429 13.7996C17.8512 13.4745 18.1822 13.2493 18.5583 13.1771C18.8618 13.1002 19.1739 13.0635 19.4867 13.0669C21.0282 13.1519 22.5224 13.636 23.8269 14.4726C26.6653 16.1825 28.103 18.699 27.4917 19.8061C27.2851 20.1286 26.9575 20.3521 26.5843 20.4239C25.2756 20.7823 23.2033 20.2743 21.3102 19.1348C18.4681 17.413 17.0295 14.9003 17.6429 13.7996Z" fill="#FFFEFE"/>
<path d="M14.7366 38.2679C15.2456 38.2679 15.6579 37.85 15.6579 37.3343C15.6579 37.0639 16.3026 36.4012 17.5 36.4012C18.0085 36.4012 18.4212 35.9834 18.4212 35.4677C18.4212 34.9524 18.0085 34.5345 17.5 34.5345C15.5032 34.5345 13.8158 35.8167 13.8158 37.3343C13.8158 37.85 14.2282 38.2679 14.7366 38.2679Z" fill="#FFFEFE"/>
<path d="M16.5788 39.201C16.5788 39.7167 16.9915 40.1346 17.5 40.1346C19.4968 40.1346 21.1842 38.8519 21.1842 37.3343C21.1842 36.819 20.7718 36.4012 20.2634 36.4012C19.7545 36.4012 19.3421 36.819 19.3421 37.3343C19.3421 37.6052 18.6974 38.2679 17.5 38.2679C16.9915 38.2679 16.5788 38.6857 16.5788 39.201Z" fill="#FFFEFE"/>
<path d="M34.0792 28.6746C34.6471 28.3439 34.9979 27.7313 35 27.0673V23.3339C34.9895 14.0598 27.5731 6.54433 18.4213 6.53365H16.5788C16.2883 6.52937 16.0176 6.38453 15.8506 6.14356C16.3077 5.79363 16.5775 5.2476 16.5788 4.66695V1.8667C16.5788 0.835719 15.7541 0 14.7367 0H7.36835C6.35097 0 5.52627 0.835719 5.52627 1.8667V4.66695C5.52838 5.10916 5.68649 5.53642 5.97193 5.87097C0.0451384 13.4638 0.00719215 23.248 2.4547e-05 27.0673C-0.00250526 27.5616 0.190599 28.0359 0.53591 28.3845C0.652701 28.4995 0.783405 28.5982 0.925492 28.6785V34.5072C0.925492 34.5166 0.920855 34.5242 0.920855 34.5324V40.1329C0.920855 40.141 0.925492 40.1487 0.925492 40.1581V45.9923C0.357563 46.323 0.00634885 46.9357 0.00466235 47.5997V50.3995C0.00803535 53.4911 2.48045 55.9962 5.53091 56H29.4738C32.5246 55.9966 34.997 53.4911 35 50.3995V47.6014C34.9979 46.9374 34.6471 46.3251 34.0792 45.994V28.6746ZM32.2371 28.9344V33.6009H23.5465C22.0278 31.8227 19.8211 30.8007 17.5 30.8007C15.179 30.8007 12.9722 31.8227 11.4535 33.6009H2.76757V28.9344H32.2371ZM2.76757 35.4676H11.9185C12.2246 35.4681 12.5105 35.3138 12.6821 35.057C13.8066 33.5112 15.6052 32.6191 17.5 32.6678C19.3948 32.6191 21.1935 33.5112 22.3179 35.057C22.4895 35.3138 22.7754 35.4681 23.0815 35.4676H32.2371V39.201H23.0815C22.7754 39.201 22.4895 39.3548 22.3179 39.612C21.1935 41.1579 19.3948 42.05 17.5 42.0013C15.6052 42.05 13.8066 41.1579 12.6821 39.612C12.5105 39.3548 12.2246 39.201 11.9185 39.201H2.76757V35.4676ZM2.76757 41.0677H11.4535C12.9722 42.8464 15.179 43.868 17.5 43.868C19.8211 43.868 22.0278 42.8464 23.5465 41.0677H32.2371V45.7347H2.76757V41.0677ZM7.36835 1.8667H14.7367V4.66695H7.36835V1.8667ZM7.80853 6.53365H13.9853C14.3741 7.64837 15.4121 8.39522 16.5788 8.40034H18.4213C26.5561 8.41017 33.1482 15.0904 33.1579 23.3339V27.0673H4.60966L1.84211 27.0237C1.84927 23.348 1.8809 13.6774 7.80853 6.53365ZM33.1579 50.4016C33.1579 52.4636 31.5085 54.135 29.4738 54.135H5.53091C3.49614 54.135 1.84674 52.4636 1.84674 50.4016V47.6014H33.1579V50.4016Z" fill="#FFFEFE"/>
</svg>
