<svg width="56" height="56" viewBox="0 0 56 56" fill="none" xmlns="http://www.w3.org/2000/svg">
<path d="M54.9062 7.69192C56.3636 6.23414 56.3636 3.87101 54.9062 2.4128L53.5865 1.09302C52.1287 -0.364339 49.7652 -0.364339 48.3074 1.09302L36.3339 13.0663H29.8666C29.1758 13.0685 28.5101 13.3282 28 13.7944C27.4899 13.3282 26.8242 13.0685 26.1334 13.0663H6.53345C4.98682 13.0663 3.73328 14.3199 3.73328 15.8661H2.80017C1.25354 15.8661 0 17.1197 0 18.6663V53.2002C0 54.7464 1.25354 56 2.80017 56H26.1334C26.8242 55.9974 27.4899 55.7381 28 55.272C28.5101 55.7381 29.1758 55.9974 29.8666 56H53.1998C54.7465 56 56 54.7464 56 53.2002V18.6663C56 17.1197 54.7465 15.8661 53.1998 15.8661H51.3332C51.3293 14.6527 50.5428 13.5807 49.3862 13.2129L54.9062 7.69192ZM48.9675 10.9924L47.6465 9.67266L48.9662 8.35288L50.2869 9.67266L48.9675 10.9924ZM26.309 28.1658C26.632 28.3376 26.928 28.5555 27.1878 28.8127C27.4527 29.081 27.6761 29.3873 27.8505 29.7219L27.7945 29.7505C27.6407 29.7821 27.4971 29.853 27.3784 29.956L24.8268 31.2198L26.309 28.1658ZM29.5206 28.8956C28.9998 27.8582 28.1602 27.0152 27.1246 26.4906L28.1141 24.4586L31.5487 27.8932L29.5206 28.8956ZM33.1278 26.8328L29.1677 22.8726L37.3652 14.6745C37.3776 14.6634 37.3896 14.6519 37.4007 14.6399L43.6876 8.35288L47.6431 12.3084L46.6301 13.3218C46.6177 13.3325 46.6057 13.344 46.5946 13.3564L33.1278 26.8328ZM49.6272 2.4128C50.3655 1.7074 51.5284 1.7074 52.2667 2.4128L53.5865 3.73258C54.3149 4.46147 54.3149 5.64325 53.5865 6.37214L51.6066 8.35288L47.6465 4.39268L49.6272 2.4128ZM46.3267 5.71246L47.6465 7.0331L46.3267 8.35288L45.0074 7.03224L46.3267 5.71246ZM29.8666 14.933H34.4672L28.9335 20.4667V15.8661C28.9335 15.3508 29.3514 14.933 29.8666 14.933ZM5.59991 15.8661C5.59991 15.3508 6.01776 14.933 6.53345 14.933H26.1334C26.6486 14.933 27.0665 15.3508 27.0665 15.8661V22.3877C27.0455 22.4112 27.0263 22.4364 27.0088 22.4629L23.111 30.476C22.8401 31.1639 23.0063 31.9474 23.5331 32.4665C23.8745 32.8139 24.3415 33.0087 24.8286 33.007C25.0917 33.0049 25.3519 32.954 25.5967 32.8566L27.0665 32.141V49.4665C27.0665 49.9822 26.6486 50.4 26.1334 50.4H6.53345C6.01776 50.4 5.59991 49.9822 5.59991 49.4665V15.8661ZM26.1334 54.1333H2.80017C2.28448 54.1333 1.86664 53.7155 1.86664 53.2002V18.6663C1.86664 18.1506 2.28448 17.7328 2.80017 17.7328H3.73328V49.4665C3.73328 51.0131 4.98682 52.2667 6.53345 52.2667H26.1334C26.4521 52.2637 26.7678 52.2056 27.0665 52.0949V53.2002C27.0665 53.7155 26.6486 54.1333 26.1334 54.1333ZM53.1998 17.7328C53.7155 17.7328 54.1334 18.1506 54.1334 18.6663V53.2002C54.1334 53.7155 53.7155 54.1333 53.1998 54.1333H29.8666C29.3514 54.1333 28.9335 53.7155 28.9335 53.2002V52.1069C29.233 52.2128 29.5488 52.2667 29.8666 52.2667H48.5334C50.0797 52.2667 51.3332 51.0131 51.3332 49.4665V17.7328H53.1998ZM48.5334 14.933C49.0487 14.933 49.4666 15.3508 49.4666 15.8661V49.4665C49.4666 49.9822 49.0487 50.4 48.5334 50.4H29.8666C29.3514 50.4 28.9335 49.9822 28.9335 49.4665V31.2326L33.5367 28.9926C33.6161 28.9272 33.6999 28.8674 33.7875 28.8135L47.6661 14.933H48.5334Z" fill="white"/>
<path d="M43.0267 11.6521L42.367 12.3118C42.1243 12.5464 42.0269 12.8933 42.1124 13.2197C42.1978 13.5461 42.4525 13.8008 42.7789 13.8862C43.1053 13.9717 43.4522 13.8743 43.6863 13.6316L44.3464 12.9719C44.7002 12.6057 44.6951 12.0234 44.3349 11.6637C43.9752 11.3035 43.3928 11.2984 43.0267 11.6521Z" fill="white"/>
<path d="M39.7275 14.9526L33.1278 21.552C32.8851 21.7865 32.7877 22.1335 32.8732 22.4599C32.9586 22.7863 33.2137 23.0409 33.5397 23.1264C33.8661 23.2118 34.213 23.1144 34.4476 22.8717L41.0472 16.272C41.4006 15.9058 41.3959 15.3239 41.0357 14.9637C40.6755 14.604 40.0936 14.5989 39.7275 14.9526Z" fill="white"/>
<path d="M8.40009 21.4661H9.33319C9.84888 21.4661 10.2667 21.0482 10.2667 20.533C10.2667 20.0173 9.84888 19.5994 9.33319 19.5994H8.40009C7.8844 19.5994 7.46655 20.0173 7.46655 20.533C7.46655 21.0482 7.8844 21.4661 8.40009 21.4661Z" fill="white"/>
<path d="M13.0665 21.4661H23.3332C23.8489 21.4661 24.2667 21.0482 24.2667 20.533C24.2667 20.0173 23.8489 19.5994 23.3332 19.5994H13.0665C12.5512 19.5994 12.1334 20.0173 12.1334 20.533C12.1334 21.0482 12.5512 21.4661 13.0665 21.4661Z" fill="white"/>
<path d="M8.40009 25.1998H9.33319C9.84888 25.1998 10.2667 24.7816 10.2667 24.2663C10.2667 23.751 9.84888 23.3328 9.33319 23.3328H8.40009C7.8844 23.3328 7.46655 23.751 7.46655 24.2663C7.46655 24.7816 7.8844 25.1998 8.40009 25.1998Z" fill="white"/>
<path d="M13.0665 25.1998H23.3332C23.8489 25.1998 24.2667 24.7816 24.2667 24.2663C24.2667 23.751 23.8489 23.3328 23.3332 23.3328H13.0665C12.5512 23.3328 12.1334 23.751 12.1334 24.2663C12.1334 24.7816 12.5512 25.1998 13.0665 25.1998Z" fill="white"/>
<path d="M8.40009 28.9332H9.33319C9.84888 28.9332 10.2667 28.5153 10.2667 27.9996C10.2667 27.4844 9.84888 27.0665 9.33319 27.0665H8.40009C7.8844 27.0665 7.46655 27.4844 7.46655 27.9996C7.46655 28.5153 7.8844 28.9332 8.40009 28.9332Z" fill="white"/>
<path d="M13.0665 28.9332H20.5334C21.0487 28.9332 21.4666 28.5153 21.4666 27.9996C21.4666 27.4844 21.0487 27.0665 20.5334 27.0665H13.0665C12.5512 27.0665 12.1334 27.4844 12.1334 27.9996C12.1334 28.5153 12.5512 28.9332 13.0665 28.9332Z" fill="white"/>
<path d="M8.40009 32.6665H9.33319C9.84888 32.6665 10.2667 32.2486 10.2667 31.733C10.2667 31.2177 9.84888 30.7998 9.33319 30.7998H8.40009C7.8844 30.7998 7.46655 31.2177 7.46655 31.733C7.46655 32.2486 7.8844 32.6665 8.40009 32.6665Z" fill="white"/>
<path d="M13.0665 32.6665H20.5334C21.0487 32.6665 21.4666 32.2486 21.4666 31.733C21.4666 31.2177 21.0487 30.7998 20.5334 30.7998H13.0665C12.5512 30.7998 12.1334 31.2177 12.1334 31.733C12.1334 32.2486 12.5512 32.6665 13.0665 32.6665Z" fill="white"/>
<path d="M8.40009 36.3998H9.33319C9.84888 36.3998 10.2667 35.982 10.2667 35.4663C10.2667 34.951 9.84888 34.5332 9.33319 34.5332H8.40009C7.8844 34.5332 7.46655 34.951 7.46655 35.4663C7.46655 35.982 7.8844 36.3998 8.40009 36.3998Z" fill="white"/>
<path d="M13.0665 36.3998H23.3332C23.8489 36.3998 24.2667 35.982 24.2667 35.4663C24.2667 34.951 23.8489 34.5332 23.3332 34.5332H13.0665C12.5512 34.5332 12.1334 34.951 12.1334 35.4663C12.1334 35.982 12.5512 36.3998 13.0665 36.3998Z" fill="white"/>
<path d="M8.40009 40.1331H9.33319C9.84888 40.1331 10.2667 39.7153 10.2667 39.2C10.2667 38.6843 9.84888 38.2665 9.33319 38.2665H8.40009C7.8844 38.2665 7.46655 38.6843 7.46655 39.2C7.46655 39.7153 7.8844 40.1331 8.40009 40.1331Z" fill="white"/>
<path d="M13.0665 40.1331H23.3332C23.8489 40.1331 24.2667 39.7153 24.2667 39.2C24.2667 38.6843 23.8489 38.2665 23.3332 38.2665H13.0665C12.5512 38.2665 12.1334 38.6843 12.1334 39.2C12.1334 39.7153 12.5512 40.1331 13.0665 40.1331Z" fill="white"/>
<path d="M8.40009 43.8665H9.33319C9.84888 43.8665 10.2667 43.4486 10.2667 42.9334C10.2667 42.4177 9.84888 41.9998 9.33319 41.9998H8.40009C7.8844 41.9998 7.46655 42.4177 7.46655 42.9334C7.46655 43.4486 7.8844 43.8665 8.40009 43.8665Z" fill="white"/>
<path d="M13.0665 43.8665H23.3332C23.8489 43.8665 24.2667 43.4486 24.2667 42.9334C24.2667 42.4177 23.8489 41.9998 23.3332 41.9998H13.0665C12.5512 41.9998 12.1334 42.4177 12.1334 42.9334C12.1334 43.4486 12.5512 43.8665 13.0665 43.8665Z" fill="white"/>
<path d="M8.40009 47.5998H9.33319C9.84888 47.5998 10.2667 47.1819 10.2667 46.6667C10.2667 46.151 9.84888 45.7331 9.33319 45.7331H8.40009C7.8844 45.7331 7.46655 46.151 7.46655 46.6667C7.46655 47.1819 7.8844 47.5998 8.40009 47.5998Z" fill="white"/>
<path d="M13.0665 47.5998H23.3332C23.8489 47.5998 24.2667 47.1819 24.2667 46.6667C24.2667 46.151 23.8489 45.7331 23.3332 45.7331H13.0665C12.5512 45.7331 12.1334 46.151 12.1334 46.6667C12.1334 47.1819 12.5512 47.5998 13.0665 47.5998Z" fill="white"/>
</svg>
