<svg width="62" height="59" viewBox="0 0 62 59" fill="none" xmlns="http://www.w3.org/2000/svg">
<mask id="path-1-outside-1" maskUnits="userSpaceOnUse" x="0" y="-1.52588e-05" width="62" height="59" fill="black">
<rect fill="white" y="-1.52588e-05" width="62" height="59"/>
<path d="M55.4982 7.80699C53.5987 5.44786 51.1652 3.57461 48.3987 2.34198C46.3812 1.45686 44.2021 0.999985 41.9992 0.999985C38.1405 0.999985 34.9997 4.73798 34.9997 9.33298C34.969 11.4416 35.6695 13.4957 36.9826 15.146C37.46 15.7409 38.0287 16.2562 38.6674 16.673C36.5726 18.136 35.2471 20.4637 35.0577 23.012C35.0386 23.007 35.0192 23.0029 34.9997 23C33.343 23 32 24.3431 32 26V57C32 57.5522 32.4477 58 32.9999 58C33.5521 58 33.9998 57.5522 33.9998 57V26C33.9998 25.4477 34.4475 25 34.9997 25C35.0187 25 35.0347 24.99 35.0537 24.989C35.2055 26.7534 35.8774 28.433 36.9846 29.815C37.4613 30.4091 38.0294 30.9239 38.6674 31.34C36.296 33.0147 34.9195 35.7647 34.9997 38.667C34.9687 40.7754 35.6694 42.8292 36.9826 44.479C38.1799 46.044 40.029 46.9732 41.9992 47C44.2021 47.0006 46.3812 46.544 48.3987 45.659C55.9331 42.4 60.9977 33.7 60.9977 24C61.0756 18.1314 59.134 12.4142 55.4982 7.80699ZM58.9979 24C58.9979 32.913 54.4182 40.88 47.5988 43.824C45.8335 44.5986 43.9269 44.999 41.9992 45C40.6299 44.9666 39.3514 44.3077 38.5295 43.212C37.5099 41.9191 36.9693 40.3132 36.9996 38.667C36.9996 35.175 39.2424 32.333 41.9992 32.333C42.5514 32.333 42.9991 31.8852 42.9991 31.333C42.9991 30.7807 42.5514 30.333 41.9992 30.333C40.633 30.3011 39.3568 29.6452 38.5355 28.553L38.5305 28.546C37.5103 27.253 36.9695 25.6467 36.9996 24C36.9996 20.508 39.2424 17.667 41.9992 17.667C42.5514 17.667 42.9991 17.2192 42.9991 16.667C42.9991 16.1147 42.5514 15.667 41.9992 15.667C40.6302 15.6339 39.3518 14.975 38.5305 13.879C37.5103 12.586 36.9695 10.9797 36.9996 9.33298C36.9996 5.84098 39.2424 2.99998 41.9992 2.99998C43.927 3.00173 45.8336 3.40273 47.5988 4.17798C50.0732 5.28336 52.2495 6.96111 53.9483 9.07298C57.2925 13.3227 59.0753 18.5926 58.9979 24Z"/>
<path d="M27.0003 23C26.9808 23.0029 26.9614 23.007 26.9423 23.012C26.753 20.4644 25.4278 18.137 23.3336 16.674C23.9699 16.2582 24.5365 15.7446 25.0125 15.152C26.3282 13.5007 27.0308 11.4442 27.0003 9.33298C27.0003 4.73798 23.8595 0.999985 20.0008 0.999985C17.7996 0.999985 15.6223 1.45623 13.6063 2.33999C10.8379 3.57411 8.40283 5.44899 6.50184 7.80999C2.86599 12.4161 0.924385 18.1322 1.00225 24C1.00225 33.7 6.06688 42.4 13.6013 45.658C15.6188 46.5431 17.7979 47 20.0008 47C21.9682 46.9741 23.815 46.0471 25.0115 44.485C26.3281 42.8345 27.0311 40.7781 27.0003 38.667C27.0806 35.7647 25.704 33.0147 23.3326 31.34C23.9707 30.9239 24.5387 30.4091 25.0155 29.815C26.1226 28.433 26.7946 26.7534 26.9463 24.989C26.9653 24.989 26.9813 25 27.0003 25C27.5525 25 28.0002 25.4477 28.0002 26V57C28.0002 57.5522 28.448 58 29.0002 58C29.5524 58 30.0001 57.5522 30.0001 57V26C30.0001 24.3431 28.6571 23 27.0003 23ZM23.4696 28.546L23.4646 28.553C22.6433 29.6452 21.367 30.3012 20.0008 30.333C19.4486 30.333 19.0009 30.7807 19.0009 31.333C19.0009 31.8852 19.4486 32.333 20.0008 32.333C22.7576 32.333 25.0005 35.175 25.0005 38.667C25.0303 40.3164 24.4876 41.925 23.4646 43.219C22.6433 44.3114 21.3671 44.9675 20.0008 45C18.0731 44.9984 16.1665 44.5976 14.4013 43.823C7.58176 40.88 3.0021 32.913 3.0021 24C2.92249 18.5947 4.70235 13.3262 8.04373 9.07699C9.74398 6.96261 11.9228 5.28311 14.4003 4.17698C16.1657 3.40186 18.0727 3.00111 20.0008 2.99998C22.7576 2.99998 25.0005 5.84098 25.0005 9.33298C25.0302 10.9826 24.4875 12.5915 23.4646 13.886C22.6433 14.9784 21.3671 15.6345 20.0008 15.667C19.4486 15.667 19.0009 16.1147 19.0009 16.667C19.0009 17.2192 19.4486 17.667 20.0008 17.667C22.7576 17.667 25.0005 20.508 25.0005 24C25.0307 25.6467 24.4897 27.253 23.4696 28.546Z"/>
</mask>
<path d="M55.4982 7.80699C53.5987 5.44786 51.1652 3.57461 48.3987 2.34198C46.3812 1.45686 44.2021 0.999985 41.9992 0.999985C38.1405 0.999985 34.9997 4.73798 34.9997 9.33298C34.969 11.4416 35.6695 13.4957 36.9826 15.146C37.46 15.7409 38.0287 16.2562 38.6674 16.673C36.5726 18.136 35.2471 20.4637 35.0577 23.012C35.0386 23.007 35.0192 23.0029 34.9997 23C33.343 23 32 24.3431 32 26V57C32 57.5522 32.4477 58 32.9999 58C33.5521 58 33.9998 57.5522 33.9998 57V26C33.9998 25.4477 34.4475 25 34.9997 25C35.0187 25 35.0347 24.99 35.0537 24.989C35.2055 26.7534 35.8774 28.433 36.9846 29.815C37.4613 30.4091 38.0294 30.9239 38.6674 31.34C36.296 33.0147 34.9195 35.7647 34.9997 38.667C34.9687 40.7754 35.6694 42.8292 36.9826 44.479C38.1799 46.044 40.029 46.9732 41.9992 47C44.2021 47.0006 46.3812 46.544 48.3987 45.659C55.9331 42.4 60.9977 33.7 60.9977 24C61.0756 18.1314 59.134 12.4142 55.4982 7.80699ZM58.9979 24C58.9979 32.913 54.4182 40.88 47.5988 43.824C45.8335 44.5986 43.9269 44.999 41.9992 45C40.6299 44.9666 39.3514 44.3077 38.5295 43.212C37.5099 41.9191 36.9693 40.3132 36.9996 38.667C36.9996 35.175 39.2424 32.333 41.9992 32.333C42.5514 32.333 42.9991 31.8852 42.9991 31.333C42.9991 30.7807 42.5514 30.333 41.9992 30.333C40.633 30.3011 39.3568 29.6452 38.5355 28.553L38.5305 28.546C37.5103 27.253 36.9695 25.6467 36.9996 24C36.9996 20.508 39.2424 17.667 41.9992 17.667C42.5514 17.667 42.9991 17.2192 42.9991 16.667C42.9991 16.1147 42.5514 15.667 41.9992 15.667C40.6302 15.6339 39.3518 14.975 38.5305 13.879C37.5103 12.586 36.9695 10.9797 36.9996 9.33298C36.9996 5.84098 39.2424 2.99998 41.9992 2.99998C43.927 3.00173 45.8336 3.40273 47.5988 4.17798C50.0732 5.28336 52.2495 6.96111 53.9483 9.07298C57.2925 13.3227 59.0753 18.5926 58.9979 24Z" fill="black"/>
<path d="M27.0003 23C26.9808 23.0029 26.9614 23.007 26.9423 23.012C26.753 20.4644 25.4278 18.137 23.3336 16.674C23.9699 16.2582 24.5365 15.7446 25.0125 15.152C26.3282 13.5007 27.0308 11.4442 27.0003 9.33298C27.0003 4.73798 23.8595 0.999985 20.0008 0.999985C17.7996 0.999985 15.6223 1.45623 13.6063 2.33999C10.8379 3.57411 8.40283 5.44899 6.50184 7.80999C2.86599 12.4161 0.924385 18.1322 1.00225 24C1.00225 33.7 6.06688 42.4 13.6013 45.658C15.6188 46.5431 17.7979 47 20.0008 47C21.9682 46.9741 23.815 46.0471 25.0115 44.485C26.3281 42.8345 27.0311 40.7781 27.0003 38.667C27.0806 35.7647 25.704 33.0147 23.3326 31.34C23.9707 30.9239 24.5387 30.4091 25.0155 29.815C26.1226 28.433 26.7946 26.7534 26.9463 24.989C26.9653 24.989 26.9813 25 27.0003 25C27.5525 25 28.0002 25.4477 28.0002 26V57C28.0002 57.5522 28.448 58 29.0002 58C29.5524 58 30.0001 57.5522 30.0001 57V26C30.0001 24.3431 28.6571 23 27.0003 23ZM23.4696 28.546L23.4646 28.553C22.6433 29.6452 21.367 30.3012 20.0008 30.333C19.4486 30.333 19.0009 30.7807 19.0009 31.333C19.0009 31.8852 19.4486 32.333 20.0008 32.333C22.7576 32.333 25.0005 35.175 25.0005 38.667C25.0303 40.3164 24.4876 41.925 23.4646 43.219C22.6433 44.3114 21.3671 44.9675 20.0008 45C18.0731 44.9984 16.1665 44.5976 14.4013 43.823C7.58176 40.88 3.0021 32.913 3.0021 24C2.92249 18.5947 4.70235 13.3262 8.04373 9.07699C9.74398 6.96261 11.9228 5.28311 14.4003 4.17698C16.1657 3.40186 18.0727 3.00111 20.0008 2.99998C22.7576 2.99998 25.0005 5.84098 25.0005 9.33298C25.0302 10.9826 24.4875 12.5915 23.4646 13.886C22.6433 14.9784 21.3671 15.6345 20.0008 15.667C19.4486 15.667 19.0009 16.1147 19.0009 16.667C19.0009 17.2192 19.4486 17.667 20.0008 17.667C22.7576 17.667 25.0005 20.508 25.0005 24C25.0307 25.6467 24.4897 27.253 23.4696 28.546Z" fill="black"/>
<path d="M55.4982 7.80699L55.5767 7.74503L55.5761 7.74427L55.4982 7.80699ZM48.3987 2.34198L48.4394 2.25064L48.4389 2.25041L48.3987 2.34198ZM34.9997 9.33298L35.0997 9.33444V9.33298H34.9997ZM36.9826 15.146L36.9043 15.2082L36.9046 15.2086L36.9826 15.146ZM38.6674 16.673L38.7247 16.755L38.8461 16.6702L38.7221 16.5892L38.6674 16.673ZM35.0577 23.012L35.0324 23.1087L35.1485 23.1391L35.1574 23.0194L35.0577 23.012ZM34.9997 23L35.0143 22.9011L35.0071 22.9H34.9997V23ZM35.0537 24.989L35.1534 24.9804L35.1451 24.884L35.0485 24.8891L35.0537 24.989ZM36.9846 29.815L36.9065 29.8775L36.9066 29.8776L36.9846 29.815ZM38.6674 31.34L38.7251 31.4217L38.8455 31.3367L38.7221 31.2562L38.6674 31.34ZM34.9997 38.667L35.0998 38.6685L35.0997 38.6642L34.9997 38.667ZM36.9826 44.479L37.062 44.4182L37.0608 44.4167L36.9826 44.479ZM41.9992 47L41.9978 47.1H41.9992L41.9992 47ZM48.3987 45.659L48.359 45.5672L48.3585 45.5674L48.3987 45.659ZM60.9977 24L60.8977 23.9987V24H60.9977ZM58.9979 24L58.8979 23.9986V24H58.9979ZM47.5988 43.824L47.5591 43.7322L47.5586 43.7324L47.5988 43.824ZM41.9992 45L41.9968 45.1L41.9992 45.1L41.9992 45ZM38.5295 43.212L38.6095 43.152L38.608 43.1501L38.5295 43.212ZM36.9996 38.667L37.0996 38.6688V38.667H36.9996ZM41.9992 30.333L41.9969 30.433H41.9992V30.333ZM38.5355 28.553L38.4541 28.6111L38.4555 28.6131L38.5355 28.553ZM38.5305 28.546L38.6119 28.4878L38.609 28.484L38.5305 28.546ZM36.9996 24L37.0996 24.0018V24H36.9996ZM41.9992 15.667L41.9968 15.767H41.9992V15.667ZM38.5305 13.879L38.6105 13.819L38.609 13.817L38.5305 13.879ZM36.9996 9.33298L37.0996 9.33481V9.33298H36.9996ZM41.9992 2.99998L41.9993 2.89998H41.9992V2.99998ZM47.5988 4.17798L47.6396 4.08668L47.639 4.08643L47.5988 4.17798ZM53.9483 9.07298L54.0269 9.01114L54.0262 9.01031L53.9483 9.07298ZM27.0003 23V22.9H26.993L26.9857 22.9011L27.0003 23ZM26.9423 23.012L26.8426 23.0194L26.8515 23.1391L26.9676 23.1087L26.9423 23.012ZM23.3336 16.674L23.2789 16.5903L23.155 16.6712L23.2763 16.756L23.3336 16.674ZM25.0125 15.152L25.0904 15.2146L25.0907 15.2143L25.0125 15.152ZM27.0003 9.33298H26.9003L26.9003 9.33443L27.0003 9.33298ZM13.6063 2.33999L13.5662 2.2484L13.5656 2.24865L13.6063 2.33999ZM6.50184 7.80999L6.42395 7.74727L6.42335 7.74803L6.50184 7.80999ZM1.00225 24H1.10226L1.10225 23.9987L1.00225 24ZM13.6013 45.658L13.6415 45.5664L13.641 45.5662L13.6013 45.658ZM20.0008 47V47.1L20.0021 47.1L20.0008 47ZM25.0115 44.485L24.9333 44.4226L24.9321 44.4242L25.0115 44.485ZM27.0003 38.667L26.9003 38.6642L26.9003 38.6684L27.0003 38.667ZM23.3326 31.34L23.278 31.2562L23.1546 31.3367L23.2749 31.4217L23.3326 31.34ZM25.0155 29.815L25.0935 29.8776L25.0935 29.8775L25.0155 29.815ZM26.9463 24.989V24.889H26.8545L26.8467 24.9804L26.9463 24.989ZM23.4696 28.546L23.391 28.484L23.3882 28.4879L23.4696 28.546ZM23.4646 28.553L23.5445 28.6131L23.546 28.6111L23.4646 28.553ZM20.0008 30.333V30.433L20.0032 30.433L20.0008 30.333ZM25.0005 38.667H24.9004L24.9005 38.6688L25.0005 38.667ZM23.4646 43.219L23.3861 43.1569L23.3846 43.1589L23.4646 43.219ZM20.0008 45L20.0007 45.1L20.0032 45.1L20.0008 45ZM14.4013 43.823L14.4414 43.7314L14.4409 43.7312L14.4013 43.823ZM3.0021 24H3.10212L3.10209 23.9985L3.0021 24ZM8.04373 9.07699L7.96579 9.01432L7.96512 9.01517L8.04373 9.07699ZM14.4003 4.17698L14.3601 4.08542L14.3595 4.08567L14.4003 4.17698ZM20.0008 2.99998V2.89998H20.0008L20.0008 2.99998ZM25.0005 9.33298H24.9004L24.9005 9.33479L25.0005 9.33298ZM23.4646 13.886L23.3861 13.824L23.3846 13.8259L23.4646 13.886ZM20.0008 15.667V15.767L20.0032 15.767L20.0008 15.667ZM25.0005 24H24.9004L24.9005 24.0018L25.0005 24ZM55.5761 7.74427C53.6666 5.37279 51.2204 3.48972 48.4394 2.25064L48.358 2.43333C51.1101 3.6595 53.5307 5.52293 55.4203 7.8697L55.5761 7.74427ZM48.4389 2.25041C46.4087 1.35973 44.216 0.899985 41.9992 0.899985V1.09998C44.1883 1.09998 46.3537 1.55399 48.3585 2.43356L48.4389 2.25041ZM41.9992 0.899985C38.0696 0.899985 34.8997 4.69979 34.8997 9.33298H35.0997C35.0997 4.77618 38.2113 1.09998 41.9992 1.09998V0.899985ZM34.8997 9.33153C34.8687 11.4633 35.5769 13.5399 36.9043 15.2082L37.0608 15.0837C35.7622 13.4516 35.0693 11.42 35.0997 9.33444L34.8997 9.33153ZM36.9046 15.2086C37.3887 15.8117 37.9653 16.3342 38.6128 16.7567L38.7221 16.5892C38.0922 16.1783 37.5314 15.67 37.0606 15.0834L36.9046 15.2086ZM38.6102 16.591C36.4907 18.0712 35.1496 20.4263 34.958 23.0046L35.1574 23.0194C35.3446 20.5011 36.6545 18.2008 38.7247 16.755L38.6102 16.591ZM35.083 22.9152C35.061 22.9095 35.038 22.9045 35.0143 22.9011L34.9851 23.0989C35.0005 23.1012 35.0162 23.1045 35.0324 23.1087L35.083 22.9152ZM34.9997 22.9C33.2877 22.9 31.9 24.2879 31.9 26H32.1C32.1 24.3983 33.3982 23.1 34.9997 23.1V22.9ZM31.9 26V57H32.1V26H31.9ZM31.9 57C31.9 57.6075 32.3924 58.1 32.9999 58.1V57.9C32.5029 57.9 32.1 57.497 32.1 57H31.9ZM32.9999 58.1C33.6073 58.1 34.0998 57.6075 34.0998 57H33.8998C33.8998 57.497 33.4968 57.9 32.9999 57.9V58.1ZM34.0998 57V26H33.8998V57H34.0998ZM34.0998 26C34.0998 25.503 34.5028 25.1 34.9997 25.1V24.9C34.3923 24.9 33.8998 25.3925 33.8998 26H34.0998ZM34.9997 25.1C35.0257 25.1 35.0475 25.093 35.0555 25.0906C35.0671 25.0871 35.0638 25.0886 35.059 25.0888L35.0485 24.8891C35.0357 24.8898 35.0248 24.8919 35.0165 24.8939C35.0087 24.8958 35.0013 24.8981 34.998 24.8991C34.9884 24.9019 34.9927 24.9 34.9997 24.9V25.1ZM34.9541 24.9976C35.1075 26.7816 35.787 28.4801 36.9065 29.8775L37.0626 29.7525C35.9678 28.3859 35.3034 26.7251 35.1534 24.9804L34.9541 24.9976ZM36.9066 29.8776C37.3899 30.4799 37.9659 31.0018 38.6128 31.4237L38.7221 31.2562C38.0929 30.8459 37.5327 30.3383 37.0626 29.7524L36.9066 29.8776ZM38.6098 31.2583C36.211 32.9524 34.8186 35.7341 34.8998 38.6698L35.0997 38.6642C35.0204 35.7954 36.381 33.0771 38.7251 31.4217L38.6098 31.2583ZM34.8997 38.6655C34.8684 40.797 35.5768 42.8734 36.9043 44.5413L37.0608 44.4167C35.7621 42.7851 35.0691 40.7537 35.0997 38.6685L34.8997 38.6655ZM36.9031 44.5397C38.1191 46.1291 39.9969 47.0728 41.9978 47.1L42.0005 46.9C40.061 46.8737 38.2407 45.9589 37.062 44.4182L36.9031 44.5397ZM41.9992 47.1C44.216 47.1006 46.4087 46.6411 48.4389 45.7506L48.3585 45.5674C46.3537 46.4468 44.1883 46.9006 41.9992 46.9L41.9992 47.1ZM48.4384 45.7508C56.0171 42.4726 61.0977 33.7308 61.0977 24H60.8977C60.8977 33.6691 55.8492 42.3273 48.359 45.5672L48.4384 45.7508ZM61.0977 24.0013C61.1759 18.1098 59.2267 12.3703 55.5767 7.74504L55.4197 7.86893C59.0413 12.4582 60.9753 18.153 60.8978 23.9987L61.0977 24.0013ZM58.8979 24C58.8979 32.8831 54.3336 40.8076 47.5591 43.7322L47.6384 43.9158C54.5029 40.9524 59.0979 32.9429 59.0979 24H58.8979ZM47.5586 43.7324C45.806 44.5015 43.9131 44.899 41.9991 44.9L41.9992 45.1C43.9408 45.099 45.8611 44.6957 47.639 43.9156L47.5586 43.7324ZM42.0016 44.9C40.663 44.8674 39.413 44.2232 38.6095 43.152L38.4495 43.272C39.2898 44.3922 40.5969 45.0658 41.9968 45.1L42.0016 44.9ZM38.608 43.1501C37.6027 41.8753 37.0697 40.292 37.0996 38.6688L36.8996 38.6651C36.8689 40.3345 37.4171 41.9629 38.4509 43.2739L38.608 43.1501ZM37.0996 38.667C37.0996 35.2069 39.3184 32.433 41.9992 32.433V32.233C39.1664 32.233 36.8996 35.1431 36.8996 38.667H37.0996ZM41.9992 32.433C42.6066 32.433 43.0991 31.9405 43.0991 31.333H42.8991C42.8991 31.83 42.4962 32.233 41.9992 32.233V32.433ZM43.0991 31.333C43.0991 30.7255 42.6066 30.233 41.9992 30.233V30.433C42.4962 30.433 42.8991 30.836 42.8991 31.333H43.0991ZM42.0015 30.233C40.666 30.2019 39.4183 29.5607 38.6154 28.4929L38.4555 28.6131C39.2952 29.7298 40.6001 30.4004 41.9969 30.433L42.0015 30.233ZM38.6168 28.4948L38.6118 28.4878L38.4491 28.6041L38.4541 28.6111L38.6168 28.4948ZM38.609 28.484C37.6031 27.2092 37.0699 25.6255 37.0996 24.0018L36.8996 23.9982C36.869 25.668 37.4175 27.2968 38.4519 28.6079L38.609 28.484ZM37.0996 24C37.0996 20.5399 39.3184 17.767 41.9992 17.767V17.567C39.1664 17.567 36.8996 20.4761 36.8996 24H37.0996ZM41.9992 17.767C42.6066 17.767 43.0991 17.2745 43.0991 16.667H42.8991C42.8991 17.164 42.4962 17.567 41.9992 17.567V17.767ZM43.0991 16.667C43.0991 16.0595 42.6066 15.567 41.9992 15.567V15.767C42.4962 15.767 42.8991 16.17 42.8991 16.667H43.0991ZM42.0016 15.567C40.6632 15.5346 39.4134 14.8905 38.6105 13.819L38.4504 13.939C39.2901 15.0595 40.5971 15.7331 41.9968 15.767L42.0016 15.567ZM38.609 13.817C37.6031 12.5422 37.0699 10.9585 37.0996 9.33481L36.8996 9.33116C36.869 11.001 37.4175 12.6298 38.4519 13.9409L38.609 13.817ZM37.0996 9.33298C37.0996 5.87289 39.3184 3.09998 41.9992 3.09998V2.89998C39.1664 2.89998 36.8996 5.80908 36.8996 9.33298H37.0996ZM41.9991 3.09998C43.9131 3.10172 45.8061 3.49985 47.5586 4.26954L47.639 4.08643C45.8612 3.30562 43.9409 2.90175 41.9993 2.89998L41.9991 3.09998ZM47.558 4.26929C50.0179 5.3682 52.1816 7.03614 53.8704 9.13566L54.0262 9.01031C52.3175 6.88608 50.1285 5.19852 47.6396 4.08668L47.558 4.26929ZM53.8697 9.13483C57.1998 13.3666 58.975 18.6141 58.8979 23.9986L59.0979 24.0014C59.1756 18.5711 57.3853 13.2789 54.0269 9.01114L53.8697 9.13483ZM26.9857 22.9011C26.9621 22.9045 26.9391 22.9095 26.917 22.9152L26.9676 23.1087C26.9838 23.1045 26.9996 23.1012 27.0149 23.0989L26.9857 22.9011ZM27.042 23.0046C26.8504 20.427 25.5097 18.0722 23.3909 16.592L23.2763 16.756C25.3459 18.2018 26.6555 20.5017 26.8426 23.0194L27.042 23.0046ZM23.3883 16.7577C24.0334 16.3362 24.6079 15.8154 25.0904 15.2146L24.9345 15.0894C24.4651 15.6738 23.9064 16.1803 23.2789 16.5903L23.3883 16.7577ZM25.0907 15.2143C26.4209 13.545 27.1311 11.4659 27.1003 9.33154L26.9003 9.33443C26.9305 11.4225 26.2356 13.4565 24.9342 15.0897L25.0907 15.2143ZM27.1003 9.33298C27.1003 4.69979 23.9304 0.899985 20.0008 0.899985V1.09998C23.7887 1.09998 26.9003 4.77618 26.9003 9.33298H27.1003ZM20.0008 0.899985C17.7858 0.899985 15.5948 1.3591 13.5662 2.2484L13.6465 2.43157C15.6498 1.55337 17.8134 1.09998 20.0008 1.09998V0.899985ZM13.5656 2.24865C10.7827 3.48923 8.33488 5.37392 6.42395 7.74727L6.57973 7.8727C8.47077 5.52405 10.8931 3.65899 13.647 2.43132L13.5656 2.24865ZM6.42335 7.74803C2.77328 12.3722 0.82409 18.1106 0.902263 24.0013L1.10225 23.9987C1.02468 18.1538 2.9587 12.4601 6.58034 7.87194L6.42335 7.74803ZM0.902254 24C0.902254 33.7308 5.98295 42.4726 13.5616 45.7498L13.641 45.5662C6.1508 42.3273 1.10225 33.6691 1.10225 24H0.902254ZM13.5611 45.7496C15.5913 46.6402 17.784 47.1 20.0008 47.1V46.9C17.8117 46.9 15.6463 46.446 13.6415 45.5664L13.5611 45.7496ZM20.0021 47.1C22.0002 47.0737 23.8758 46.1323 25.0908 44.5458L24.9321 44.4242C23.7543 45.962 21.9362 46.8745 19.9995 46.9L20.0021 47.1ZM25.0896 44.5473C26.4207 42.8787 27.1314 40.7998 27.1003 38.6655L26.9003 38.6684C26.9307 40.7564 26.2355 42.7902 24.9333 44.4226L25.0896 44.5473ZM27.1003 38.6698C27.1814 35.7341 25.7891 32.9524 23.3903 31.2583L23.2749 31.4217C25.619 33.0771 26.9797 35.7954 26.9003 38.6642L27.1003 38.6698ZM23.3872 31.4237C24.0341 31.0018 24.6101 30.4799 25.0935 29.8776L24.9375 29.7524C24.4674 30.3383 23.9072 30.8459 23.278 31.2562L23.3872 31.4237ZM25.0935 29.8775C26.2131 28.4801 26.8925 26.7816 27.0459 24.9976L26.8467 24.9804C26.6966 26.7251 26.0322 28.3859 24.9374 29.7525L25.0935 29.8775ZM26.9463 25.089C26.938 25.089 26.9324 25.0864 26.9433 25.0899C26.9499 25.0919 26.973 25.1 27.0003 25.1V24.9C27.0086 24.9 27.0143 24.9025 27.0033 24.8991C26.9968 24.897 26.9736 24.889 26.9463 24.889V25.089ZM27.0003 25.1C27.4973 25.1 27.9002 25.503 27.9002 26H28.1002C28.1002 25.3925 27.6078 24.9 27.0003 24.9V25.1ZM27.9002 26V57H28.1002V26H27.9002ZM27.9002 57C27.9002 57.6075 28.3927 58.1 29.0002 58.1V57.9C28.5032 57.9 28.1002 57.497 28.1002 57H27.9002ZM29.0002 58.1C29.6076 58.1 30.1001 57.6075 30.1001 57H29.9001C29.9001 57.497 29.4971 57.9 29.0002 57.9V58.1ZM30.1001 57V26H29.9001V57H30.1001ZM30.1001 26C30.1001 24.2879 28.7123 22.9 27.0003 22.9V23.1C28.6018 23.1 29.9001 24.3983 29.9001 26H30.1001ZM23.3882 28.4879L23.3832 28.4949L23.546 28.6111L23.551 28.6041L23.3882 28.4879ZM23.3846 28.4929C22.5817 29.5607 21.334 30.202 19.9985 30.233L20.0032 30.433C21.3999 30.4005 22.7048 29.7298 23.5445 28.6131L23.3846 28.4929ZM20.0008 30.233C19.3934 30.233 18.9009 30.7255 18.9009 31.333H19.1009C19.1009 30.836 19.5039 30.433 20.0008 30.433V30.233ZM18.9009 31.333C18.9009 31.9405 19.3934 32.433 20.0008 32.433V32.233C19.5039 32.233 19.1009 31.83 19.1009 31.333H18.9009ZM20.0008 32.433C22.6816 32.433 24.9005 35.2069 24.9005 38.667H25.1005C25.1005 35.1431 22.8336 32.233 20.0008 32.233V32.433ZM24.9005 38.6688C24.9299 40.295 24.3948 41.8811 23.3861 43.157L23.543 43.281C24.5804 41.9689 25.1307 40.3377 25.1004 38.6652L24.9005 38.6688ZM23.3846 43.1589C22.5817 44.2268 21.3341 44.8682 19.9985 44.9L20.0032 45.1C21.4001 45.0667 22.7048 44.3959 23.5445 43.2791L23.3846 43.1589ZM20.0009 44.9C18.087 44.8984 16.194 44.5005 14.4414 43.7314L14.3611 43.9146C16.139 44.6947 18.0592 45.0983 20.0007 45.1L20.0009 44.9ZM14.4409 43.7312C7.6664 40.8076 3.1021 32.8831 3.1021 24H2.9021C2.9021 32.9429 7.49713 40.9524 14.3616 43.9148L14.4409 43.7312ZM3.10209 23.9985C3.02281 18.6162 4.79513 13.37 8.12234 9.1388L7.96512 9.01517C4.60957 13.2824 2.82216 18.5733 2.90212 24.0015L3.10209 23.9985ZM8.12166 9.13965C9.81196 7.03764 11.9781 5.36796 14.441 4.2683L14.3595 4.08567C11.8676 5.19826 9.67599 6.88758 7.9658 9.01432L8.12166 9.13965ZM14.4405 4.26855C16.1933 3.49898 18.0866 3.1011 20.0009 3.09998L20.0008 2.89998C18.0588 2.90112 16.1382 3.30474 14.3601 4.08542L14.4405 4.26855ZM20.0008 3.09998C22.6817 3.09998 24.9005 5.87289 24.9005 9.33298H25.1005C25.1005 5.80908 22.8336 2.89998 20.0008 2.89998V3.09998ZM24.9005 9.33479C24.9298 10.9613 24.3947 12.5476 23.3861 13.824L23.543 13.948C24.5803 12.6353 25.1306 11.0039 25.1004 9.33118L24.9005 9.33479ZM23.3846 13.8259C22.5817 14.8938 21.3341 15.5352 19.9985 15.567L20.0032 15.767C21.4001 15.7337 22.7048 15.0629 23.5445 13.9461L23.3846 13.8259ZM20.0008 15.567C19.3934 15.567 18.9009 16.0595 18.9009 16.667H19.1009C19.1009 16.17 19.5039 15.767 20.0008 15.767V15.567ZM18.9009 16.667C18.9009 17.2745 19.3934 17.767 20.0008 17.767V17.567C19.5039 17.567 19.1009 17.164 19.1009 16.667H18.9009ZM20.0008 17.767C22.6817 17.767 24.9005 20.5399 24.9005 24H25.1005C25.1005 20.4761 22.8336 17.567 20.0008 17.567V17.767ZM24.9005 24.0018C24.9303 25.6255 24.3969 27.2092 23.3911 28.484L23.5481 28.6079C24.5826 27.2968 25.1311 25.668 25.1004 23.9981L24.9005 24.0018Z" fill="black" mask="url(#path-1-outside-1)"/>
</svg>
